<svg width="24" height="24" viewBox="0 0 24 24" fill="none" xmlns="http://www.w3.org/2000/svg">
<path d="M5.20388 2C3.43283 2 2 3.42063 2 5.17473V18.64C2 20.3923 3.43283 21.8138 5.20388 21.8138H18.7968C20.5665 21.8138 22 20.3923 22 18.6398V18.502C21.9404 18.4773 16.8021 16.3541 14.1906 15.1099C12.4286 17.258 10.156 18.5605 7.79639 18.5605C3.80742 18.5605 2.45185 15.1018 4.34061 12.8244C4.7527 12.3274 5.4533 11.8529 6.54092 11.5881C8.24238 11.174 10.9499 11.8468 13.4877 12.6764C13.9603 11.8105 14.3381 10.8961 14.6144 9.94903H6.79373V9.16438H10.8263V7.75708H5.94221V6.97199H10.8263V4.96485C10.8263 4.96485 10.8263 4.62595 11.1722 4.62595H13.1436V6.97108H17.9731V7.7564H13.1436V9.16348H17.0847C16.7079 10.695 16.1352 12.1039 15.4162 13.3416C16.6123 13.7708 17.6861 14.1775 18.4864 14.4423C21.1555 15.3263 21.9042 15.4345 22 15.4458V5.17473C22 3.42086 20.5667 2 18.797 2H5.20388ZM7.39695 12.7352C7.2257 12.7371 7.05354 12.7465 6.88048 12.7634C6.38073 12.8131 5.44268 13.0316 4.92983 13.481C3.39352 14.8092 4.31259 17.237 7.42384 17.237C9.23239 17.237 11.0387 16.0915 12.4591 14.2575C10.6291 13.3727 9.05255 12.7162 7.39695 12.7352Z" fill="#00A1E9"/>
</svg>
