<svg width="51" height="39" viewBox="0 0 51 39" fill="none" xmlns="http://www.w3.org/2000/svg">
<path d="M19.5 39C30.2696 39 39 30.2696 39 19.5C39 8.73045 30.2696 0 19.5 0C8.73045 0 0 8.73045 0 19.5C0 30.2696 8.73045 39 19.5 39Z" fill="#CB6532"/>
<path d="M11.3903 25.2L12.0143 22.112H10.5103V20.544H12.3343L12.7183 18.656H11.1503V17.088H13.0383L13.6783 14H15.2783L14.6383 17.088H16.4623L17.0863 14H18.6863L18.0623 17.088H19.5663V18.656H17.7423L17.3583 20.544H18.9263V22.112H17.0383L16.3983 25.2H14.7983L15.4383 22.112H13.6143L12.9903 25.2H11.3903ZM13.9343 20.544H15.7583L16.1423 18.656H14.3183L13.9343 20.544ZM20.1362 22.096L22.0722 21.84C22.3495 22.928 22.9522 23.472 23.8802 23.472C24.4029 23.472 24.8295 23.3013 25.1602 22.96C25.4909 22.6187 25.6562 22.1653 25.6562 21.6C25.6562 20.9813 25.4962 20.5013 25.1762 20.16C24.8562 19.808 24.4295 19.632 23.8962 19.632C23.5549 19.632 23.2295 19.712 22.9202 19.872L22.1202 18.752L24.2322 15.856H20.6642V14H27.0802V14.704L24.4402 18.272C24.6962 18.2507 24.8455 18.24 24.8882 18.24C25.7415 18.24 26.4189 18.544 26.9202 19.152C27.4215 19.76 27.6722 20.5653 27.6722 21.568C27.6722 22.6987 27.3149 23.6107 26.6002 24.304C25.8855 24.9867 24.9789 25.328 23.8802 25.328C22.8562 25.328 21.9975 25.0293 21.3042 24.432C20.6215 23.824 20.2322 23.0453 20.1362 22.096Z" fill="white"/>
<path d="M39 19.5H45" stroke="#CB6532" stroke-width="0.375"/>
<path d="M46.125 21C46.9534 21 47.625 20.3284 47.625 19.5C47.625 18.6716 46.9534 18 46.125 18C45.2966 18 44.625 18.6716 44.625 19.5C44.625 20.3284 45.2966 21 46.125 21Z" fill="#CB6532"/>
</svg>
