<svg width="51" height="39" viewBox="0 0 51 39" fill="none" xmlns="http://www.w3.org/2000/svg">
<path d="M19.5 39C30.2696 39 39 30.2696 39 19.5C39 8.73045 30.2696 0 19.5 0C8.73045 0 0 8.73045 0 19.5C0 30.2696 8.73045 39 19.5 39Z" fill="#CB6532"/>
<path d="M11.3903 25.2L12.0143 22.112H10.5103V20.544H12.3343L12.7183 18.656H11.1503V17.088H13.0383L13.6783 14H15.2783L14.6383 17.088H16.4623L17.0863 14H18.6863L18.0623 17.088H19.5663V18.656H17.7423L17.3583 20.544H18.9263V22.112H17.0383L16.3983 25.2H14.7983L15.4383 22.112H13.6143L12.9903 25.2H11.3903ZM13.9343 20.544H15.7583L16.1423 18.656H14.3183L13.9343 20.544ZM20.8722 25.2V23.344H23.4162V16.816L21.2722 18.096V15.92L24.5522 14H25.4322V23.344H27.9762V25.2H20.8722Z" fill="white"/>
<path d="M39 19.5H45" stroke="#CB6532" stroke-width="0.375"/>
<path d="M46.125 21C46.9534 21 47.625 20.3284 47.625 19.5C47.625 18.6716 46.9534 18 46.125 18C45.2966 18 44.625 18.6716 44.625 19.5C44.625 20.3284 45.2966 21 46.125 21Z" fill="#CB6532"/>
</svg>
