<svg width="51" height="39" viewBox="0 0 51 39" fill="none" xmlns="http://www.w3.org/2000/svg">
<path d="M19.5 39C30.2696 39 39 30.2696 39 19.5C39 8.73045 30.2696 0 19.5 0C8.73045 0 0 8.73045 0 19.5C0 30.2696 8.73045 39 19.5 39Z" fill="#CB6532"/>
<path d="M11.3903 25.328L12.0143 22.24H10.5103V20.672H12.3343L12.7183 18.784H11.1503V17.216H13.0383L13.6783 14.128H15.2783L14.6383 17.216H16.4623L17.0863 14.128H18.6863L18.0623 17.216H19.5663V18.784H17.7423L17.3583 20.672H18.9263V22.24H17.0383L16.3983 25.328H14.7983L15.4383 22.24H13.6143L12.9903 25.328H11.3903ZM13.9343 20.672H15.7583L16.1423 18.784H14.3183L13.9343 20.672ZM20.4082 25.328V24.528L24.4082 19.36C24.9842 18.6133 25.2722 17.936 25.2722 17.328C25.2722 16.8693 25.1549 16.512 24.9202 16.256C24.6855 15.9893 24.3442 15.856 23.8962 15.856C23.4909 15.856 23.1602 15.984 22.9042 16.24C22.6589 16.496 22.5042 16.8587 22.4402 17.328L20.5842 16.976C20.6375 16.1227 20.9789 15.4133 21.6082 14.848C22.2482 14.2827 23.0269 14 23.9442 14C24.9789 14 25.7949 14.2987 26.3922 14.896C26.9895 15.4827 27.2882 16.2667 27.2882 17.248C27.2882 18.176 26.9682 19.0613 26.3282 19.904L23.5922 23.472H27.5282V25.328H20.4082Z" fill="white"/>
<path d="M39 19.5H45" stroke="#CB6532" stroke-width="0.375"/>
<path d="M46.125 21C46.9534 21 47.625 20.3284 47.625 19.5C47.625 18.6716 46.9534 18 46.125 18C45.2966 18 44.625 18.6716 44.625 19.5C44.625 20.3284 45.2966 21 46.125 21Z" fill="#CB6532"/>
</svg>
