<?xml version="1.0" standalone="no"?>
<!DOCTYPE svg PUBLIC "-//W3C//DTD SVG 20010904//EN"
 "http://www.w3.org/TR/2001/REC-SVG-20010904/DTD/svg10.dtd">
<svg version="1.0" xmlns="http://www.w3.org/2000/svg"
 width="119.000000pt" height="55.000000pt" viewBox="0 0 119.000000 55.000000"
 preserveAspectRatio="xMidYMid meet">

<g transform="translate(0.000000,55.000000) scale(0.100000,-0.100000)"
fill="#000000" stroke="none">
<path d="M67 509 c-37 -22 -47 -70 -47 -234 0 -166 10 -214 48 -234 14 -8 185
-11 531 -11 l510 0 28 24 28 24 0 197 0 197 -28 24 -28 24 -512 0 c-346 -1
-518 -4 -530 -11z m553 -234 l0 -215 -258 0 c-217 0 -261 2 -280 16 -21 15
-22 20 -22 199 0 179 1 184 22 199 19 14 63 16 280 16 l258 0 0 -215z m165 42
c19 -28 19 -57 -1 -86 -14 -19 -23 -22 -50 -18 -32 5 -34 4 -34 -24 0 -22 -5
-29 -20 -29 -18 0 -20 7 -20 89 l0 88 55 1 c45 0 58 -3 70 -21z m139 7 c10
-10 16 -33 16 -63 l0 -48 -55 -1 c-44 0 -57 3 -65 18 -13 24 -13 26 6 44 8 9
29 16 45 16 19 0 28 4 23 11 -3 6 -19 9 -35 7 -27 -4 -39 9 -22 25 12 13 72 7
87 -9z m88 -26 l13 -42 11 39 c8 29 17 41 32 43 12 2 22 -1 22 -6 0 -19 -61
-156 -73 -164 -25 -16 -57 -9 -57 13 0 11 4 18 8 15 4 -2 14 -1 21 3 10 6 7
22 -13 71 -14 35 -26 65 -26 67 0 2 11 3 25 3 20 0 26 -7 37 -42z"/>
<path d="M290 375 c0 -8 9 -15 20 -15 11 0 20 7 20 15 0 8 -9 15 -20 15 -11 0
-20 -7 -20 -15z"/>
<path d="M141 321 c-24 -24 -27 -59 -7 -86 10 -14 21 -17 50 -12 20 3 36 2 36
-2 0 -17 -31 -33 -55 -29 -31 6 -35 -18 -4 -27 25 -8 71 2 81 18 4 7 8 42 8
79 0 64 -1 68 -22 67 -13 0 -33 2 -45 6 -15 5 -27 1 -42 -14z m73 -33 c8 -14
7 -22 -7 -35 -16 -16 -18 -16 -33 -1 -10 10 -14 23 -9 37 8 25 33 24 49 -1z"/>
<path d="M415 330 c-3 -6 -17 -7 -31 -4 -23 6 -24 5 -24 -50 0 -49 2 -56 20
-56 16 0 20 7 20 34 0 22 7 40 18 48 27 19 36 38 18 38 -8 0 -18 -5 -21 -10z"/>
<path d="M477 320 c-16 -12 -27 -31 -27 -45 0 -35 47 -68 85 -61 74 15 74 107
0 122 -22 4 -38 0 -58 -16z m68 -45 c0 -23 -5 -31 -21 -33 -24 -3 -38 20 -28
50 4 13 13 18 27 16 17 -2 22 -10 22 -33z"/>
<path d="M290 275 c0 -48 2 -55 20 -55 18 0 20 7 20 55 0 48 -2 55 -20 55 -18
0 -20 -7 -20 -55z"/>
<path d="M711 297 c-22 -22 -2 -61 25 -50 8 3 14 15 14 28 0 26 -22 39 -39 22z"/>
<path d="M867 263 c-12 -11 -8 -23 7 -23 8 0 16 7 20 15 5 15 -14 21 -27 8z"/>
</g>
</svg>
