<svg width="24" height="24" viewBox="0 0 24 24" fill="none" xmlns="http://www.w3.org/2000/svg">
<path d="M21.6952 19.1065L16.8317 11.6182L10.0977 21.9968H20.253C21.6771 21.9304 22.4736 20.3073 21.6952 19.1065Z" fill="#FFCC00"/>
<path d="M12.4209 2H4.09383C3.5389 2.00127 3.00707 2.22228 2.61468 2.61468C2.22228 3.00707 2.00127 3.5389 2 4.09383V18.0447L12.4209 2Z" fill="#164194"/>
<path d="M19.7644 2H12.4209L2 18.0447V19.8971C2.00127 20.452 2.22228 20.9839 2.61468 21.3763C3.00707 21.7687 3.5389 21.9897 4.09383 21.9909H10.0917L16.8318 11.6183L21.2065 4.8843C21.9849 3.68955 21.1884 2.06638 19.7644 2Z" fill="#E40521"/>
</svg>
