<?xml version="1.0" encoding="utf-8"?>
<!-- Generator: Adobe Illustrator 26.5.0, SVG Export Plug-In . SVG Version: 6.00 Build 0)  -->
<svg version="1.1" id="Layer_1" xmlns="http://www.w3.org/2000/svg" xmlns:xlink="http://www.w3.org/1999/xlink" x="0px" y="0px"
	 viewBox="0 0 1080.86 173.76" style="enable-background:new 0 0 1080.86 173.76;" xml:space="preserve">
<style type="text/css">
	.st0{fill:#1A1C1B;}
</style>
<g>
	<path class="st0" d="M48.1,117.9c-4.14,3.1-8.47,5.43-13.01,6.98c-4.53,1.55-9.31,2.33-14.32,2.33c-3.58,0-7.74-0.4-12.47-1.19
		c-4.73-0.79-7.38-1.55-7.94-2.27c-0.71-0.95-0.4-2.45,0.96-4.47c1.35-2.03,2.74-3.28,4.18-3.76c0.16-0.08,0.4-0.14,0.72-0.18
		c0.32-0.04,0.6-0.06,0.84-0.06c0.72,0,1.61,0.14,2.68,0.42c1.07,0.28,2.96,0.86,5.67,1.73c4.69,1.59,8.37,2.65,11.04,3.16
		c2.66,0.52,5.15,0.78,7.46,0.78c2.78,0,5.31-0.36,7.58-1.07c2.27-0.72,4.27-1.79,6.03-3.22c1.35-1.11,2.58-2.39,3.7-3.82
		c1.11-1.43,2.19-3.1,3.22-5.01c0.8-1.43,1.61-3.16,2.45-5.19c0.83-2.03,2.13-5.47,3.88-10.32c1.51-3.98,2.68-7.08,3.52-9.31
		c0.84-2.23,1.69-4.37,2.57-6.44c4.45-10.82,9.21-19.65,14.26-26.49c5.05-6.84,10.4-11.77,16.05-14.8
		c-12.73-2.07-21.84-3.44-27.32-4.12c-5.49-0.68-9.71-1.01-12.65-1.01c-1.59,0-3.12,0.14-4.59,0.42c-1.47,0.28-2.92,0.7-4.36,1.25
		c-3.66,1.59-6.98,4.36-9.96,8.29c-2.98,3.94-5.91,9.45-8.77,16.53c-1.19,2.94-2.25,4.81-3.16,5.61c-0.92,0.8-2.41,1.19-4.47,1.19
		c-2.15,0-3.4-0.58-3.76-1.73c-0.36-1.15,0.14-3,1.49-5.55c3.18-5.89,7.16-10.94,11.93-15.15c4.77-4.21,10.22-7.56,16.35-10.02
		c3.42-1.35,7.04-2.39,10.86-3.1c3.82-0.72,7.68-1.07,11.57-1.07c3.34,0,7.08,0.12,11.22,0.36c4.14,0.24,10.5,0.76,19.09,1.55
		c9.78,0.95,17.22,1.57,22.31,1.85c5.09,0.28,9.82,0.42,14.2,0.42c1.59,0,3.12-0.08,4.59-0.24c1.47-0.16,3.16-0.48,5.07-0.95
		c0.56-0.08,0.93-0.14,1.13-0.18c0.2-0.04,0.34-0.06,0.42-0.06c0.16,0,0.26,0.02,0.3,0.06c0.04,0.04,0.06,0.1,0.06,0.18
		c0,0.56-0.82,1.75-2.45,3.58c-1.63,1.83-2.92,2.98-3.88,3.46c-1.83,1.03-3.66,1.73-5.49,2.09c-1.83,0.36-4.22,0.54-7.16,0.54
		c-2.47,0-6.05-0.3-10.74-0.9c-4.7-0.6-11.65-1.65-20.88-3.16c-2.39,1.67-4.55,3.98-6.5,6.92c-1.95,2.94-4.04,7.24-6.26,12.89
		c-0.72,1.83-2.03,5.23-3.94,10.2c-1.91,4.97-3.5,9.05-4.77,12.23c-3.5,8.51-7.7,16.19-12.59,23.03
		C59.14,107.92,53.83,113.53,48.1,117.9z"/>
	<path class="st0" d="M101.67,126.02c-0.56,0.08-1,0.12-1.31,0.12c-0.32,0-0.6,0-0.84,0c-1.75,0-2.86-0.42-3.34-1.25
		c-0.48-0.84-0.4-2.13,0.24-3.88c1.03-1.67,2.76-4.63,5.19-8.89c2.43-4.25,6.82-12.11,13.19-23.56c6.6-11.77,11.14-19.83,13.6-24.16
		c2.46-4.33,4.22-7.3,5.25-8.89c3.02-4.93,7.14-9.76,12.35-14.5c5.21-4.73,10.84-8.69,16.88-11.87c5.41-2.86,10.94-5.03,16.59-6.5
		c5.65-1.47,11.29-2.21,16.94-2.21c3.34,0,6.18,0.06,8.53,0.18c2.35,0.12,4.12,0.26,5.31,0.42c0.48,0.08,0.84,0.26,1.07,0.54
		c0.24,0.28,0.36,0.62,0.36,1.01c0,1.19-0.66,2.62-1.97,4.3c-1.31,1.67-2.49,2.51-3.52,2.51c-1.19,0-2.59-0.06-4.18-0.18
		c-1.59-0.12-4.18-0.34-7.76-0.66c-4.77-0.48-8.43-0.79-10.98-0.96c-2.55-0.16-4.93-0.24-7.16-0.24c-3.02,0-5.49,0.2-7.4,0.6
		c-1.91,0.4-3.74,1.07-5.49,2.03c-3.02,1.59-6.17,4.41-9.43,8.47c-3.26,4.06-7.08,9.83-11.45,17.3
		c-2.86,4.77-7.44,12.85-13.72,24.22c-6.28,11.38-10.18,18.46-11.69,21.24c6.76-8.35,14.72-16.21,23.86-23.56
		c9.15-7.36,15.75-11.35,19.81-11.99c4.06,0.88,5.65,3.86,4.77,8.95c-0.88,5.09-4.22,12.49-10.02,22.19
		c-0.56,0.96-1.43,2.49-2.62,4.59c-1.19,2.11-2.11,3.68-2.74,4.71c-1.35,2.47-2.31,4.47-2.86,6.03c-0.56,1.55-0.8,2.88-0.72,4
		c0.08,1.19,0.42,2.21,1.01,3.04c0.6,0.84,1.41,1.41,2.45,1.73c2.07-0.72,4.53-2.05,7.4-4c2.86-1.95,5.33-4,7.4-6.15l0.72,0.84
		c-3.1,3.02-6.26,5.81-9.49,8.35c-3.22,2.55-6.34,4.73-9.37,6.56c-0.24,0.08-0.54,0.16-0.89,0.24c-0.36,0.08-0.78,0.12-1.25,0.12
		c-0.72,0-1.39-0.04-2.03-0.12c-0.64-0.08-1.03-0.2-1.19-0.36c-1.27-0.96-2.33-2.37-3.16-4.24c-0.84-1.87-1.29-3.6-1.37-5.19
		c-0.08-1.11,0.24-2.58,0.96-4.41c0.72-1.83,1.87-4.14,3.46-6.92c0.72-1.35,1.81-3.22,3.28-5.61c1.47-2.39,2.49-4.06,3.04-5.01
		c4.06-7,6.64-12.35,7.76-16.05c1.11-3.7,0.79-6.38-0.96-8.05c-4.38,0.96-10.76,5.21-19.15,12.77
		c-8.39,7.56-15.61,15.75-21.66,24.58c-0.95,1.35-1.93,2.91-2.92,4.65c-1,1.75-2.45,4.3-4.36,7.64c-0.88,1.67-1.51,2.85-1.91,3.52
		c-0.4,0.68-0.76,1.29-1.07,1.85c-0.16,0-0.32,0-0.48,0C102.47,125.9,102.15,125.94,101.67,126.02z"/>
	<path class="st0" d="M199.87,122.44c-3.34,1.83-6.2,3.14-8.59,3.94c-2.39,0.79-4.65,1.19-6.8,1.19c-2.39,0-4.79-0.93-7.22-2.8
		c-2.43-1.87-4.04-4.08-4.83-6.62c-1.19-3.98-1.27-8.13-0.24-12.47c1.03-4.33,3.1-9.21,6.21-14.62c2.23-3.82,5.41-7.71,9.54-11.69
		c4.14-3.98,8.31-7.16,12.53-9.55c2.55-1.35,5.09-2.4,7.64-3.16c2.55-0.75,4.93-1.13,7.16-1.13c3.42,0,6.07,0.6,7.94,1.79
		c1.87,1.19,2.8,2.82,2.8,4.89c0,2.94-1.95,6.3-5.85,10.08c-3.9,3.78-10.14,8.41-18.73,13.9c-5.09,3.1-9.03,5.49-11.81,7.16
		c-2.79,1.67-5.49,3.26-8.11,4.77c-0.08,0.88-0.14,1.75-0.18,2.62c-0.04,0.88-0.02,1.83,0.06,2.86c0.8,2.78,2.01,4.85,3.64,6.2
		c1.63,1.35,3.76,2.03,6.38,2.03c1.59,0,3.42-0.26,5.49-0.78c2.07-0.52,3.98-1.17,5.73-1.97c1.83-0.87,4.31-2.56,7.46-5.07
		c3.14-2.51,5.55-4.83,7.22-6.98l1.07,0.6c-2.23,2.71-4.99,5.37-8.29,7.99C206.77,118.26,203.37,120.53,199.87,122.44z M202.74,69.7
		c-2.15,1.43-4.55,3.78-7.22,7.04c-2.67,3.26-5.03,6.84-7.1,10.74c-1.83,3.26-3.32,6.54-4.47,9.84c-1.15,3.3-1.93,6.5-2.33,9.61
		c3.74-2.23,7.2-4.31,10.38-6.26c3.18-1.95,6.09-3.76,8.71-5.43c5.01-3.26,8.71-5.97,11.1-8.11s3.94-4.14,4.65-5.97
		c0.16-0.4,0.28-0.81,0.36-1.25c0.08-0.44,0.12-0.89,0.12-1.37c0-2.46-1.11-4.63-3.34-6.5c-2.23-1.87-4.81-2.8-7.76-2.8
		c-0.56,0-1.09,0.04-1.61,0.12C203.71,69.42,203.21,69.54,202.74,69.7z"/>
</g>
<g>
	<path class="st0" d="M350.75,128.11c-1.05,0-2.09-0.42-3.14-1.25c-1.05-0.84-2.3-2.3-3.76-4.39l-70.27-91.6l-0.16,53.17
		c0,14.64,1.33,25.33,4,32.07c2.67,6.75,7.29,10.12,13.88,10.12h2.2c0.52,0,0.78,0.23,0.78,0.71s-0.26,0.71-0.78,0.71
		c-0.84,0-2.35,0-4.55,0c-2.2,0-5.8-0.1-10.82-0.31c-2.09-0.1-3.5-0.16-4.23-0.16c-0.73,0-1.26,0-1.57,0s-0.78,0-1.41,0
		c-0.63,0-1.67,0.05-3.14,0.16c-2.3,0.1-4.05,0.18-5.25,0.23c-1.2,0.05-2.22,0.08-3.06,0.08c-0.52,0-0.78-0.24-0.78-0.71
		s0.26-0.71,0.78-0.71h0.94c3.03-0.1,5.28-1.62,6.74-4.55c1.46-2.93,2.56-7.69,3.29-14.27c0.31-2.93,0.55-6.35,0.71-10.27
		c0.16-3.92,0.23-8.29,0.23-13.1l0.16-52.39c0-0.84-0.26-1.78-0.78-2.82c-0.52-1.04-1.31-2.09-2.35-3.14
		c-2.09-1.99-4.08-3.4-5.96-4.24c-1.88-0.84-3.92-1.25-6.12-1.25h-0.94c-0.52,0-0.78-0.21-0.78-0.63c0-0.42,0.26-0.63,0.78-0.63
		c4.29,0,8.57-0.05,12.86-0.16c4.29-0.1,8.83-0.26,13.65-0.47c0.73-0.1,1.2-0.16,1.41-0.16c0.21,0,0.37,0,0.47,0
		c0.42,0,0.73,0.08,0.94,0.23c0.21,0.16,0.42,0.39,0.63,0.71c0.63,1.05,1.49,2.38,2.59,4c1.1,1.62,2.38,3.32,3.84,5.1l60.54,78.11
		v-45.8c0-5.23-0.21-9.93-0.63-14.12c-0.42-4.18-1-7.84-1.73-10.98c-1.36-5.23-3.32-9.04-5.88-11.45c-2.56-2.4-6.3-3.61-11.21-3.61
		h-2.2c-0.63,0-0.94-0.23-0.94-0.71s0.31-0.71,0.94-0.71c0.94,0,2.4,0.03,4.39,0.08c1.98,0.05,5.33,0.13,10.04,0.24
		c3.03,0.1,5.07,0.16,6.12,0.16c1.04,0,1.73,0,2.04,0c0.31,0,0.73,0,1.26,0c0.52,0,1.41-0.05,2.67-0.16
		c2.09-0.1,3.69-0.18,4.78-0.24c1.1-0.05,2.12-0.08,3.06-0.08c0.63,0,0.94,0.24,0.94,0.71s-0.31,0.71-0.94,0.71h-0.78
		c-3.56,0-5.91,1.26-7.06,3.76c-1.15,2.51-1.94,7.06-2.35,13.65c-0.11,2.72-0.21,5.96-0.31,9.72c-0.11,3.76-0.16,8.11-0.16,13.02
		v66.03c-0.21,0.52-0.63,0.92-1.26,1.18C352.48,127.98,351.69,128.11,350.75,128.11z"/>
	<path class="st0" d="M378.67,127.48c-3.56,0.11-6.12,0.16-7.69,0.16s-2.82,0-3.76,0c-0.63,0-0.94-0.24-0.94-0.71
		s0.31-0.71,0.94-0.71c4.18,0,6.82-0.81,7.92-2.43c1.1-1.62,1.65-6.09,1.65-13.41V69.29c0-5.33-0.52-8.68-1.57-10.04
		c-1.05-1.36-3.76-1.57-8.16-0.63c-0.63,0.21-1.02,0.11-1.18-0.31c-0.16-0.42,0.08-0.73,0.71-0.94c3.55-0.84,7.42-2.12,11.61-3.84
		c4.18-1.73,8-3.69,11.45-5.88c0.31-0.21,0.86-0.16,1.65,0.16c0.78,0.31,1.18,0.63,1.18,0.94v61.64c0,7.43,0.55,11.92,1.65,13.49
		c1.1,1.57,3.63,2.35,7.61,2.35c0.63,0,0.94,0.23,0.94,0.71s-0.31,0.71-0.94,0.71c-0.94,0-2.17,0-3.69,0c-1.52,0-3.9-0.05-7.14-0.16
		c-2.09-0.1-3.53-0.16-4.31-0.16c-0.78,0-1.33,0-1.65,0c-0.31,0-0.89,0-1.73,0C382.38,127.33,380.87,127.38,378.67,127.48z
		 M394.35,24.59c0,2.82-1.05,5.25-3.14,7.29c-2.09,2.04-4.6,3.06-7.53,3.06c-2.93,0-5.41-1.02-7.45-3.06
		c-2.04-2.04-3.06-4.47-3.06-7.29c0-2.93,1.02-5.44,3.06-7.53c2.04-2.09,4.52-3.14,7.45-3.14c2.93,0,5.44,1.05,7.53,3.14
		C393.31,19.16,394.35,21.67,394.35,24.59z"/>
	<path class="st0" d="M463.84,162.77c-5.23,3.55-10.85,6.27-16.86,8.16c-6.01,1.88-11.95,2.82-17.8,2.82
		c-8.26,0.1-14.74-1.57-19.45-5.02c-4.7-3.45-7.06-8.1-7.06-13.96c0-4.81,2.27-9.47,6.82-13.96c4.55-4.5,10.53-8.16,17.96-10.98
		c-6.8-0.31-11.92-1.44-15.37-3.37c-3.45-1.93-5.18-4.68-5.18-8.23c0-3.55,1.91-6.8,5.72-9.72c3.82-2.93,8.91-5.12,15.29-6.59
		c-6.49-1.57-11.48-4.52-14.98-8.86c-3.5-4.34-5.25-9.85-5.25-16.55c0-7.95,3.22-14.61,9.65-20c6.43-5.38,14.56-8.18,24.39-8.39
		c3.55-0.1,7.61-0.47,12.16-1.1c4.55-0.63,10.74-1.78,18.59-3.45c3.03-0.63,5.04-1.04,6.04-1.25c0.99-0.21,1.75-0.31,2.27-0.31
		c1.36-0.1,2.56,0.08,3.61,0.55c1.04,0.47,1.57,1.18,1.57,2.12c0,1.67-0.81,3.35-2.43,5.02c-1.62,1.67-3.43,2.51-5.41,2.51
		c-0.63,0-1.52-0.05-2.67-0.16c-1.15-0.1-3.29-0.36-6.43-0.78c-6.27-0.84-11.06-1.41-14.35-1.73c-3.29-0.31-6.14-0.47-8.55-0.47
		v0.31c8.57,1.26,15.21,4.21,19.92,8.86c4.7,4.65,7.06,10.54,7.06,17.64c0,8.16-3.19,14.72-9.57,19.68
		c-6.38,4.97-14.69,7.45-24.94,7.45c-1.57,0-3.03-0.05-4.39-0.16c-1.36-0.1-2.61-0.26-3.76-0.47c-4.7,0.84-8.18,1.91-10.43,3.22
		c-2.25,1.31-3.37,2.9-3.37,4.78c0,2.3,1.33,3.92,4,4.86s7.5,1.41,14.51,1.41h22.74c8.36,0,14.72,1.44,19.06,4.31
		c4.34,2.88,6.51,7.03,6.51,12.47c0,5.02-1.75,10.14-5.25,15.37C474.68,154.04,469.9,158.7,463.84,162.77z M411.92,146.93
		c0,5.12,2.46,9.04,7.37,11.76c4.91,2.72,12.02,4.08,21.33,4.08c10.56,0,19.55-2.12,26.98-6.35c7.42-4.23,11.14-9.28,11.14-15.14
		c0-4.18-1.88-7.14-5.65-8.86c-3.76-1.72-10.14-2.59-19.14-2.59H429.8c-5.65,1.98-10.04,4.49-13.18,7.53
		C413.49,140.4,411.92,143.58,411.92,146.93z M423.68,74.78c0,8.37,1.46,14.93,4.39,19.68c2.93,4.76,7,7.14,12.23,7.14
		c5.54,0,9.75-2.17,12.63-6.51c2.88-4.34,4.31-10.74,4.31-19.21c0-7.95-1.47-14.3-4.39-19.06c-2.93-4.76-6.9-7.14-11.92-7.14
		c-5.86,0-10.19,2.07-13.02,6.2C425.09,60.01,423.68,66.31,423.68,74.78z"/>
	<path class="st0" d="M496.46,127.48c-3.35,0.11-5.8,0.16-7.37,0.16c-1.57,0-2.82,0-3.76,0c-0.63,0-0.94-0.24-0.94-0.71
		s0.31-0.71,0.94-0.71c3.34,0,5.41-0.91,6.2-2.75c0.78-1.83,1.18-6.67,1.18-14.51V21.77c0-2.61-0.08-4.73-0.23-6.35
		c-0.16-1.62-0.45-2.9-0.86-3.84c-0.53-1.25-1.36-2.04-2.51-2.35c-1.15-0.31-3.29-0.21-6.43,0.31c-0.73,0.11-1.1-0.08-1.1-0.55
		s0.37-0.76,1.1-0.86c3.66-0.63,7.66-1.72,12-3.29c4.34-1.57,7.97-3.14,10.9-4.7c0.31-0.21,0.86-0.16,1.65,0.16
		c0.78,0.31,1.18,0.63,1.18,0.94v63.37c4.39-5.75,8.91-10.01,13.57-12.78c4.65-2.77,9.65-4.16,14.98-4.16
		c8.37,0,14.67,2.64,18.9,7.92c4.24,5.28,6.35,13.2,6.35,23.76v38.11c0,3.45,0.44,5.8,1.33,7.06c0.89,1.26,2.95,1.83,6.19,1.73
		c0.63,0,0.94,0.23,0.94,0.71s-0.31,0.71-0.94,0.71c-0.21,0-0.71,0-1.49,0c-0.78,0-2.43-0.05-4.94-0.16c-3.87,0-6.59-0.02-8.16-0.08
		c-1.57-0.05-2.62-0.08-3.14-0.08c-0.31,0-0.78,0-1.41,0c-0.63,0-1.73,0.05-3.29,0.16c-2.51,0.11-4.39,0.16-5.65,0.16
		c-1.26,0-2.35,0-3.29,0c-0.63,0-0.94-0.24-0.94-0.71s0.31-0.71,0.94-0.71c2.93,0,4.84-0.39,5.72-1.18
		c0.89-0.78,1.49-2.22,1.81-4.31c0.21-1.15,0.36-2.56,0.47-4.23c0.1-1.67,0.16-3.87,0.16-6.59V78.23c0-7.95-1.46-14.01-4.39-18.19
		c-2.93-4.18-7.16-6.27-12.7-6.27c-4.08,0-7.71,0.97-10.9,2.9c-3.19,1.94-6.56,5.2-10.12,9.8v59.76h9.41c0.63,0,0.94,0.23,0.94,0.71
		s-0.31,0.71-0.94,0.71c-0.42,0-1.1,0-2.04,0s-2.72-0.05-5.33-0.16c-2.61-0.1-4.45-0.16-5.49-0.16c-1.05,0-1.78,0-2.2,0
		c-0.31,0-0.86,0-1.65,0C500.3,127.33,498.75,127.38,496.46,127.48z"/>
	<path class="st0" d="M623.03,107.09c-3.87,7.01-8.18,12.44-12.94,16.31c-4.76,3.87-9.54,5.8-14.35,5.8c-5.33,0-9.2-1.78-11.61-5.33
		c-2.41-3.55-3.61-9.31-3.61-17.25v-48h-10.35c-0.1,0-0.16-0.13-0.16-0.39c0-0.26,0.05-0.44,0.16-0.55l25.09-24.15
		c0.31-0.31,0.55-0.44,0.71-0.39c0.16,0.05,0.24,0.29,0.24,0.71v15.37h21.33c1.46-0.1,2.59-0.13,3.37-0.08
		c0.79,0.05,1.18,0.13,1.18,0.23c0,0.52-0.73,1.88-2.19,4.08c-1.47,2.2-2.93,3.92-4.39,5.18h-19.61v45.17
		c0,5.65,0.86,9.93,2.59,12.86c1.73,2.93,4.26,4.39,7.61,4.39c2.93,0,5.67-1.25,8.23-3.76c2.56-2.51,4.84-6.22,6.82-11.14
		c0.31-0.63,0.79-0.78,1.41-0.47C623.18,105.99,623.34,106.47,623.03,107.09z"/>
	<path class="st0" d="M703.17,128.11h-2.2c-0.42,0-0.73-0.05-0.94-0.16c-0.21-0.1-0.37-0.26-0.47-0.47l-28.86-75.91
		c-1.78-4.71-3.29-8.52-4.55-11.45c-1.26-2.93-2.3-5.44-3.14-7.53c-2.3-4.81-4.29-8.05-5.96-9.73c-1.67-1.67-4.39-2.51-8.15-2.51
		h-0.31c-0.94,0-1.36-0.23-1.26-0.71c0.11-0.47,0.47-0.71,1.1-0.71c0.94,0,2.17,0.03,3.69,0.08c1.51,0.05,3.95,0.13,7.29,0.24
		c1.98,0.1,3.37,0.16,4.16,0.16c0.78,0,1.33,0,1.65,0s0.99,0,2.04,0c1.04,0,3.08-0.05,6.12-0.16c4.7-0.1,8.05-0.18,10.04-0.24
		c1.98-0.05,3.45-0.08,4.39-0.08c0.63,0,0.97,0.24,1.02,0.71c0.05,0.47-0.24,0.71-0.86,0.71h-3.29c-2.09,0-3.66,0.37-4.7,1.1
		c-1.05,0.73-1.62,1.83-1.72,3.29c0,1.78,0.89,5.31,2.67,10.59c1.78,5.28,4.76,13.36,8.94,24.23l19.14,49.56
		c0.1,0.21,0.24,0.39,0.39,0.55c0.16,0.16,0.29,0.23,0.39,0.23c0.1,0,0.18-0.02,0.23-0.08c0.05-0.05,0.18-0.29,0.39-0.71l16.16-35.6
		l-12.55-29.96c-1.57-3.76-2.85-6.74-3.84-8.94c-1-2.2-1.86-4.08-2.59-5.65c-1.78-3.34-3.4-5.62-4.86-6.82
		c-1.46-1.2-3.76-1.8-6.9-1.8h-0.94c-0.73,0-1.07-0.23-1.02-0.71c0.05-0.47,0.39-0.71,1.02-0.71c0.94,0,2.17,0.03,3.69,0.08
		c1.52,0.05,4,0.13,7.45,0.24c2.19,0.1,3.69,0.16,4.47,0.16c0.78,0,1.33,0,1.65,0c0.31,0,0.89,0,1.73,0c0.84,0,2.35-0.05,4.55-0.16
		c3.55-0.1,6.12-0.18,7.69-0.24c1.57-0.05,2.82-0.08,3.76-0.08c0.63,0,0.94,0.24,0.94,0.71s-0.31,0.71-0.94,0.71h-0.94
		c-1.78,0-3.06,0.31-3.84,0.94c-0.78,0.63-1.18,1.62-1.18,2.98c0,1.88,0.42,4.29,1.26,7.22c0.84,2.93,2.2,6.74,4.08,11.45l6.74,16
		l5.18-12.39c1.46-3.34,2.61-6.77,3.45-10.27c0.83-3.5,1.25-6.4,1.25-8.7c0-2.4-0.47-4.24-1.41-5.49c-0.94-1.26-2.25-1.88-3.92-1.88
		c-0.21,0-0.5,0.03-0.86,0.08c-0.37,0.05-0.92,0.13-1.65,0.23c-0.42,0.11-0.71,0.16-0.86,0.16s-0.29,0-0.39,0
		c-0.31,0-0.55-0.05-0.71-0.16c-0.16-0.1-0.24-0.31-0.24-0.63c0-0.31,0.13-0.55,0.39-0.71c0.26-0.16,0.71-0.24,1.33-0.24
		c0.52,0,1.28,0,2.27,0c0.99,0,2.75,0.05,5.25,0.16c2.4,0.11,4.05,0.16,4.94,0.16c0.89,0,1.54,0,1.96,0c0.31,0,0.83,0,1.57,0
		c0.73,0,2.14-0.05,4.24-0.16c3.14-0.1,5.41-0.16,6.82-0.16s2.48,0,3.22,0c0.63,0,0.91,0.24,0.86,0.71
		c-0.05,0.47-0.34,0.71-0.86,0.71h-3.14c-3.66,0-7.24,2.17-10.74,6.51c-3.51,4.34-7.19,11.11-11.06,20.31l-5.8,13.96l20.23,48.94
		c0.1,0.21,0.24,0.37,0.39,0.47c0.16,0.1,0.29,0.16,0.39,0.16c0.1,0,0.21-0.05,0.31-0.16c0.1-0.1,0.21-0.26,0.31-0.47l22.59-58.82
		c1.67-4.6,2.98-8.86,3.92-12.78c0.94-3.92,1.41-7.29,1.41-10.12c0-2.61-0.68-4.63-2.04-6.04c-1.36-1.41-3.35-2.12-5.96-2.12
		c-0.21,0-0.53,0.03-0.94,0.08c-0.42,0.05-1.05,0.18-1.88,0.39c-0.53,0-0.89,0.03-1.1,0.08c-0.21,0.05-0.37,0.08-0.47,0.08
		c-0.31,0-0.57-0.08-0.78-0.23c-0.21-0.16-0.31-0.39-0.31-0.71c0-0.31,0.16-0.55,0.47-0.71c0.31-0.16,0.78-0.24,1.41-0.24
		c0.52,0,1.38,0,2.59,0c1.2,0,3.37,0.05,6.51,0.16c3.03,0.11,5.12,0.16,6.27,0.16c1.15,0,1.93,0,2.35,0c0.31,0,0.79,0,1.41,0
		s1.72-0.05,3.29-0.16c2.51-0.1,4.36-0.16,5.57-0.16c1.2,0,2.22,0,3.06,0c0.63,0,0.91,0.24,0.86,0.71
		c-0.05,0.47-0.34,0.71-0.86,0.71h-0.47c-3.66,0-7.19,2.41-10.59,7.22c-3.4,4.81-7.29,12.97-11.68,24.47l-29.33,75.6
		c-0.1,0.21-0.24,0.36-0.39,0.47c-0.16,0.1-0.45,0.16-0.86,0.16h-2.2c-0.52,0-0.86-0.03-1.02-0.08c-0.16-0.05-0.29-0.24-0.39-0.55
		l-21.49-51.76l-23.37,51.6c-0.1,0.21-0.23,0.37-0.39,0.47C703.72,128.06,703.49,128.11,703.17,128.11z"/>
	<path class="st0" d="M839.94,105.84c-2.82,5.75-7.24,11.11-13.25,16.08c-6.01,4.97-11.84,7.45-17.49,7.45
		c-5.75,0-10.51-1.67-14.27-5.02c-3.76-3.35-5.65-7.53-5.65-12.55c0-5.85,3.14-11.29,9.41-16.31c6.27-5.02,16.31-10.19,30.11-15.53
		l12.23-4.7c-0.21-9.62-1.47-16.41-3.76-20.39c-2.3-3.97-6.12-5.96-11.45-5.96c-2.09,0-3.98,0.37-5.65,1.1
		c-1.67,0.73-3.14,1.78-4.39,3.14c-1.05,1.05-2.01,2.3-2.9,3.76c-0.89,1.47-2.01,3.76-3.37,6.9c-0.53,1.36-0.94,2.33-1.26,2.9
		c-0.31,0.58-0.58,1.07-0.78,1.49c-0.73,1.47-1.78,2.51-3.14,3.14c-1.36,0.63-3.24,0.94-5.65,0.94c-2.41,0-4.29-0.44-5.65-1.33
		c-1.36-0.89-2.04-2.06-2.04-3.53c0-1.46,0.55-3.01,1.65-4.63c1.1-1.62,2.64-3.06,4.63-4.31c4.39-3.03,9.54-5.59,15.45-7.69
		c5.91-2.09,11.16-3.14,15.76-3.14c9.2,0,16.18,2.38,20.94,7.14c4.76,4.76,7.14,11.84,7.14,21.25c0,1.88-0.03,4.18-0.08,6.9
		c-0.05,2.72-0.18,6.96-0.39,12.7c-0.21,4.6-0.34,7.82-0.39,9.65c-0.05,1.83-0.08,3.32-0.08,4.47c0,4.5,0.31,7.69,0.94,9.57
		c0.63,1.88,1.67,2.82,3.14,2.82c1.26,0,2.69-0.94,4.31-2.82c1.62-1.88,2.95-4.02,4-6.43c0.42-0.63,0.94-0.76,1.57-0.39
		c0.63,0.37,0.73,0.92,0.31,1.65c-2.3,3.56-5.51,6.96-9.65,10.2c-4.13,3.24-7.76,4.86-10.9,4.86c-3.35,0-5.83-1-7.45-2.98
		c-1.62-1.98-2.43-5.07-2.43-9.25c0-1.98,0.05-4.02,0.16-6.12C839.73,108.77,839.84,107.09,839.94,105.84z M804.18,105.99
		c0,4.08,1.44,7.5,4.31,10.27c2.88,2.77,6.51,4.21,10.9,4.31c4.08,0,8.21-1.96,12.39-5.88c4.18-3.92,6.95-7.92,8.31-12
		c0.31-6.59,0.55-11.92,0.71-16c0.16-4.08,0.24-6.85,0.24-8.31v-2.04l-11.92,5.18c-9.62,4.08-16.18,7.84-19.68,11.29
		C805.93,96.27,804.18,100.66,804.18,105.99z"/>
	<path class="st0" d="M917.74,107.09c-3.87,7.01-8.18,12.44-12.94,16.31c-4.76,3.87-9.54,5.8-14.35,5.8c-5.33,0-9.2-1.78-11.61-5.33
		c-2.41-3.55-3.61-9.31-3.61-17.25v-48h-10.35c-0.1,0-0.16-0.13-0.16-0.39c0-0.26,0.05-0.44,0.16-0.55l25.09-24.15
		c0.31-0.31,0.55-0.44,0.71-0.39c0.16,0.05,0.23,0.29,0.23,0.71v15.37h21.33c1.46-0.1,2.59-0.13,3.37-0.08
		c0.78,0.05,1.18,0.13,1.18,0.23c0,0.52-0.73,1.88-2.2,4.08c-1.46,2.2-2.93,3.92-4.39,5.18h-19.61v45.17
		c0,5.65,0.86,9.93,2.59,12.86c1.72,2.93,4.26,4.39,7.61,4.39c2.93,0,5.67-1.25,8.24-3.76c2.56-2.51,4.83-6.22,6.82-11.14
		c0.31-0.63,0.78-0.78,1.41-0.47C917.9,105.99,918.05,106.47,917.74,107.09z"/>
	<path class="st0" d="M996.32,98.15c-4.92,9.52-11.22,17.07-18.9,22.66c-7.69,5.59-15.76,8.39-24.23,8.39
		c-11.29,0-20.47-3.5-27.53-10.51c-7.06-7-10.59-16.1-10.59-27.29c0-11.5,4.57-21.67,13.72-30.51c9.15-8.83,19.89-13.25,32.23-13.25
		c7.74,0,14.19,1.33,19.37,4c5.18,2.67,7.76,5.88,7.76,9.65c0,2.3-0.89,4.29-2.67,5.96c-1.78,1.67-4.03,2.51-6.74,2.51
		c-1.78,0-3.4-0.52-4.86-1.57c-1.47-1.04-3.29-3.29-5.49-6.74c-2.72-4.39-5.18-7.29-7.37-8.71c-2.2-1.41-4.76-2.12-7.69-2.12
		c-7.22,0-13.04,2.9-17.49,8.7c-4.44,5.8-6.67,13.52-6.67,23.13c0,10.25,3.24,18.64,9.73,25.17c6.48,6.54,14.9,9.8,25.25,9.8
		c6.9,0,12.89-1.62,17.96-4.86c5.07-3.24,9.43-8.21,13.1-14.9c0.1-0.31,0.24-0.52,0.39-0.63c0.16-0.1,0.34-0.1,0.55,0
		c0.21,0.11,0.31,0.26,0.31,0.47C996.47,97.74,996.42,97.94,996.32,98.15z"/>
	<path class="st0" d="M1006.67,127.48c-3.35,0.11-5.8,0.16-7.37,0.16c-1.57,0-2.82,0-3.76,0c-0.63,0-0.94-0.24-0.94-0.71
		s0.31-0.71,0.94-0.71c3.34,0,5.41-0.91,6.19-2.75c0.78-1.83,1.18-6.67,1.18-14.51V21.77c0-2.61-0.08-4.73-0.24-6.35
		c-0.16-1.62-0.45-2.9-0.86-3.84c-0.52-1.25-1.36-2.04-2.51-2.35c-1.15-0.31-3.29-0.21-6.43,0.31c-0.73,0.11-1.1-0.08-1.1-0.55
		s0.37-0.76,1.1-0.86c3.66-0.63,7.66-1.72,12-3.29c4.34-1.57,7.97-3.14,10.9-4.7c0.31-0.21,0.86-0.16,1.65,0.16
		c0.78,0.31,1.18,0.63,1.18,0.94v63.37c4.39-5.75,8.91-10.01,13.57-12.78c4.65-2.77,9.65-4.16,14.98-4.16
		c8.36,0,14.66,2.64,18.9,7.92c4.24,5.28,6.35,13.2,6.35,23.76v38.11c0,3.45,0.44,5.8,1.33,7.06c0.89,1.26,2.95,1.83,6.2,1.73
		c0.63,0,0.94,0.23,0.94,0.71s-0.31,0.71-0.94,0.71c-0.21,0-0.71,0-1.49,0s-2.43-0.05-4.94-0.16c-3.87,0-6.59-0.02-8.16-0.08
		c-1.57-0.05-2.61-0.08-3.14-0.08c-0.31,0-0.79,0-1.41,0s-1.72,0.05-3.29,0.16c-2.51,0.11-4.39,0.16-5.65,0.16
		c-1.25,0-2.35,0-3.29,0c-0.63,0-0.94-0.24-0.94-0.71s0.31-0.71,0.94-0.71c2.93,0,4.83-0.39,5.72-1.18c0.89-0.78,1.49-2.22,1.8-4.31
		c0.21-1.15,0.36-2.56,0.47-4.23c0.1-1.67,0.16-3.87,0.16-6.59V78.23c0-7.95-1.46-14.01-4.39-18.19c-2.93-4.18-7.17-6.27-12.7-6.27
		c-4.08,0-7.71,0.97-10.9,2.9c-3.19,1.94-6.56,5.2-10.12,9.8v59.76h9.41c0.63,0,0.94,0.23,0.94,0.71s-0.31,0.71-0.94,0.71
		c-0.42,0-1.1,0-2.04,0c-0.94,0-2.72-0.05-5.33-0.16c-2.62-0.1-4.44-0.16-5.49-0.16c-1.05,0-1.78,0-2.2,0c-0.31,0-0.86,0-1.65,0
		C1010.51,127.33,1008.97,127.38,1006.67,127.48z"/>
</g>
</svg>
