<svg width="495" height="80" viewBox="0 0 495 80" fill="none" xmlns="http://www.w3.org/2000/svg">
<path d="M22.0013 59.9052C20.1245 61.3242 18.1103 62.377 16.0504 63.1094C13.9905 63.8419 11.7933 64.1623 9.50453 64.1623C7.85661 64.1623 5.97981 63.9792 3.78258 63.613C1.63113 63.2468 0.39519 62.8806 0.166312 62.5601C-0.154117 62.1024 -0.0167899 61.4615 0.624068 60.5002C1.26493 59.5847 1.86001 58.9896 2.54664 58.7608C2.63819 58.715 2.72974 58.715 2.86707 58.6692C3.0044 58.6692 3.14172 58.6234 3.23327 58.6234C3.5537 58.6234 3.96568 58.6692 4.46922 58.8065C4.97275 58.9439 5.84248 59.2185 7.07842 59.5847C9.22987 60.3171 10.9236 60.7749 12.1137 61.0495C13.3497 61.2784 14.4483 61.4157 15.5469 61.4157C16.8286 61.4157 17.973 61.2326 19.0258 60.9122C20.0787 60.5918 20.9942 60.0883 21.7724 59.4474C22.4132 58.9439 22.9625 58.3488 23.4661 57.7079C23.9696 57.0671 24.4731 56.2889 24.9309 55.4191C25.2971 54.7783 25.6633 53.9543 26.0295 53.0388C26.3957 52.1233 26.9908 50.5212 27.8148 48.3239C28.5014 46.4929 29.0507 45.0739 29.4169 44.0668C29.7831 43.0597 30.1951 42.0527 30.6071 41.1372C32.667 36.1934 34.8184 32.1652 37.153 29.0067C39.4875 25.8939 41.9136 23.6051 44.4771 22.2319C38.6636 21.2706 34.498 20.6755 31.9803 20.3551C29.4627 20.0346 27.5401 19.8973 26.2126 19.8973C25.4802 19.8973 24.7936 19.9431 24.1069 20.0804C23.4203 20.2177 22.7794 20.4008 22.0928 20.6755C20.3991 21.4079 18.8885 22.6896 17.5152 24.4749C16.142 26.2601 14.8145 28.7778 13.487 32.0278C12.9377 33.3553 12.4799 34.2251 12.0222 34.5913C11.6102 34.9575 10.9236 35.1406 9.96228 35.1406C9.001 35.1406 8.40591 34.8659 8.22281 34.3624C8.03971 33.8131 8.26859 32.9891 8.90944 31.8447C10.3743 29.144 12.2053 26.8552 14.3567 24.8869C16.554 22.9643 19.0258 21.4079 21.8182 20.3093C23.3745 19.6684 25.0224 19.2107 26.8077 18.8903C28.5472 18.5698 30.3324 18.3867 32.1176 18.3867C33.6282 18.3867 35.3677 18.4325 37.2445 18.5698C39.1213 18.6614 42.0509 18.936 45.9876 19.3022C50.4737 19.76 53.861 20.0346 56.1956 20.1262C58.5302 20.2635 60.6816 20.3093 62.6957 20.3093C63.4281 20.3093 64.1148 20.2635 64.8014 20.2177C65.488 20.1262 66.2662 19.9889 67.136 19.76C67.4106 19.7142 67.5479 19.7142 67.6395 19.6684C67.731 19.6684 67.7768 19.6227 67.8226 19.6227C67.9141 19.6227 67.9599 19.6227 67.9599 19.6684C67.9599 19.6684 68.0057 19.7142 68.0057 19.76C68.0057 20.0346 67.6395 20.5839 66.9071 21.4079C66.1747 22.2319 65.5796 22.7812 65.1218 23.0101C64.2979 23.4678 63.4281 23.7882 62.6042 23.9713C61.7802 24.1544 60.6816 24.2002 59.3083 24.2002C58.1639 24.2002 56.5618 24.0629 54.4103 23.7882C52.2589 23.5136 49.0546 23.0558 44.8433 22.3234C43.7446 23.1016 42.7376 24.1544 41.8678 25.4819C40.9523 26.8094 40.0368 28.7778 38.984 31.387C38.6636 32.2109 38.0685 33.7673 37.1987 36.0561C36.329 38.3449 35.5966 40.1759 35.0015 41.6407C33.3994 45.5316 31.4768 49.0563 29.2338 52.1691C27.0366 55.3276 24.6105 57.891 22.0013 59.9052Z" fill="white"/>
<path d="M46.5369 63.6132C46.2622 63.6589 46.0791 63.6589 45.9418 63.6589C45.8045 63.6589 45.6671 63.6589 45.5756 63.6589C44.7974 63.6589 44.2481 63.4758 44.065 63.0639C43.8361 62.6977 43.8819 62.1026 44.1566 61.2786C44.6143 60.5004 45.4383 59.1729 46.5369 57.2046C47.6355 55.2362 49.6496 51.6657 52.5793 46.4016C55.6004 41 57.6603 37.338 58.8047 35.3239C59.9491 33.3555 60.7273 31.9823 61.2308 31.2498C62.6041 29.0068 64.4809 26.7638 66.8612 24.6124C69.2416 22.4609 71.805 20.6299 74.5973 19.1651C77.0692 17.8376 79.5868 16.8763 82.196 16.1897C84.7595 15.5031 87.3687 15.1826 89.9321 15.1826C91.4427 15.1826 92.7702 15.2284 93.823 15.2742C94.8759 15.3199 95.6998 15.4115 96.2491 15.4573C96.478 15.503 96.6153 15.5946 96.7527 15.6862C96.8442 15.8235 96.9358 15.9608 96.9358 16.1439C96.9358 16.6932 96.6153 17.3341 96.0203 18.1123C95.4252 18.8904 94.8759 19.2566 94.4181 19.2566C93.8688 19.2566 93.228 19.2109 92.4955 19.1651C91.7631 19.1193 90.573 19.0278 88.925 18.8447C86.7278 18.6158 85.0799 18.4785 83.8897 18.3869C82.7453 18.2954 81.6467 18.2953 80.5939 18.2953C79.2206 18.2953 78.0762 18.3869 77.2065 18.57C76.3368 18.7531 75.5128 19.0735 74.6888 19.4855C73.3156 20.2179 71.8508 21.4996 70.386 23.3764C68.8754 25.2532 67.1359 27.8625 65.1218 31.2956C63.7943 33.4928 61.7344 37.1549 58.8505 42.3733C55.9667 47.5917 54.1814 50.8418 53.4948 52.0777C56.6075 48.2326 60.2238 44.6621 64.4351 41.2747C68.6007 37.8873 71.6219 36.0563 73.4987 35.7816C75.3755 36.1936 76.0621 37.5669 75.6959 39.8556C75.2839 42.1902 73.7733 45.5776 71.1184 50.0178C70.8437 50.4756 70.4775 51.1622 69.9282 52.1235C69.3789 53.0848 68.9669 53.8172 68.6923 54.2749C68.0514 55.4193 67.6394 56.3348 67.3648 57.0215C67.0901 57.7539 66.9986 58.349 67.0443 58.8525C67.0901 59.4018 67.2274 59.8596 67.5021 60.2258C67.7767 60.592 68.1429 60.8666 68.6007 61.004C69.562 60.6835 70.6606 60.0884 71.9881 59.1729C73.3156 58.3032 74.4142 57.3419 75.3755 56.3806L75.6959 56.7468C74.2769 58.1201 72.8121 59.4018 71.3472 60.592C69.8824 61.7364 68.4634 62.7434 67.0443 63.6132C66.9528 63.6589 66.8155 63.7047 66.6324 63.7047C66.4493 63.7505 66.2661 63.7505 66.0373 63.7505C65.7168 63.7505 65.3964 63.7505 65.1218 63.7047C64.8471 63.6589 64.664 63.6132 64.5725 63.5216C63.9774 63.0639 63.5196 62.423 63.1076 61.599C62.7414 60.7293 62.5126 59.9511 62.4668 59.2187C62.421 58.7152 62.5583 58.0285 62.9245 57.2046C63.245 56.3806 63.7943 55.3278 64.5267 54.0461C64.8471 53.4052 65.3506 52.5812 66.0373 51.4826C66.7239 50.384 67.1817 49.6058 67.4105 49.1939C69.2873 45.9896 70.4317 43.5635 70.981 41.8698C71.4846 40.1761 71.3472 38.9401 70.5233 38.162C68.5092 38.6197 65.5795 40.5423 61.7344 44.0212C57.8892 47.5002 54.5934 51.2538 51.8011 55.282C51.3433 55.9229 50.9313 56.6095 50.4736 57.4335C50.0158 58.2574 49.375 59.4018 48.4595 60.9124C48.0475 61.6906 47.7728 62.1941 47.5897 62.5145C47.4066 62.835 47.2235 63.1096 47.0862 63.3843C46.9946 63.3843 46.9489 63.3843 46.8573 63.3843C46.9031 63.5674 46.7658 63.6132 46.5369 63.6132Z" fill="white"/>
<path d="M91.4884 62.0111C89.9778 62.8351 88.6503 63.4302 87.5517 63.7964C86.4531 64.1626 85.4003 64.3457 84.439 64.3457C83.3404 64.3457 82.2418 63.9337 81.1432 63.064C80.0445 62.1942 79.3121 61.1872 78.9459 60.0428C78.3966 58.2118 78.3508 56.335 78.8544 54.3208C79.3121 52.3525 80.2734 50.1095 81.6925 47.6376C82.6995 45.8981 84.1643 44.1129 86.0411 42.2819C87.9179 40.4509 89.8405 38.986 91.7631 37.9332C92.9075 37.2923 94.0976 36.8346 95.242 36.4684C96.3864 36.1022 97.485 35.9648 98.5379 35.9648C100.094 35.9648 101.33 36.2395 102.154 36.7888C103.024 37.3381 103.436 38.0705 103.436 39.0318C103.436 40.3593 102.52 41.9157 100.781 43.6551C98.9956 45.3946 96.1575 47.5003 92.2208 50.0179C89.8863 51.437 88.101 52.5356 86.8193 53.3138C85.5376 54.092 84.3017 54.8244 83.1115 55.511C83.0657 55.923 83.0657 56.335 83.02 56.7012C83.02 57.1132 83.02 57.5251 83.0657 58.0287C83.4319 59.3104 83.9812 60.2717 84.7137 60.8667C85.4461 61.5076 86.4531 61.7823 87.6433 61.7823C88.3757 61.7823 89.1997 61.6449 90.1609 61.4161C91.1222 61.1872 91.992 60.8668 92.7701 60.5005C93.5941 60.0886 94.7385 59.3104 96.2033 58.166C97.6224 57.0216 98.721 55.9688 99.4992 54.9617L100.003 55.2364C98.9956 56.4723 97.7139 57.7082 96.2033 58.8984C94.6469 60.0886 93.0906 61.0956 91.4884 62.0111ZM92.7701 37.8416C91.8089 38.4825 90.6645 39.5811 89.4743 41.0459C88.2384 42.5565 87.1855 44.1587 86.2242 45.9439C85.4003 47.4545 84.7136 48.9193 84.1643 50.4299C83.615 51.9405 83.2946 53.4053 83.1115 54.8244C84.8052 53.8173 86.4073 52.856 87.8722 51.9405C89.337 51.0708 90.6645 50.201 91.8546 49.4686C94.1434 47.958 95.8371 46.7221 96.9357 45.7608C98.0343 44.7995 98.721 43.884 99.0872 43.0143C99.1787 42.8312 99.2245 42.6481 99.2703 42.4192C99.3161 42.2361 99.3161 42.0072 99.3161 41.7783C99.3161 40.634 98.8125 39.6727 97.8055 38.8029C96.7984 37.9332 95.6082 37.5212 94.235 37.5212C93.9603 37.5212 93.7314 37.5212 93.5026 37.567C93.2279 37.7043 92.999 37.7959 92.7701 37.8416Z" fill="white"/>
<path d="M160.793 58.607C160.335 58.607 159.832 58.4239 159.374 58.0119C158.916 57.6457 158.321 56.9591 157.634 55.9978L125.454 14.0674L125.363 38.42C125.363 45.1032 125.958 50.0012 127.194 53.114C128.43 56.1809 130.535 57.7373 133.556 57.7373H134.564C134.792 57.7373 134.93 57.8288 134.93 58.0577C134.93 58.2866 134.792 58.3781 134.564 58.3781C134.197 58.3781 133.465 58.3781 132.504 58.3781C131.497 58.3781 129.849 58.3324 127.56 58.2408C126.599 58.195 125.958 58.1493 125.637 58.1493C125.317 58.1493 125.042 58.1493 124.905 58.1493C124.768 58.1493 124.539 58.1493 124.264 58.1493C123.989 58.1493 123.486 58.195 122.845 58.2408C121.792 58.2866 120.968 58.3324 120.419 58.3324C119.87 58.3781 119.412 58.3781 119 58.3781C118.771 58.3781 118.634 58.2866 118.634 58.0577C118.634 57.8288 118.771 57.7373 119 57.7373H119.412C120.785 57.6915 121.838 57.0049 122.479 55.6774C123.165 54.3499 123.669 52.1527 123.989 49.1315C124.127 47.804 124.218 46.2018 124.31 44.4166C124.401 42.6314 124.401 40.6172 124.401 38.42L124.493 14.4336C124.493 14.0674 124.356 13.6097 124.127 13.1519C123.898 12.6941 123.532 12.1906 123.028 11.7329C122.067 10.8173 121.151 10.1765 120.282 9.81027C119.412 9.44407 118.496 9.2152 117.489 9.2152H117.077C116.848 9.2152 116.711 9.12364 116.711 8.94054C116.711 8.75744 116.848 8.66588 117.077 8.66588C119.046 8.66588 121.014 8.62012 122.982 8.57434C124.951 8.52857 127.011 8.43701 129.208 8.34546C129.528 8.29969 129.757 8.25391 129.849 8.25391C129.94 8.25391 130.032 8.25391 130.078 8.25391C130.261 8.25391 130.398 8.29969 130.49 8.34546C130.581 8.43701 130.673 8.52856 130.764 8.66588C131.039 9.12364 131.451 9.7645 131.954 10.4969C132.458 11.2293 133.053 12.0075 133.694 12.8315L161.388 48.5822V27.617C161.388 25.2366 161.296 23.0852 161.113 21.1626C160.93 19.24 160.656 17.5921 160.335 16.1273C159.694 13.747 158.825 12.0075 157.634 10.9089C156.444 9.81028 154.751 9.26097 152.508 9.26097H151.5C151.226 9.26097 151.089 9.16942 151.089 8.94054C151.089 8.71166 151.226 8.62012 151.5 8.62012C151.912 8.62012 152.599 8.62011 153.515 8.66588C154.43 8.71166 155.941 8.71166 158.092 8.75744C159.465 8.80322 160.427 8.849 160.884 8.849C161.342 8.849 161.663 8.849 161.8 8.849C161.937 8.849 162.12 8.849 162.395 8.849C162.624 8.849 163.036 8.80322 163.631 8.75744C164.592 8.71166 165.325 8.66588 165.828 8.66588C166.332 8.62011 166.79 8.62012 167.247 8.62012C167.522 8.62012 167.659 8.71166 167.659 8.94054C167.659 9.16942 167.522 9.26097 167.247 9.26097H166.881C165.233 9.26097 164.18 9.85605 163.631 11.0004C163.082 12.1448 162.761 14.2505 162.532 17.2259C162.487 18.4619 162.441 19.9725 162.395 21.6662C162.349 23.4056 162.304 25.374 162.304 27.617V57.8288C162.212 58.0577 162.029 58.2408 161.708 58.3781C161.571 58.5612 161.205 58.607 160.793 58.607Z" fill="white"/>
<path d="M173.564 58.3332C171.916 58.379 170.772 58.4247 170.039 58.4247C169.307 58.4247 168.758 58.4247 168.3 58.4247C168.025 58.4247 167.888 58.3332 167.888 58.1043C167.888 57.8754 168.025 57.7839 168.3 57.7839C170.223 57.7839 171.413 57.4177 171.916 56.6853C172.42 55.9529 172.649 53.893 172.649 50.5513V31.7376C172.649 29.3115 172.42 27.7551 171.916 27.16C171.458 26.5192 170.177 26.4276 168.163 26.8854C167.888 26.9769 167.705 26.9312 167.613 26.7481C167.522 26.565 167.659 26.4276 167.934 26.3361C169.582 25.9699 171.321 25.3748 173.244 24.5966C175.166 23.8184 176.906 22.9029 178.462 21.8959C178.599 21.8043 178.874 21.8043 179.195 21.9874C179.561 22.1247 179.744 22.262 179.744 22.3994V50.5971C179.744 53.9845 179.973 56.0444 180.476 56.7768C180.98 57.5092 182.124 57.8754 183.955 57.8754C184.23 57.8754 184.367 57.967 184.367 58.1959C184.367 58.4247 184.23 58.5163 183.955 58.5163C183.543 58.5163 182.948 58.5163 182.262 58.5163C181.575 58.5163 180.476 58.4705 179.011 58.4247C178.05 58.379 177.409 58.3332 177.043 58.3332C176.677 58.3332 176.448 58.3332 176.311 58.3332C176.173 58.3332 175.899 58.3332 175.532 58.3332C175.258 58.2416 174.571 58.2874 173.564 58.3332ZM180.751 11.2301C180.751 12.5119 180.293 13.6563 179.332 14.5718C178.371 15.4873 177.226 15.9908 175.899 15.9908C174.571 15.9908 173.427 15.5331 172.511 14.5718C171.596 13.6563 171.092 12.5119 171.092 11.2301C171.092 9.90265 171.55 8.75826 172.511 7.79697C173.427 6.83569 174.571 6.37793 175.899 6.37793C177.226 6.37793 178.371 6.83569 179.332 7.79697C180.247 8.75826 180.751 9.90265 180.751 11.2301Z" fill="white"/>
<path d="M212.519 74.491C210.139 76.139 207.576 77.3749 204.783 78.2446C202.037 79.1144 199.336 79.5263 196.635 79.5263C192.836 79.5721 189.906 78.7939 187.755 77.2376C185.603 75.6354 184.505 73.5297 184.505 70.829C184.505 68.6318 185.557 66.4803 187.617 64.4204C189.677 62.3605 192.424 60.6668 195.857 59.3851C192.744 59.2478 190.41 58.7442 188.808 57.8287C187.205 56.959 186.427 55.6773 186.427 54.0751C186.427 52.4272 187.297 50.9624 189.036 49.6349C190.776 48.3074 193.11 47.3004 196.04 46.6137C193.065 45.8813 190.776 44.5538 189.174 42.5397C187.572 40.5713 186.748 38.0079 186.748 34.9867C186.748 31.3704 188.212 28.3035 191.142 25.8316C194.072 23.3597 197.825 22.078 202.311 21.9865C203.959 21.9407 205.79 21.7576 207.896 21.4829C209.956 21.2083 212.794 20.659 216.41 19.8808C217.783 19.6061 218.699 19.423 219.157 19.2857C219.614 19.1942 219.981 19.1484 220.21 19.1484C220.85 19.1026 221.4 19.1942 221.858 19.3773C222.315 19.6061 222.59 19.9266 222.59 20.3385C222.59 21.1167 222.224 21.8491 221.491 22.6273C220.759 23.4055 219.935 23.7717 219.019 23.7717C218.745 23.7717 218.333 23.7259 217.783 23.6802C217.234 23.6344 216.273 23.4971 214.854 23.3139C211.97 22.9477 209.773 22.6731 208.262 22.5358C206.752 22.3984 205.47 22.3069 204.371 22.3069V22.4442C208.308 23.0393 211.329 24.3668 213.481 26.5182C215.632 28.6697 216.731 31.3247 216.731 34.5747C216.731 38.3283 215.266 41.3038 212.336 43.5925C209.407 45.8813 205.607 47.0257 200.938 47.0257C200.206 47.0257 199.565 46.9799 198.924 46.9341C198.283 46.8884 197.734 46.7968 197.184 46.7053C195.033 47.0715 193.431 47.575 192.424 48.1701C191.371 48.7652 190.867 49.4976 190.867 50.3673C190.867 51.4201 191.463 52.1526 192.698 52.6103C193.934 53.0223 196.132 53.2512 199.336 53.2512H209.727C213.572 53.2512 216.456 53.892 218.47 55.2195C220.438 56.547 221.446 58.4238 221.446 60.9415C221.446 63.2302 220.622 65.5648 219.019 67.9909C217.509 70.5086 215.312 72.6142 212.519 74.491ZM188.762 67.2585C188.762 69.593 189.906 71.3783 192.149 72.66C194.392 73.8959 197.642 74.5368 201.899 74.5368C206.752 74.5368 210.871 73.5755 214.259 71.6072C217.646 69.6846 219.34 67.35 219.34 64.6951C219.34 62.7725 218.47 61.445 216.776 60.621C215.037 59.8428 212.153 59.4309 208.033 59.4309H196.956C194.392 60.3464 192.378 61.4908 190.913 62.864C189.494 64.2373 188.762 65.7021 188.762 67.2585ZM194.163 34.2085C194.163 38.0537 194.85 41.0291 196.177 43.2263C197.505 45.4235 199.382 46.4764 201.762 46.4764C204.28 46.4764 206.202 45.4693 207.53 43.501C208.857 41.5326 209.498 38.603 209.498 34.7121C209.498 31.0958 208.811 28.1662 207.484 25.9689C206.156 23.7717 204.325 22.7189 202.037 22.7189C199.336 22.7189 197.368 23.6802 196.086 25.557C194.804 27.4338 194.163 30.3176 194.163 34.2085Z" fill="white"/>
<path d="M227.488 58.3324C225.977 58.3782 224.833 58.424 224.1 58.424C223.368 58.424 222.819 58.424 222.361 58.424C222.086 58.424 221.949 58.3324 221.949 58.1035C221.949 57.8747 222.086 57.7831 222.361 57.7831C223.872 57.7831 224.833 57.3711 225.199 56.5472C225.565 55.7232 225.748 53.4802 225.748 49.9097V9.99344C225.748 8.80327 225.703 7.84197 225.657 7.06379C225.565 6.33138 225.474 5.7363 225.245 5.32432C225.016 4.72924 224.604 4.40882 224.1 4.22571C223.551 4.08839 222.59 4.13416 221.171 4.36303C220.85 4.40881 220.667 4.31726 220.667 4.13416C220.667 3.95105 220.85 3.76795 221.171 3.72218C222.864 3.44753 224.695 2.944 226.664 2.21159C228.632 1.47918 230.326 0.792543 231.653 0.0601337C231.791 -0.0314175 232.065 -0.0314119 232.386 0.15169C232.752 0.289017 232.935 0.426341 232.935 0.563668V29.5854C234.949 26.9762 237.009 25.0078 239.161 23.7261C241.312 22.4444 243.555 21.8035 246.027 21.8035C249.872 21.8035 252.756 22.9937 254.678 25.4198C256.601 27.8459 257.608 31.4622 257.608 36.3144V53.7549C257.608 55.357 257.791 56.4098 258.203 57.0049C258.615 57.6 259.576 57.8289 261.041 57.7831C261.316 57.7831 261.453 57.8747 261.453 58.1035C261.453 58.3324 261.316 58.424 261.041 58.424C260.95 58.424 260.721 58.424 260.355 58.424C259.988 58.424 259.256 58.3782 258.112 58.3324C256.326 58.3324 255.09 58.3324 254.358 58.2867C253.626 58.2409 253.168 58.2409 252.939 58.2409C252.802 58.2409 252.573 58.2409 252.298 58.2409C252.023 58.2409 251.52 58.2866 250.788 58.3324C249.643 58.3782 248.773 58.424 248.224 58.424C247.629 58.424 247.126 58.424 246.714 58.424C246.439 58.424 246.302 58.3324 246.302 58.1035C246.302 57.8747 246.439 57.7831 246.714 57.7831C248.041 57.7831 248.911 57.6 249.323 57.2338C249.735 56.8676 250.009 56.2268 250.147 55.2655C250.238 54.7619 250.33 54.0753 250.376 53.3429C250.421 52.5647 250.467 51.5576 250.467 50.3217V35.8108C250.467 32.1946 249.78 29.4023 248.453 27.4797C247.126 25.5571 245.157 24.5958 242.639 24.5958C240.763 24.5958 239.115 25.0536 237.65 25.9233C236.185 26.7931 234.629 28.3036 233.027 30.4093V57.7373H237.33C237.604 57.7373 237.742 57.8289 237.742 58.0578C237.742 58.2867 237.604 58.3782 237.33 58.3782C237.146 58.3782 236.826 58.3782 236.414 58.3782C236.002 58.3782 235.178 58.3324 233.988 58.2867C232.798 58.2409 231.974 58.1951 231.47 58.1951C231.013 58.1951 230.646 58.1951 230.463 58.1951C230.326 58.1951 230.051 58.1951 229.731 58.1951C229.41 58.1951 228.541 58.2866 227.488 58.3324Z" fill="white"/>
<path d="M285.394 48.994C283.609 52.1983 281.64 54.6702 279.489 56.4555C277.292 58.2407 275.14 59.1104 272.897 59.1104C270.471 59.1104 268.686 58.2865 267.587 56.6843C266.489 55.0364 265.939 52.4272 265.939 48.7652V26.7929H261.179C261.133 26.7929 261.087 26.7471 261.087 26.6098C261.087 26.4725 261.133 26.4267 261.179 26.3809L272.668 15.3032C272.806 15.1659 272.897 15.1201 272.989 15.1201C273.08 15.1659 273.08 15.2574 273.08 15.4406V22.49H282.83C283.517 22.4442 284.021 22.4442 284.387 22.4442C284.753 22.49 284.936 22.49 284.936 22.5358C284.936 22.7646 284.616 23.4055 283.929 24.4126C283.242 25.4196 282.602 26.1978 281.915 26.7929H272.943V47.4834C272.943 50.0469 273.355 52.0152 274.133 53.3885C274.911 54.716 276.101 55.4026 277.612 55.4026C278.939 55.4026 280.221 54.8075 281.366 53.6631C282.556 52.5188 283.563 50.8251 284.478 48.5821C284.616 48.3074 284.845 48.2159 285.119 48.3532C285.485 48.4905 285.531 48.7194 285.394 48.994Z" fill="white"/>
<path d="M322.106 58.607H321.099C320.916 58.607 320.779 58.5613 320.687 58.5155C320.595 58.4697 320.504 58.3782 320.458 58.2866L307.229 23.5429C306.405 21.3915 305.718 19.652 305.169 18.3245C304.574 16.997 304.116 15.8526 303.75 14.8914C302.697 12.6941 301.782 11.1835 301.003 10.4511C300.225 9.67296 298.989 9.30675 297.25 9.30675H297.113C296.701 9.30675 296.472 9.21519 296.517 8.98632C296.563 8.75744 296.746 8.66588 297.021 8.66588C297.433 8.66588 298.028 8.66588 298.715 8.71166C299.401 8.75744 300.5 8.75744 302.056 8.80322C302.972 8.84899 303.613 8.89476 303.979 8.89476C304.345 8.89476 304.574 8.89476 304.711 8.89476C304.849 8.89476 305.169 8.89476 305.627 8.89476C306.085 8.89476 307.046 8.84899 308.419 8.80322C310.571 8.75744 312.081 8.71166 312.997 8.71166C313.912 8.66588 314.553 8.66588 315.011 8.66588C315.285 8.66588 315.469 8.75744 315.469 8.98632C315.514 9.21519 315.377 9.30675 315.057 9.30675H313.546C312.585 9.30675 311.852 9.48984 311.395 9.81027C310.937 10.1307 310.662 10.6342 310.616 11.3209C310.616 12.1448 311.028 13.747 311.852 16.1731C312.676 18.5992 314.05 22.307 315.926 27.2508L324.761 49.9554C324.807 50.047 324.853 50.1385 324.944 50.1843C325.036 50.2759 325.081 50.2759 325.127 50.2759C325.173 50.2759 325.219 50.2759 325.219 50.2301C325.265 50.1843 325.31 50.0928 325.402 49.9097L332.818 33.6136L327.096 19.8809C326.363 18.1414 325.814 16.8139 325.356 15.8069C324.898 14.7998 324.486 13.9301 324.166 13.2434C323.342 11.7328 322.61 10.68 321.923 10.1307C321.236 9.5814 320.183 9.30675 318.764 9.30675H318.352C318.032 9.30675 317.849 9.21519 317.895 8.98632C317.94 8.75744 318.078 8.66588 318.352 8.66588C318.764 8.66588 319.36 8.66588 320.046 8.71166C320.733 8.75744 321.877 8.75744 323.479 8.80322C324.486 8.84899 325.173 8.89476 325.539 8.89476C325.905 8.89476 326.134 8.89476 326.272 8.89476C326.409 8.89476 326.684 8.89476 327.05 8.89476C327.416 8.89476 328.148 8.84899 329.11 8.80322C330.758 8.75744 331.902 8.71166 332.634 8.71166C333.367 8.66588 333.916 8.66588 334.374 8.66588C334.649 8.66588 334.786 8.75744 334.786 8.98632C334.786 9.21519 334.649 9.30675 334.374 9.30675H333.962C333.138 9.30675 332.543 9.44407 332.222 9.71873C331.856 9.99338 331.673 10.4511 331.673 11.092C331.673 11.9617 331.856 13.0603 332.268 14.3878C332.634 15.7153 333.275 17.4548 334.145 19.6063L337.212 26.9303L339.592 21.2542C340.279 19.7436 340.782 18.1414 341.194 16.5393C341.561 14.9371 341.79 13.6096 341.79 12.5568C341.79 11.4582 341.561 10.6342 341.149 10.0391C340.737 9.44407 340.096 9.16942 339.363 9.16942C339.272 9.16942 339.135 9.16942 338.951 9.21519C338.768 9.26097 338.539 9.26098 338.219 9.30675C338.036 9.35253 337.899 9.39829 337.807 9.39829C337.716 9.39829 337.67 9.39829 337.624 9.39829C337.487 9.39829 337.395 9.35253 337.304 9.30675C337.212 9.26098 337.212 9.16942 337.212 9.03209C337.212 8.89477 337.258 8.80321 337.395 8.71166C337.532 8.62011 337.716 8.62012 337.99 8.62012C338.219 8.62012 338.585 8.62012 339.043 8.62012C339.501 8.62012 340.279 8.66588 341.469 8.71166C342.568 8.75744 343.346 8.80322 343.712 8.80322C344.124 8.80322 344.399 8.80322 344.628 8.80322C344.765 8.80322 344.994 8.80322 345.36 8.80322C345.68 8.80322 346.321 8.75744 347.283 8.71166C348.702 8.66588 349.754 8.62012 350.395 8.62012C351.036 8.62012 351.54 8.62012 351.86 8.62012C352.135 8.62012 352.272 8.71166 352.272 8.94054C352.226 9.16942 352.135 9.26097 351.86 9.26097H350.441C348.747 9.26097 347.145 10.268 345.543 12.2364C343.941 14.2047 342.247 17.3175 340.462 21.5288L337.807 27.9374L347.054 50.3216C347.099 50.4132 347.145 50.5047 347.237 50.5505C347.328 50.5963 347.374 50.6421 347.42 50.6421C347.466 50.6421 347.511 50.5963 347.557 50.5505C347.603 50.5047 347.649 50.4132 347.695 50.3216L358.04 23.4056C358.818 21.2999 359.413 19.3316 359.825 17.5464C360.237 15.7611 360.466 14.2047 360.466 12.923C360.466 11.7329 360.146 10.8173 359.55 10.1765C358.91 9.53563 358.04 9.21519 356.804 9.21519C356.712 9.21519 356.575 9.2152 356.392 9.26097C356.209 9.30675 355.934 9.35252 355.522 9.44407C355.293 9.44407 355.11 9.44407 355.019 9.48985C354.927 9.53563 354.836 9.53563 354.79 9.53563C354.652 9.53563 354.515 9.48985 354.424 9.44407C354.332 9.35252 354.286 9.26096 354.286 9.12364C354.286 8.98631 354.378 8.89477 354.515 8.80322C354.652 8.71167 354.881 8.71166 355.156 8.71166C355.385 8.71166 355.797 8.71166 356.346 8.71166C356.895 8.71166 357.903 8.75744 359.322 8.80322C360.695 8.84899 361.656 8.89476 362.205 8.89476C362.709 8.89476 363.075 8.89476 363.304 8.89476C363.441 8.89476 363.67 8.89476 363.945 8.89476C364.22 8.89476 364.723 8.84899 365.456 8.80322C366.6 8.75744 367.47 8.71166 368.019 8.71166C368.568 8.71166 369.026 8.71166 369.438 8.71166C369.713 8.71166 369.85 8.80322 369.85 9.03209C369.804 9.26097 369.713 9.35252 369.438 9.35252H369.209C367.515 9.35252 365.913 10.4511 364.357 12.6484C362.801 14.8456 361.015 18.5992 359.001 23.8634L345.36 58.4239C345.314 58.5155 345.268 58.607 345.177 58.6528C345.085 58.6986 344.994 58.7444 344.765 58.7444H343.758C343.529 58.7444 343.346 58.7444 343.3 58.6986C343.209 58.6528 343.163 58.607 343.117 58.4697L333.275 34.758L322.564 58.3781C322.518 58.4697 322.472 58.5612 322.381 58.607C322.335 58.607 322.243 58.607 322.106 58.607Z" fill="white"/>
<path d="M384.681 48.4442C383.399 51.0992 381.385 53.5253 378.593 55.8141C375.846 58.1029 373.191 59.2015 370.582 59.2015C367.927 59.2015 365.776 58.4233 364.036 56.9127C362.297 55.4021 361.473 53.4796 361.473 51.1908C361.473 48.49 362.892 46.0181 365.776 43.7293C368.659 41.4406 373.237 39.0602 379.554 36.6341L385.139 34.4827C385.047 30.0882 384.452 26.9755 383.399 25.1445C382.346 23.3134 380.607 22.3979 378.135 22.3979C377.174 22.3979 376.304 22.581 375.572 22.9015C374.793 23.2219 374.152 23.7254 373.557 24.3205C373.1 24.7783 372.642 25.3733 372.23 26.06C371.818 26.7466 371.314 27.7995 370.674 29.2185C370.445 29.8594 370.262 30.2713 370.078 30.546C369.941 30.8206 369.804 31.0495 369.712 31.2326C369.392 31.9193 368.888 32.377 368.293 32.6517C367.652 32.9263 366.828 33.0636 365.73 33.0636C364.631 33.0636 363.761 32.8805 363.166 32.4686C362.525 32.0566 362.251 31.5073 362.251 30.8664C362.251 30.1798 362.48 29.4932 362.983 28.7607C363.487 28.0283 364.173 27.3417 365.089 26.7924C367.103 25.4191 369.438 24.229 372.138 23.2677C374.839 22.3064 377.265 21.8486 379.371 21.8486C383.582 21.8486 386.787 22.9472 388.938 25.0987C391.135 27.2959 392.188 30.5002 392.188 34.8489C392.188 35.7186 392.188 36.7715 392.142 38.0074C392.097 39.2433 392.051 41.2117 391.959 43.8209C391.868 45.9266 391.822 47.3914 391.776 48.2154C391.73 49.0393 391.73 49.726 391.73 50.2753C391.73 52.3352 391.868 53.8 392.142 54.6697C392.417 55.5394 392.92 55.9514 393.561 55.9514C394.156 55.9514 394.797 55.5394 395.53 54.6697C396.262 53.8 396.903 52.8387 397.361 51.7401C397.544 51.4654 397.773 51.3739 398.093 51.557C398.368 51.7401 398.414 51.969 398.23 52.2894C397.178 53.9373 395.713 55.4937 393.836 56.9585C391.959 58.4233 390.265 59.2015 388.846 59.2015C387.336 59.2015 386.191 58.7437 385.459 57.8282C384.727 56.9127 384.36 55.4937 384.36 53.5711C384.36 52.6556 384.406 51.7401 384.452 50.7788C384.589 49.7717 384.635 48.9935 384.681 48.4442ZM368.339 48.49C368.339 50.3668 368.98 51.9232 370.307 53.2049C371.635 54.4866 373.283 55.1275 375.297 55.1732C377.174 55.1732 379.05 54.2577 380.973 52.4725C382.896 50.6872 384.177 48.8562 384.772 46.9794C384.91 43.9582 385.001 41.5321 385.093 39.6553C385.184 37.7785 385.184 36.5426 385.184 35.856V34.9404L379.737 37.3208C375.343 39.1976 372.321 40.8913 370.719 42.4934C369.117 44.0498 368.339 46.0639 368.339 48.49Z" fill="white"/>
<path d="M420.294 48.994C418.509 52.1983 416.541 54.6702 414.389 56.4555C412.192 58.2407 410.041 59.1104 407.798 59.1104C405.372 59.1104 403.586 58.2865 402.488 56.6843C401.389 55.0364 400.84 52.4272 400.84 48.7652V26.7929H396.079C396.033 26.7929 395.988 26.7471 395.988 26.6098C395.988 26.4725 396.033 26.4267 396.079 26.3809L407.569 15.3032C407.706 15.1659 407.798 15.1201 407.889 15.1201C407.981 15.1659 407.981 15.2574 407.981 15.4406V22.49H417.731C418.418 22.4442 418.921 22.4442 419.287 22.4442C419.654 22.49 419.837 22.49 419.837 22.5358C419.837 22.7646 419.516 23.4055 418.83 24.4126C418.143 25.4196 417.502 26.1978 416.815 26.7929H407.843V47.4834C407.843 50.0469 408.255 52.0152 409.034 53.3885C409.812 54.716 411.002 55.4026 412.513 55.4026C413.84 55.4026 415.122 54.8075 416.266 53.6631C417.456 52.5188 418.463 50.8251 419.379 48.5821C419.516 48.3074 419.745 48.2159 420.02 48.3532C420.386 48.4905 420.477 48.7194 420.294 48.994Z" fill="white"/>
<path d="M456.274 44.9204C454.031 49.2691 451.147 52.748 447.623 55.3114C444.098 57.8749 440.39 59.1566 436.545 59.1566C431.372 59.1566 427.161 57.5544 423.957 54.3501C420.707 51.1459 419.104 46.9803 419.104 41.8534C419.104 36.5892 421.21 31.9201 425.376 27.8919C429.541 23.8636 434.485 21.8037 440.115 21.8037C443.64 21.8037 446.616 22.3988 448.996 23.6347C451.376 24.8707 452.566 26.3355 452.566 28.0292C452.566 29.082 452.154 29.9975 451.33 30.7757C450.506 31.5539 449.499 31.9201 448.263 31.9201C447.439 31.9201 446.707 31.6912 446.02 31.1877C445.334 30.7299 444.51 29.6771 443.503 28.1207C442.267 26.1066 441.122 24.7791 440.115 24.1383C439.108 23.4974 437.918 23.177 436.591 23.177C433.295 23.177 430.64 24.5045 428.58 27.1595C426.566 29.8144 425.513 33.3391 425.513 37.7336C425.513 42.4027 426.978 46.2479 429.953 49.2691C432.929 52.2445 436.774 53.7551 441.534 53.7551C444.693 53.7551 447.439 53.0226 449.774 51.5121C452.109 50.0472 454.077 47.7585 455.771 44.6915C455.816 44.5542 455.862 44.4626 455.954 44.4168C456.045 44.3711 456.091 44.3711 456.183 44.4168C456.274 44.4626 456.32 44.5542 456.32 44.6457C456.366 44.7373 456.32 44.8288 456.274 44.9204Z" fill="white"/>
<path d="M461.035 58.3324C459.524 58.3782 458.38 58.424 457.647 58.424C456.915 58.424 456.365 58.424 455.908 58.424C455.633 58.424 455.496 58.3324 455.496 58.1035C455.496 57.8747 455.633 57.7831 455.908 57.7831C457.418 57.7831 458.38 57.3711 458.746 56.5472C459.112 55.7232 459.295 53.4802 459.295 49.9097V9.99344C459.295 8.80327 459.249 7.84197 459.204 7.06379C459.112 6.33138 459.02 5.7363 458.792 5.32432C458.563 4.72924 458.151 4.40882 457.647 4.22571C457.098 4.08839 456.137 4.13416 454.718 4.36303C454.397 4.40881 454.214 4.31726 454.214 4.13416C454.214 3.95105 454.397 3.76795 454.718 3.72218C456.411 3.44753 458.242 2.944 460.211 2.21159C462.179 1.47918 463.873 0.792543 465.2 0.0601337C465.337 -0.0314175 465.612 -0.0314119 465.933 0.15169C466.299 0.289017 466.482 0.426341 466.482 0.563668V29.5854C468.496 26.9762 470.556 25.0078 472.707 23.7261C474.859 22.4444 477.102 21.8035 479.574 21.8035C483.419 21.8035 486.303 22.9937 488.225 25.4198C490.148 27.8459 491.155 31.4622 491.155 36.3144V53.7549C491.155 55.357 491.338 56.4098 491.75 57.0049C492.162 57.6 493.123 57.8289 494.588 57.7831C494.863 57.7831 495 57.8747 495 58.1035C495 58.3324 494.863 58.424 494.588 58.424C494.496 58.424 494.268 58.424 493.901 58.424C493.535 58.424 492.803 58.3782 491.658 58.3324C489.873 58.3324 488.637 58.3324 487.905 58.2867C487.172 58.2409 486.715 58.2409 486.486 58.2409C486.348 58.2409 486.12 58.2409 485.845 58.2409C485.57 58.2409 485.067 58.2866 484.334 58.3324C483.19 58.3782 482.32 58.424 481.771 58.424C481.176 58.424 480.672 58.424 480.26 58.424C479.986 58.424 479.848 58.3324 479.848 58.1035C479.848 57.8747 479.986 57.7831 480.26 57.7831C481.588 57.7831 482.458 57.6 482.87 57.2338C483.281 56.8676 483.556 56.2268 483.693 55.2655C483.785 54.7619 483.877 54.0753 483.922 53.3429C483.968 52.5647 484.014 51.5576 484.014 50.3217V35.8108C484.014 32.1946 483.327 29.4023 482 27.4797C480.672 25.5571 478.704 24.5958 476.186 24.5958C474.309 24.5958 472.662 25.0536 471.197 25.9233C469.732 26.7931 468.176 28.3036 466.573 30.4093V57.7373H470.876C471.151 57.7373 471.288 57.8289 471.288 58.0578C471.288 58.2867 471.151 58.3782 470.876 58.3782C470.693 58.3782 470.373 58.3782 469.961 58.3782C469.549 58.3782 468.725 58.3324 467.535 58.2867C466.345 58.2409 465.521 58.1951 465.017 58.1951C464.559 58.1951 464.193 58.1951 464.01 58.1951C463.873 58.1951 463.598 58.1951 463.278 58.1951C462.774 58.2409 462.087 58.2866 461.035 58.3324Z" fill="white"/>
</svg>
