<svg width="383" height="62" viewBox="0 0 383 62" fill="none" xmlns="http://www.w3.org/2000/svg">
<path d="M17.0232 46.3509C15.571 47.4489 14.0126 48.2635 12.4188 48.8302C10.825 49.3969 9.12492 49.6448 7.35401 49.6448C6.07895 49.6448 4.6268 49.5031 2.92672 49.2198C1.26207 48.9364 0.305773 48.6531 0.128682 48.4052C-0.119246 48.051 -0.012991 47.5551 0.482865 46.8114C0.97872 46.103 1.43916 45.6426 1.97043 45.4655C2.04127 45.43 2.1121 45.43 2.21836 45.3946C2.32461 45.3946 2.43087 45.3592 2.5017 45.3592C2.74963 45.3592 3.0684 45.3946 3.458 45.5009C3.8476 45.6071 4.52055 45.8196 5.47684 46.103C7.1415 46.6697 8.45197 47.0239 9.37285 47.2364C10.3291 47.4135 11.1792 47.5197 12.0292 47.5197C13.0209 47.5197 13.9064 47.378 14.721 47.1301C15.5356 46.8822 16.244 46.4926 16.8461 45.9967C17.342 45.6071 17.767 45.1467 18.1566 44.6508C18.5462 44.155 18.9358 43.5529 19.29 42.8799C19.5733 42.3841 19.8566 41.7465 20.14 41.0382C20.4233 40.3298 20.8838 39.0902 21.5213 37.3901C22.0526 35.9734 22.4776 34.8754 22.7609 34.0962C23.0443 33.317 23.3631 32.5378 23.6818 31.8294C25.2756 28.0043 26.9403 24.8875 28.7466 22.4436C30.553 20.0352 32.4301 18.2642 34.4135 17.2017C29.9154 16.4579 26.6924 15.9975 24.7444 15.7495C22.7964 15.5016 21.3088 15.3954 20.2817 15.3954C19.715 15.3954 19.1837 15.4308 18.6524 15.537C18.1212 15.6433 17.6253 15.785 17.094 15.9975C15.7835 16.5642 14.6147 17.5559 13.5522 18.9372C12.4897 20.3185 11.4625 22.2665 10.4354 24.7812C10.0104 25.8083 9.65619 26.4813 9.30201 26.7646C8.98324 27.048 8.45197 27.1896 7.70819 27.1896C6.9644 27.1896 6.50397 26.9771 6.36229 26.5875C6.22062 26.1625 6.39771 25.525 6.89357 24.6395C8.02695 22.5498 9.44368 20.7789 11.1083 19.256C12.8084 17.7684 14.721 16.5642 16.8815 15.7141C18.0857 15.2183 19.3608 14.8641 20.7421 14.6162C22.088 14.3682 23.4693 14.2266 24.8506 14.2266C26.0194 14.2266 27.3653 14.262 28.8175 14.3682C30.2696 14.4391 32.5364 14.6516 35.5824 14.9349C39.0533 15.2891 41.6743 15.5016 43.4806 15.5725C45.287 15.6787 46.9516 15.7141 48.51 15.7141C49.0767 15.7141 49.608 15.6787 50.1393 15.6433C50.6705 15.5725 51.2726 15.4662 51.9456 15.2891C52.1581 15.2537 52.2643 15.2537 52.3352 15.2183C52.406 15.2183 52.4414 15.1829 52.4769 15.1829C52.5477 15.1829 52.5831 15.1829 52.5831 15.2183C52.5831 15.2183 52.6185 15.2537 52.6185 15.2891C52.6185 15.5016 52.3352 15.9266 51.7685 16.5642C51.2018 17.2017 50.7414 17.6267 50.3872 17.8038C49.7497 18.158 49.0767 18.4059 48.4392 18.5476C47.8016 18.6893 46.9516 18.7247 45.8891 18.7247C45.0036 18.7247 43.764 18.6184 42.0993 18.4059C40.4347 18.1934 37.9554 17.8392 34.6969 17.2725C33.8469 17.8746 33.0677 18.6893 32.3947 19.7164C31.6863 20.7435 30.978 22.2665 30.1634 24.2853C29.9154 24.9229 29.455 26.1271 28.782 27.898C28.1091 29.6689 27.5424 31.0856 27.082 32.219C25.8423 35.2296 24.3548 37.9568 22.6193 40.3652C20.9192 42.8091 19.042 44.7925 17.0232 46.3509Z" fill="white"/>
<path d="M36.0074 49.2196C35.7949 49.255 35.6532 49.255 35.547 49.255C35.4407 49.255 35.3345 49.255 35.2636 49.255C34.6615 49.255 34.2365 49.1133 34.0948 48.7946C33.9177 48.5112 33.9532 48.0508 34.1657 47.4133C34.5199 46.8111 35.1574 45.784 36.0074 44.261C36.8575 42.738 38.4159 39.9754 40.6826 35.9023C43.0202 31.723 44.6141 28.8895 45.4995 27.3311C46.385 25.8081 46.9871 24.7456 47.3767 24.1789C48.4392 22.4434 49.8914 20.7079 51.7331 19.0432C53.5749 17.3786 55.5583 15.9618 57.7188 14.8285C59.6314 13.8013 61.5794 13.0575 63.5982 12.5263C65.5817 11.995 67.6005 11.7471 69.5839 11.7471C70.7527 11.7471 71.7799 11.7825 72.5945 11.8179C73.4091 11.8533 74.0466 11.9242 74.4716 11.9596C74.6487 11.995 74.755 12.0658 74.8612 12.1367C74.9321 12.2429 75.0029 12.3492 75.0029 12.4909C75.0029 12.9159 74.755 13.4117 74.2945 14.0138C73.8341 14.6159 73.4091 14.8993 73.0549 14.8993C72.6299 14.8993 72.134 14.8639 71.5673 14.8285C71.0007 14.793 70.0798 14.7222 68.8047 14.5805C67.1046 14.4034 65.8296 14.2972 64.9087 14.2263C64.0233 14.1555 63.1732 14.1555 62.3586 14.1555C61.2961 14.1555 60.4106 14.2263 59.7376 14.368C59.0647 14.5097 58.4272 14.7576 57.7896 15.0764C56.7271 15.6431 55.5937 16.6348 54.4603 18.0869C53.2915 19.5391 51.9456 21.5579 50.3872 24.2143C49.3601 25.9144 47.7663 28.7478 45.5349 32.7855C43.3036 36.8232 41.9223 39.3379 41.391 40.2942C43.7994 37.319 46.5975 34.5564 49.856 31.9355C53.079 29.3145 55.4166 27.8978 56.8688 27.6853C58.3209 28.004 58.8522 29.0666 58.5688 30.8375C58.2501 32.6438 57.0813 35.2648 55.027 38.7004C54.8145 39.0545 54.5312 39.5858 54.1061 40.3296C53.6811 41.0734 53.3624 41.6401 53.1499 41.9943C52.654 42.8797 52.3352 43.5881 52.1227 44.1194C51.9102 44.686 51.8394 45.1465 51.8748 45.5361C51.9102 45.9611 52.0165 46.3153 52.229 46.5986C52.4415 46.882 52.7248 47.0945 53.079 47.2007C53.8228 46.9528 54.6728 46.4924 55.7 45.784C56.7271 45.1111 57.5771 44.3673 58.3209 43.6235L58.5688 43.9068C57.4709 44.9694 56.3375 45.9611 55.2041 46.882C54.0707 47.7674 52.9728 48.5466 51.8748 49.2196C51.804 49.255 51.6977 49.2904 51.556 49.2904C51.4144 49.3258 51.2727 49.3258 51.0956 49.3258C50.8477 49.3258 50.5997 49.3258 50.3872 49.2904C50.1747 49.255 50.033 49.2196 49.9622 49.1487C49.5018 48.7946 49.1476 48.2987 48.8288 47.6612C48.5455 46.9882 48.3684 46.3861 48.333 45.8194C48.2976 45.4298 48.4038 44.8985 48.6872 44.261C48.9351 43.6235 49.3601 42.8089 49.9268 41.8172C50.1747 41.3213 50.5643 40.6838 51.0956 39.8337C51.6269 38.9837 51.9811 38.3816 52.1581 38.0628C53.6103 35.5835 54.4957 33.7064 54.9208 32.3959C55.3104 31.0854 55.2041 30.1291 54.5666 29.527C53.0082 29.8812 50.7414 31.3688 47.7663 34.0606C44.7911 36.7524 42.241 39.6567 40.0805 42.7735C39.7263 43.2693 39.4076 43.8006 39.0534 44.4381C38.6992 45.0756 38.2034 45.9611 37.495 47.1299C37.1762 47.732 36.9637 48.1216 36.822 48.3695C36.6804 48.6175 36.5387 48.83 36.4324 49.0425C36.3616 49.0425 36.3262 49.0425 36.2553 49.0425C36.2908 49.1842 36.1845 49.2196 36.0074 49.2196Z" fill="white"/>
<path d="M70.788 47.9801C69.6192 48.6177 68.5921 49.0781 67.742 49.3615C66.892 49.6448 66.0774 49.7865 65.3336 49.7865C64.4836 49.7865 63.6335 49.4677 62.7835 48.7948C61.9334 48.1218 61.3668 47.3426 61.0834 46.4572C60.6584 45.0404 60.623 43.5883 61.0126 42.0299C61.3668 40.5069 62.1105 38.7714 63.2085 36.8588C63.9877 35.5129 65.1211 34.1316 66.5732 32.7149C68.0254 31.2981 69.513 30.1648 71.0005 29.3501C71.886 28.8543 72.8069 28.5001 73.6923 28.2168C74.5778 27.9334 75.4278 27.8271 76.2424 27.8271C77.4466 27.8271 78.4029 28.0397 79.0405 28.4647C79.7134 28.8897 80.0322 29.4564 80.0322 30.2002C80.0322 31.2273 79.3238 32.4315 77.9779 33.7774C76.5966 35.1233 74.4007 36.7526 71.3547 38.7006C69.5484 39.7985 68.1671 40.6486 67.1753 41.2507C66.1836 41.8528 65.2273 42.4195 64.3065 42.9507C64.2711 43.2695 64.271 43.5883 64.2356 43.8716C64.2356 44.1904 64.2356 44.5091 64.2711 44.8988C64.5544 45.8905 64.9794 46.6342 65.5461 47.0947C66.1128 47.5905 66.892 47.803 67.8129 47.803C68.3796 47.803 69.0171 47.6968 69.7609 47.5197C70.5047 47.3426 71.1776 47.0947 71.7797 46.8113C72.4172 46.4926 73.3027 45.8905 74.4361 45.005C75.5341 44.1195 76.3841 43.3049 76.9862 42.5257L77.3758 42.7382C76.5966 43.6945 75.6049 44.6508 74.4361 45.5717C73.2319 46.4926 72.0276 47.2718 70.788 47.9801ZM71.7797 29.2793C71.0359 29.7752 70.1505 30.6252 69.2296 31.7586C68.2733 32.9274 67.4587 34.167 66.7149 35.5483C66.0774 36.7171 65.5461 37.8505 65.1211 39.0193C64.6961 40.1881 64.4481 41.3215 64.3065 42.4195C65.6169 41.6403 66.8566 40.8965 67.99 40.1881C69.1234 39.5152 70.1505 38.8422 71.0714 38.2755C72.8423 37.1067 74.1527 36.1504 75.0028 35.4067C75.8528 34.6629 76.3841 33.9545 76.6674 33.2816C76.7383 33.1399 76.7737 32.9982 76.8091 32.8211C76.8445 32.6795 76.8445 32.5024 76.8445 32.3253C76.8445 31.4398 76.4549 30.696 75.6757 30.0231C74.8965 29.3501 73.9757 29.0314 72.9131 29.0314C72.7006 29.0314 72.5235 29.0314 72.3464 29.0668C72.1339 29.173 71.9568 29.2439 71.7797 29.2793Z" fill="white"/>
<path d="M124.411 45.3468C124.057 45.3468 123.668 45.2051 123.314 44.8864C122.959 44.603 122.499 44.0717 121.968 43.328L97.0686 10.8848L96.9978 29.7273C96.9978 34.8984 97.4582 38.6882 98.4145 41.0966C99.3708 43.4696 101 44.6739 103.338 44.6739H104.117C104.294 44.6739 104.4 44.7447 104.4 44.9218C104.4 45.0989 104.294 45.1697 104.117 45.1697C103.833 45.1697 103.267 45.1697 102.523 45.1697C101.744 45.1697 100.469 45.1343 98.6978 45.0635C97.9541 45.028 97.4582 44.9926 97.2103 44.9926C96.9623 44.9926 96.7498 44.9926 96.6436 44.9926C96.5373 44.9926 96.3602 44.9926 96.1477 44.9926C95.9352 44.9926 95.5456 45.028 95.0498 45.0635C94.2351 45.0989 93.5976 45.1343 93.1726 45.1343C92.7476 45.1697 92.3934 45.1697 92.0746 45.1697C91.8975 45.1697 91.7913 45.0989 91.7913 44.9218C91.7913 44.7447 91.8975 44.6739 92.0746 44.6739H92.3934C93.4559 44.6384 94.2706 44.1072 94.7664 43.08C95.2977 42.0529 95.6873 40.3528 95.9352 38.0152C96.0415 36.9881 96.1123 35.7484 96.1831 34.3671C96.254 32.9858 96.254 31.4274 96.254 29.7273L96.3248 11.1682C96.3248 10.8848 96.2186 10.5307 96.0415 10.1765C95.8644 9.82229 95.581 9.43269 95.1914 9.07851C94.4476 8.37014 93.7393 7.87428 93.0663 7.59094C92.3934 7.30759 91.685 7.1305 90.9058 7.1305H90.5871C90.41 7.1305 90.3037 7.05967 90.3037 6.91799C90.3037 6.77632 90.41 6.70548 90.5871 6.70548C92.11 6.70548 93.633 6.67007 95.156 6.63465C96.679 6.59923 98.2728 6.5284 99.9729 6.45756C100.221 6.42214 100.398 6.38672 100.469 6.38672C100.54 6.38672 100.61 6.38672 100.646 6.38672C100.788 6.38672 100.894 6.42214 100.965 6.45756C101.035 6.5284 101.106 6.59923 101.177 6.70548C101.39 7.05966 101.708 7.55552 102.098 8.12221C102.488 8.6889 102.948 9.29102 103.444 9.92854L124.872 37.5902V21.3686C124.872 19.5269 124.801 17.8622 124.659 16.3747C124.518 14.8871 124.305 13.612 124.057 12.4787C123.561 10.6369 122.889 9.29102 121.968 8.44098C121.047 7.59095 119.736 7.16592 118.001 7.16592H117.222C117.009 7.16592 116.903 7.09508 116.903 6.91799C116.903 6.7409 117.009 6.67007 117.222 6.67007C117.54 6.67007 118.072 6.67006 118.78 6.70548C119.488 6.7409 120.657 6.7409 122.322 6.77632C123.384 6.81174 124.128 6.84716 124.482 6.84716C124.837 6.84716 125.084 6.84716 125.191 6.84716C125.297 6.84716 125.439 6.84716 125.651 6.84716C125.828 6.84716 126.147 6.81174 126.607 6.77632C127.351 6.7409 127.918 6.70548 128.307 6.70548C128.697 6.67006 129.051 6.67007 129.405 6.67007C129.618 6.67007 129.724 6.7409 129.724 6.91799C129.724 7.09508 129.618 7.16592 129.405 7.16592H129.122C127.847 7.16592 127.032 7.62636 126.607 8.51181C126.182 9.39727 125.934 11.0265 125.757 13.3287C125.722 14.285 125.687 15.4538 125.651 16.7643C125.616 18.1102 125.58 19.6332 125.58 21.3686V44.7447C125.509 44.9218 125.368 45.0634 125.12 45.1697C125.014 45.3114 124.73 45.3468 124.411 45.3468Z" fill="white"/>
<path d="M134.293 45.1343C133.018 45.1697 132.133 45.2051 131.566 45.2051C130.999 45.2051 130.574 45.2051 130.22 45.2051C130.008 45.2051 129.901 45.1343 129.901 44.9572C129.901 44.7801 130.008 44.7093 130.22 44.7093C131.708 44.7093 132.629 44.4259 133.018 43.8592C133.408 43.2925 133.585 41.6987 133.585 39.1132V24.5563C133.585 22.6791 133.408 21.4749 133.018 21.0145C132.664 20.5186 131.672 20.4478 130.114 20.802C129.901 20.8728 129.76 20.8374 129.689 20.6957C129.618 20.554 129.724 20.4478 129.937 20.3769C131.212 20.0936 132.558 19.6332 134.045 19.031C135.533 18.4289 136.879 17.7206 138.083 16.9414C138.189 16.8705 138.402 16.8705 138.65 17.0122C138.933 17.1185 139.075 17.2247 139.075 17.331V39.1486C139.075 41.7696 139.252 43.3634 139.641 43.9301C140.031 44.4968 140.916 44.7801 142.333 44.7801C142.546 44.7801 142.652 44.8509 142.652 45.028C142.652 45.2051 142.546 45.276 142.333 45.276C142.014 45.276 141.554 45.276 141.023 45.276C140.491 45.276 139.641 45.2405 138.508 45.2051C137.764 45.1697 137.268 45.1343 136.985 45.1343C136.702 45.1343 136.525 45.1343 136.418 45.1343C136.312 45.1343 136.1 45.1343 135.816 45.1343C135.604 45.0634 135.072 45.0989 134.293 45.1343ZM139.854 8.68891C139.854 9.68062 139.5 10.5661 138.756 11.2744C138.012 11.9828 137.127 12.3724 136.1 12.3724C135.072 12.3724 134.187 12.0182 133.479 11.2744C132.77 10.5661 132.381 9.68062 132.381 8.68891C132.381 7.66178 132.735 6.77632 133.479 6.03254C134.187 5.28876 135.072 4.93457 136.1 4.93457C137.127 4.93457 138.012 5.28876 138.756 6.03254C139.464 6.77632 139.854 7.66178 139.854 8.68891Z" fill="white"/>
<path d="M164.434 57.6363C162.593 58.9114 160.609 59.8677 158.449 60.5406C156.323 61.2136 154.234 61.5323 152.144 61.5323C149.204 61.5678 146.938 60.9656 145.273 59.7614C143.608 58.5218 142.758 56.8925 142.758 54.8029C142.758 53.1028 143.573 51.4381 145.167 49.8443C146.761 48.2505 148.886 46.94 151.542 45.9483C149.134 45.8421 147.327 45.4525 146.088 44.7441C144.848 44.0711 144.246 43.0794 144.246 41.8398C144.246 40.5647 144.919 39.4313 146.265 38.4042C147.611 37.3771 149.417 36.5979 151.684 36.0666C149.382 35.4999 147.611 34.4728 146.371 32.9144C145.131 31.3914 144.494 29.408 144.494 27.0704C144.494 24.2723 145.627 21.8993 147.894 19.9867C150.161 18.0741 153.065 17.0824 156.536 17.0116C157.811 16.9762 159.228 16.8345 160.857 16.622C162.451 16.4095 164.647 15.9845 167.445 15.3823C168.507 15.1698 169.216 15.0282 169.57 14.9219C169.924 14.8511 170.207 14.8157 170.385 14.8157C170.88 14.7802 171.305 14.8511 171.66 14.9928C172.014 15.1698 172.226 15.4178 172.226 15.7365C172.226 16.3386 171.943 16.9053 171.376 17.5074C170.81 18.1096 170.172 18.3929 169.464 18.3929C169.251 18.3929 168.932 18.3575 168.507 18.3221C168.082 18.2867 167.339 18.1804 166.241 18.0387C164.009 17.7554 162.309 17.5429 161.14 17.4366C159.972 17.3304 158.98 17.2595 158.13 17.2595V17.3658C161.176 17.8262 163.513 18.8533 165.178 20.518C166.843 22.1827 167.693 24.2369 167.693 26.7516C167.693 29.6559 166.559 31.9581 164.293 33.729C162.026 35.4999 159.086 36.3854 155.473 36.3854C154.907 36.3854 154.411 36.35 153.915 36.3145C153.419 36.2791 152.994 36.2083 152.569 36.1374C150.904 36.4208 149.665 36.8104 148.886 37.2708C148.071 37.7313 147.681 38.298 147.681 38.9709C147.681 39.7855 148.142 40.3522 149.098 40.7064C150.054 41.0252 151.755 41.2023 154.234 41.2023H162.274C165.249 41.2023 167.48 41.6981 169.039 42.7252C170.562 43.7524 171.341 45.2045 171.341 47.1525C171.341 48.9234 170.703 50.7298 169.464 52.6069C168.295 54.5549 166.595 56.1842 164.434 57.6363ZM146.052 52.0402C146.052 53.8466 146.938 55.2279 148.673 56.2196C150.409 57.1759 152.923 57.6717 156.217 57.6717C159.972 57.6717 163.159 56.928 165.78 55.405C168.401 53.9174 169.712 52.1111 169.712 50.0568C169.712 48.5693 169.039 47.5421 167.728 46.9046C166.382 46.3025 164.151 45.9837 160.963 45.9837H152.392C150.409 46.6921 148.85 47.5775 147.717 48.6401C146.619 49.7026 146.052 50.836 146.052 52.0402ZM150.232 26.4683C150.232 29.4434 150.763 31.7456 151.79 33.4457C152.817 35.1457 154.269 35.9604 156.111 35.9604C158.059 35.9604 159.547 35.1812 160.574 33.6582C161.601 32.1352 162.097 29.8684 162.097 26.8579C162.097 24.0598 161.565 21.7931 160.538 20.093C159.511 18.3929 158.094 17.5783 156.323 17.5783C154.234 17.5783 152.711 18.3221 151.719 19.7742C150.727 21.2264 150.232 23.4577 150.232 26.4683Z" fill="white"/>
<path d="M176.016 45.134C174.847 45.1694 173.962 45.2048 173.395 45.2048C172.828 45.2048 172.403 45.2048 172.049 45.2048C171.837 45.2048 171.73 45.134 171.73 44.9569C171.73 44.7798 171.837 44.7089 172.049 44.7089C173.218 44.7089 173.962 44.3902 174.245 43.7526C174.529 43.1151 174.67 41.3796 174.67 38.617V7.73229C174.67 6.81142 174.635 6.06763 174.599 5.46552C174.529 4.89882 174.458 4.43839 174.281 4.11963C174.104 3.65919 173.785 3.41126 173.395 3.26959C172.97 3.16334 172.226 3.19875 171.128 3.37584C170.88 3.41126 170.739 3.34042 170.739 3.19875C170.739 3.05708 170.88 2.91541 171.128 2.87999C172.439 2.66748 173.856 2.27788 175.379 1.71119C176.902 1.1445 178.212 0.61322 179.239 0.0465276C179.345 -0.0243089 179.558 -0.0243045 179.806 0.117368C180.089 0.223623 180.231 0.329876 180.231 0.436131V22.8913C181.789 20.8725 183.383 19.3495 185.048 18.3578C186.712 17.3661 188.448 16.8702 190.36 16.8702C193.336 16.8702 195.567 17.7911 197.055 19.6682C198.542 21.5454 199.321 24.3435 199.321 28.0978V41.5921C199.321 42.8318 199.463 43.6464 199.782 44.1068C200.1 44.5673 200.844 44.7444 201.978 44.7089C202.19 44.7089 202.296 44.7798 202.296 44.9569C202.296 45.134 202.19 45.2048 201.978 45.2048C201.907 45.2048 201.73 45.2048 201.446 45.2048C201.163 45.2048 200.596 45.1694 199.711 45.134C198.33 45.134 197.373 45.134 196.807 45.0985C196.24 45.0631 195.886 45.0631 195.709 45.0631C195.602 45.0631 195.425 45.0631 195.213 45.0631C195 45.0631 194.611 45.0985 194.044 45.134C193.159 45.1694 192.486 45.2048 192.061 45.2048C191.6 45.2048 191.211 45.2048 190.892 45.2048C190.679 45.2048 190.573 45.134 190.573 44.9569C190.573 44.7798 190.679 44.7089 190.892 44.7089C191.919 44.7089 192.592 44.5673 192.911 44.2839C193.229 44.0006 193.442 43.5047 193.548 42.7609C193.619 42.3713 193.69 41.8401 193.725 41.2734C193.761 40.6713 193.796 39.8921 193.796 38.9358V27.7082C193.796 24.9101 193.265 22.7496 192.238 21.2621C191.211 19.7745 189.688 19.0307 187.74 19.0307C186.287 19.0307 185.012 19.3849 183.879 20.0578C182.746 20.7308 181.541 21.8996 180.302 23.5288V44.6735H183.631C183.844 44.6735 183.95 44.7444 183.95 44.9215C183.95 45.0985 183.844 45.1694 183.631 45.1694C183.489 45.1694 183.241 45.1694 182.923 45.1694C182.604 45.1694 181.966 45.134 181.045 45.0985C180.125 45.0631 179.487 45.0277 179.097 45.0277C178.743 45.0277 178.46 45.0277 178.318 45.0277C178.212 45.0277 178 45.0277 177.752 45.0277C177.504 45.0277 176.831 45.0985 176.016 45.134Z" fill="white"/>
<path d="M220.82 37.9087C219.438 40.388 217.915 42.3006 216.251 43.6819C214.551 45.0632 212.886 45.7362 211.151 45.7362C209.273 45.7362 207.892 45.0986 207.042 43.859C206.192 42.5839 205.767 40.5651 205.767 37.7316V20.7309H202.084C202.048 20.7309 202.013 20.6955 202.013 20.5892C202.013 20.4829 202.048 20.4475 202.084 20.4121L210.974 11.8409C211.08 11.7346 211.151 11.6992 211.221 11.6992C211.292 11.7346 211.292 11.8055 211.292 11.9472V17.4016H218.836C219.368 17.3661 219.757 17.3661 220.041 17.3661C220.324 17.4016 220.466 17.4016 220.466 17.437C220.466 17.6141 220.218 18.1099 219.686 18.8891C219.155 19.6683 218.659 20.2704 218.128 20.7309H211.186V36.7399C211.186 38.7233 211.505 40.2463 212.107 41.3089C212.709 42.336 213.63 42.8673 214.799 42.8673C215.826 42.8673 216.818 42.4068 217.703 41.5214C218.624 40.6359 219.403 39.3255 220.111 37.59C220.218 37.3775 220.395 37.3066 220.607 37.4129C220.891 37.5191 220.926 37.6962 220.82 37.9087Z" fill="white"/>
<path d="M249.226 45.3466H248.446C248.305 45.3466 248.199 45.3112 248.128 45.2758C248.057 45.2404 247.986 45.1696 247.951 45.0987L237.715 18.2163C237.077 16.5516 236.546 15.2057 236.121 14.1786C235.66 13.1515 235.306 12.266 235.023 11.5222C234.208 9.82214 233.5 8.65334 232.898 8.08665C232.296 7.48454 231.339 7.2012 229.994 7.2012H229.887C229.569 7.2012 229.391 7.13035 229.427 6.95326C229.462 6.77617 229.604 6.70533 229.816 6.70533C230.135 6.70533 230.596 6.70533 231.127 6.74075C231.658 6.77617 232.508 6.77617 233.712 6.81159C234.421 6.84701 234.917 6.88242 235.2 6.88242C235.483 6.88242 235.66 6.88242 235.767 6.88242C235.873 6.88242 236.121 6.88242 236.475 6.88242C236.829 6.88242 237.573 6.84701 238.636 6.81159C240.3 6.77617 241.469 6.74075 242.177 6.74075C242.886 6.70533 243.382 6.70533 243.736 6.70533C243.948 6.70533 244.09 6.77617 244.09 6.95326C244.125 7.13035 244.019 7.2012 243.771 7.2012H242.602C241.859 7.2012 241.292 7.34286 240.938 7.59079C240.584 7.83872 240.371 8.22832 240.336 8.7596C240.336 9.39713 240.654 10.6368 241.292 12.5139C241.929 14.3911 242.992 17.26 244.444 21.0851L251.28 38.6526C251.315 38.7234 251.351 38.7943 251.422 38.8297C251.492 38.9005 251.528 38.9005 251.563 38.9005C251.599 38.9005 251.634 38.9005 251.634 38.8651C251.669 38.8297 251.705 38.7589 251.776 38.6172L257.514 26.0083L253.086 15.3828C252.52 14.0369 252.095 13.0098 251.74 12.2306C251.386 11.4514 251.067 10.7784 250.819 10.2472C250.182 9.07835 249.615 8.26374 249.084 7.83872C248.553 7.4137 247.738 7.2012 246.64 7.2012H246.321C246.073 7.2012 245.932 7.13035 245.967 6.95326C246.003 6.77617 246.109 6.70533 246.321 6.70533C246.64 6.70533 247.101 6.70533 247.632 6.74075C248.163 6.77617 249.049 6.77617 250.288 6.81159C251.067 6.84701 251.599 6.88242 251.882 6.88242C252.165 6.88242 252.342 6.88242 252.449 6.88242C252.555 6.88242 252.767 6.88242 253.051 6.88242C253.334 6.88242 253.901 6.84701 254.645 6.81159C255.92 6.77617 256.805 6.74075 257.372 6.74075C257.939 6.70533 258.364 6.70533 258.718 6.70533C258.93 6.70533 259.037 6.77617 259.037 6.95326C259.037 7.13035 258.93 7.2012 258.718 7.2012H258.399C257.761 7.2012 257.301 7.30745 257.053 7.51996C256.77 7.73247 256.628 8.08665 256.628 8.58251C256.628 9.25545 256.77 10.1055 257.088 11.1326C257.372 12.1597 257.868 13.5056 258.541 15.1703L260.914 20.8372L262.755 16.4454C263.287 15.2765 263.676 14.0369 263.995 12.7973C264.278 11.5576 264.455 10.5305 264.455 9.71588C264.455 8.86584 264.278 8.22832 263.96 7.76788C263.641 7.30744 263.145 7.09493 262.578 7.09493C262.507 7.09493 262.401 7.09494 262.26 7.13035C262.118 7.16577 261.941 7.16578 261.693 7.2012C261.551 7.23661 261.445 7.27203 261.374 7.27203C261.303 7.27203 261.268 7.27203 261.232 7.27203C261.126 7.27203 261.055 7.23661 260.985 7.2012C260.914 7.16578 260.914 7.09494 260.914 6.98868C260.914 6.88243 260.949 6.81159 261.055 6.74075C261.162 6.66992 261.303 6.66992 261.516 6.66992C261.693 6.66992 261.976 6.66992 262.33 6.66992C262.685 6.66992 263.287 6.70533 264.208 6.74075C265.058 6.77617 265.66 6.81159 265.943 6.81159C266.262 6.81159 266.474 6.81159 266.651 6.81159C266.758 6.81159 266.935 6.81159 267.218 6.81159C267.466 6.81159 267.962 6.77617 268.706 6.74075C269.804 6.70533 270.618 6.66992 271.114 6.66992C271.61 6.66992 272 6.66992 272.248 6.66992C272.46 6.66992 272.566 6.74075 272.566 6.91784C272.531 7.09493 272.46 7.16578 272.248 7.16578H271.15C269.839 7.16578 268.599 7.94498 267.36 9.46796C266.12 10.9909 264.81 13.3994 263.428 16.6579L261.374 21.6164L268.529 38.9359C268.564 39.0068 268.599 39.0776 268.67 39.113C268.741 39.1484 268.777 39.1839 268.812 39.1839C268.847 39.1839 268.883 39.1484 268.918 39.113C268.954 39.0776 268.989 39.0068 269.024 38.9359L277.029 18.11C277.631 16.4808 278.092 14.9578 278.41 13.5765C278.729 12.1952 278.906 10.9909 278.906 9.99924C278.906 9.07836 278.658 8.37 278.198 7.87414C277.702 7.37828 277.029 7.13035 276.073 7.13035C276.002 7.13035 275.896 7.13036 275.754 7.16578C275.612 7.20119 275.4 7.23661 275.081 7.30745C274.904 7.30745 274.762 7.30745 274.691 7.34287C274.621 7.37828 274.55 7.37829 274.514 7.37829C274.408 7.37829 274.302 7.34286 274.231 7.30745C274.16 7.23661 274.125 7.16577 274.125 7.05951C274.125 6.95326 274.196 6.88243 274.302 6.81159C274.408 6.74076 274.585 6.74075 274.798 6.74075C274.975 6.74075 275.293 6.74075 275.718 6.74075C276.144 6.74075 276.923 6.77617 278.021 6.81159C279.083 6.84701 279.827 6.88242 280.252 6.88242C280.642 6.88242 280.925 6.88242 281.102 6.88242C281.208 6.88242 281.385 6.88242 281.598 6.88242C281.81 6.88242 282.2 6.84701 282.767 6.81159C283.652 6.77617 284.325 6.74075 284.75 6.74075C285.175 6.74075 285.529 6.74075 285.848 6.74075C286.061 6.74075 286.167 6.81159 286.167 6.98868C286.131 7.16578 286.061 7.23661 285.848 7.23661H285.671C284.361 7.23661 283.121 8.08665 281.917 9.78672C280.712 11.4868 279.331 14.3911 277.773 18.4642L267.218 45.205C267.183 45.2758 267.147 45.3466 267.076 45.3821C267.006 45.4175 266.935 45.4529 266.758 45.4529H265.978C265.801 45.4529 265.66 45.4529 265.624 45.4175C265.553 45.3821 265.518 45.3466 265.483 45.2404L257.868 26.8937L249.58 45.1696C249.544 45.2404 249.509 45.3112 249.438 45.3466C249.403 45.3466 249.332 45.3466 249.226 45.3466Z" fill="white"/>
<path d="M297.642 37.4833C296.65 39.5375 295.092 41.4147 292.931 43.1856C290.806 44.9565 288.752 45.8066 286.733 45.8066C284.679 45.8066 283.014 45.2045 281.668 44.0357C280.323 42.8669 279.685 41.3793 279.685 39.6084C279.685 37.5187 280.783 35.6061 283.014 33.8352C285.246 32.0643 288.788 30.2225 293.675 28.3454L297.996 26.6807C297.925 23.2806 297.465 20.8721 296.65 19.4554C295.836 18.0387 294.49 17.3303 292.577 17.3303C291.834 17.3303 291.161 17.472 290.594 17.7199C289.992 17.9678 289.496 18.3574 289.035 18.8179C288.681 19.172 288.327 19.6325 288.008 20.1637C287.69 20.695 287.3 21.5096 286.804 22.6076C286.627 23.1035 286.485 23.4222 286.344 23.6347C286.237 23.8473 286.131 24.0243 286.06 24.166C285.812 24.6973 285.423 25.0515 284.962 25.264C284.467 25.4765 283.829 25.5827 282.979 25.5827C282.129 25.5827 281.456 25.4411 280.996 25.1223C280.5 24.8035 280.287 24.3785 280.287 23.8827C280.287 23.3514 280.464 22.8201 280.854 22.2534C281.243 21.6867 281.775 21.1555 282.483 20.7304C284.041 19.6679 285.848 18.747 287.938 18.0032C290.027 17.2595 291.904 16.9053 293.534 16.9053C296.792 16.9053 299.271 17.7553 300.936 19.42C302.636 21.12 303.451 23.5993 303.451 26.9641C303.451 27.637 303.451 28.4516 303.415 29.4079C303.38 30.3642 303.344 31.8872 303.274 33.906C303.203 35.5353 303.167 36.6687 303.132 37.3062C303.097 37.9437 303.097 38.475 303.097 38.9C303.097 40.4938 303.203 41.6272 303.415 42.3002C303.628 42.9731 304.017 43.2919 304.513 43.2919C304.974 43.2919 305.47 42.9731 306.036 42.3002C306.603 41.6272 307.099 40.8834 307.453 40.0334C307.595 39.8209 307.772 39.75 308.02 39.8917C308.232 40.0334 308.268 40.2105 308.126 40.4584C307.311 41.7335 306.178 42.9377 304.726 44.0711C303.274 45.2044 301.963 45.8066 300.865 45.8066C299.696 45.8066 298.811 45.4524 298.244 44.744C297.678 44.0357 297.394 42.9377 297.394 41.4501C297.394 40.7418 297.43 40.0334 297.465 39.2896C297.571 38.5104 297.607 37.9083 297.642 37.4833ZM284.998 37.5187C284.998 38.9708 285.494 40.1751 286.521 41.1668C287.548 42.1585 288.823 42.6543 290.381 42.6898C291.834 42.6898 293.286 41.9814 294.773 40.6001C296.261 39.2188 297.252 37.802 297.713 36.3499C297.819 34.0123 297.89 32.1351 297.961 30.683C298.032 29.2308 298.032 28.2745 298.032 27.7433V27.0349L293.817 28.8766C290.417 30.3288 288.079 31.6393 286.84 32.8789C285.6 34.0831 284.998 35.6415 284.998 37.5187Z" fill="white"/>
<path d="M325.198 37.9087C323.816 40.388 322.293 42.3006 320.629 43.6819C318.929 45.0632 317.264 45.7362 315.529 45.7362C313.651 45.7362 312.27 45.0986 311.42 43.859C310.57 42.5839 310.145 40.5651 310.145 37.7316V20.7309H306.461C306.426 20.7309 306.391 20.6955 306.391 20.5892C306.391 20.4829 306.426 20.4475 306.461 20.4121L315.351 11.8409C315.458 11.7346 315.529 11.6992 315.599 11.6992C315.67 11.7346 315.67 11.8055 315.67 11.9472V17.4016H323.214C323.746 17.3661 324.135 17.3661 324.419 17.3661C324.702 17.4016 324.844 17.4016 324.844 17.437C324.844 17.6141 324.596 18.1099 324.064 18.8891C323.533 19.6683 323.037 20.2704 322.506 20.7309H315.564V36.7399C315.564 38.7233 315.883 40.2463 316.485 41.3089C317.087 42.336 318.008 42.8673 319.177 42.8673C320.204 42.8673 321.195 42.4068 322.081 41.5214C323.002 40.6359 323.781 39.3255 324.489 37.59C324.596 37.3775 324.773 37.3066 324.985 37.4129C325.269 37.5191 325.339 37.6962 325.198 37.9087Z" fill="white"/>
<path d="M353.036 34.7563C351.301 38.1211 349.07 40.8129 346.342 42.7963C343.615 44.7797 340.746 45.7714 337.771 45.7714C333.769 45.7714 330.51 44.5318 328.031 42.0525C325.517 39.5732 324.277 36.3502 324.277 32.3833C324.277 28.3102 325.906 24.6975 329.129 21.5807C332.352 18.4639 336.177 16.8701 340.534 16.8701C343.261 16.8701 345.563 17.3306 347.405 18.2868C349.247 19.2431 350.168 20.3765 350.168 21.687C350.168 22.5016 349.849 23.21 349.211 23.8121C348.574 24.4142 347.795 24.6976 346.838 24.6976C346.201 24.6976 345.634 24.5205 345.103 24.1309C344.572 23.7767 343.934 22.9621 343.155 21.7578C342.199 20.1994 341.313 19.1723 340.534 18.6765C339.755 18.1806 338.834 17.9327 337.807 17.9327C335.257 17.9327 333.202 18.9598 331.608 21.0141C330.05 23.0683 329.235 25.7955 329.235 29.1957C329.235 32.8083 330.369 35.7835 332.671 38.1211C334.973 40.4233 337.948 41.5921 341.632 41.5921C344.076 41.5921 346.201 41.0254 348.007 39.8566C349.813 38.7232 351.336 36.9523 352.647 34.5792C352.682 34.473 352.718 34.4021 352.789 34.3667C352.859 34.3313 352.895 34.3313 352.966 34.3667C353.036 34.4021 353.072 34.473 353.072 34.5438C353.107 34.6147 353.072 34.6855 353.036 34.7563Z" fill="white"/>
<path d="M356.72 45.134C355.551 45.1694 354.665 45.2048 354.099 45.2048C353.532 45.2048 353.107 45.2048 352.753 45.2048C352.54 45.2048 352.434 45.134 352.434 44.9569C352.434 44.7798 352.54 44.7089 352.753 44.7089C353.922 44.7089 354.665 44.3902 354.949 43.7526C355.232 43.1151 355.374 41.3796 355.374 38.617V7.73229C355.374 6.81142 355.338 6.06763 355.303 5.46552C355.232 4.89882 355.161 4.43839 354.984 4.11963C354.807 3.65919 354.488 3.41126 354.099 3.26959C353.674 3.16334 352.93 3.19875 351.832 3.37584C351.584 3.41126 351.442 3.34042 351.442 3.19875C351.442 3.05708 351.584 2.91541 351.832 2.87999C353.142 2.66748 354.559 2.27788 356.082 1.71119C357.605 1.1445 358.916 0.61322 359.943 0.0465276C360.049 -0.0243089 360.262 -0.0243045 360.509 0.117368C360.793 0.223623 360.934 0.329876 360.934 0.436131V22.8913C362.493 20.8725 364.087 19.3495 365.751 18.3578C367.416 17.3661 369.151 16.8702 371.064 16.8702C374.039 16.8702 376.271 17.7911 377.758 19.6682C379.246 21.5454 380.025 24.3435 380.025 28.0978V41.5921C380.025 42.8318 380.167 43.6464 380.485 44.1068C380.804 44.5673 381.548 44.7444 382.681 44.7089C382.894 44.7089 383 44.7798 383 44.9569C383 45.134 382.894 45.2048 382.681 45.2048C382.61 45.2048 382.433 45.2048 382.15 45.2048C381.867 45.2048 381.3 45.1694 380.415 45.134C379.033 45.134 378.077 45.134 377.51 45.0985C376.944 45.0631 376.589 45.0631 376.412 45.0631C376.306 45.0631 376.129 45.0631 375.916 45.0631C375.704 45.0631 375.314 45.0985 374.748 45.134C373.862 45.1694 373.189 45.2048 372.764 45.2048C372.304 45.2048 371.914 45.2048 371.595 45.2048C371.383 45.2048 371.277 45.134 371.277 44.9569C371.277 44.7798 371.383 44.7089 371.595 44.7089C372.622 44.7089 373.295 44.5673 373.614 44.2839C373.933 44.0006 374.145 43.5047 374.252 42.7609C374.323 42.3713 374.393 41.8401 374.429 41.2734C374.464 40.6713 374.5 39.8921 374.5 38.9358V27.7082C374.5 24.9101 373.968 22.7496 372.941 21.2621C371.914 19.7745 370.391 19.0307 368.443 19.0307C366.991 19.0307 365.716 19.3849 364.583 20.0578C363.449 20.7308 362.245 21.8996 361.005 23.5288V44.6735H364.335C364.547 44.6735 364.653 44.7444 364.653 44.9215C364.653 45.0985 364.547 45.1694 364.335 45.1694C364.193 45.1694 363.945 45.1694 363.626 45.1694C363.307 45.1694 362.67 45.134 361.749 45.0985C360.828 45.0631 360.191 45.0277 359.801 45.0277C359.447 45.0277 359.164 45.0277 359.022 45.0277C358.916 45.0277 358.703 45.0277 358.455 45.0277C358.066 45.0631 357.534 45.0985 356.72 45.134Z" fill="white"/>
</svg>
