<?xml version="1.0" encoding="UTF-8"?><svg id="Layer_1" xmlns="http://www.w3.org/2000/svg" xmlns:xlink="http://www.w3.org/1999/xlink" viewBox="0 0 576.13 138.91"><defs><style>.cls-1{fill:url(#linear-gradient);}.cls-2{fill:#1a1c1b;}.cls-3{filter:url(#drop-shadow-1);}</style><linearGradient id="linear-gradient" x1="189.02" y1="121.56" x2="387.11" y2="121.56" gradientTransform="matrix(1, 0, 0, 1, 0, 0)" gradientUnits="userSpaceOnUse"><stop offset="0" stop-color="#cb6532"/><stop offset="1" stop-color="#cb6532" stop-opacity="0"/></linearGradient><filter id="drop-shadow-1" filterUnits="userSpaceOnUse"><feOffset dx="7" dy="7"/><feGaussianBlur result="blur" stdDeviation="9"/><feFlood flood-color="#000" flood-opacity=".75"/><feComposite in2="blur" operator="in"/><feComposite in="SourceGraphic"/></filter></defs><path class="cls-2" d="M25.61,62.74c-2.18,1.65-4.53,2.88-6.93,3.73-2.4,.85-4.95,1.23-7.62,1.23-1.92,0-4.1-.21-6.66-.64-2.5-.43-3.94-.85-4.21-1.23-.37-.53-.21-1.28,.53-2.4,.75-1.06,1.44-1.76,2.24-2.02,.11-.05,.21-.05,.37-.11,.16,0,.32-.05,.43-.05,.37,0,.85,.05,1.44,.21,.59,.16,1.6,.48,3.04,.91,2.5,.85,4.48,1.39,5.86,1.71,1.44,.27,2.72,.43,4,.43,1.49,0,2.82-.21,4.05-.59,1.23-.37,2.29-.96,3.2-1.71,.75-.59,1.39-1.28,1.97-2.02,.59-.75,1.17-1.65,1.71-2.66,.43-.75,.85-1.71,1.28-2.77,.43-1.07,1.12-2.93,2.08-5.49,.8-2.13,1.44-3.78,1.86-4.95s.91-2.34,1.39-3.41c2.4-5.75,4.9-10.44,7.62-14.12,2.72-3.62,5.54-6.29,8.52-7.89-6.77-1.12-11.61-1.81-14.55-2.18-2.93-.37-5.17-.53-6.71-.53-.85,0-1.65,.05-2.45,.21-.8,.16-1.55,.37-2.34,.69-1.97,.85-3.73,2.35-5.33,4.42-1.6,2.08-3.14,5.01-4.69,8.79-.64,1.54-1.17,2.56-1.71,2.98-.48,.43-1.28,.64-2.4,.64s-1.81-.32-2.02-.91c-.21-.64,.05-1.6,.8-2.93,1.71-3.14,3.84-5.81,6.34-8.1,2.56-2.24,5.43-4.05,8.68-5.33,1.81-.75,3.73-1.28,5.81-1.65,2.02-.37,4.1-.59,6.18-.59,1.76,0,3.78,.05,5.97,.21,2.18,.11,5.59,.43,10.18,.85,5.22,.53,9.16,.85,11.88,.96,2.72,.16,5.22,.21,7.57,.21,.85,0,1.65-.05,2.45-.11,.8-.11,1.71-.27,2.72-.53,.32-.05,.48-.05,.59-.11,.11,0,.16-.05,.21-.05,.11,0,.16,0,.16,.05,0,0,.05,.05,.05,.11,0,.32-.43,.96-1.28,1.92-.85,.96-1.54,1.6-2.08,1.86-.96,.53-1.97,.91-2.93,1.12-.96,.21-2.24,.27-3.84,.27-1.33,0-3.2-.16-5.7-.48-2.5-.32-6.23-.85-11.14-1.71-1.28,.91-2.45,2.13-3.46,3.68-1.07,1.54-2.13,3.84-3.36,6.87-.37,.96-1.07,2.77-2.08,5.43-1.01,2.66-1.86,4.8-2.56,6.5-1.87,4.53-4.1,8.63-6.71,12.25-2.56,3.68-5.38,6.66-8.42,9Z"/><path class="cls-2" d="M54.16,67.06c-.32,.05-.53,.05-.69,.05h-.43c-.91,0-1.55-.21-1.76-.69-.27-.43-.21-1.12,.11-2.08,.53-.91,1.49-2.45,2.77-4.74,1.28-2.29,3.62-6.45,7.03-12.57,3.52-6.29,5.91-10.55,7.25-12.89,1.33-2.29,2.24-3.89,2.82-4.74,1.6-2.61,3.78-5.22,6.55-7.73,2.77-2.5,5.75-4.63,9-6.34,2.88-1.54,5.81-2.66,8.84-3.46,2.98-.8,6.02-1.17,9-1.17,1.76,0,3.3,.05,4.53,.11,1.23,.05,2.18,.16,2.82,.21,.27,.05,.43,.16,.59,.27,.11,.16,.21,.32,.21,.53,0,.64-.37,1.39-1.07,2.29s-1.33,1.33-1.86,1.33c-.64,0-1.39-.05-2.24-.11-.85-.05-2.24-.16-4.16-.37-2.56-.27-4.48-.43-5.86-.53-1.33-.11-2.61-.11-3.84-.11-1.6,0-2.93,.11-3.94,.32-1.01,.21-1.97,.59-2.93,1.07-1.6,.85-3.3,2.34-5.01,4.53-1.76,2.18-3.78,5.22-6.13,9.22-1.55,2.56-3.94,6.82-7.3,12.89-3.36,6.07-5.44,9.86-6.23,11.3,3.62-4.48,7.83-8.63,12.73-12.57,4.85-3.94,8.36-6.07,10.55-6.39,2.18,.48,2.98,2.08,2.56,4.74-.48,2.72-2.24,6.66-5.33,11.83-.32,.53-.74,1.33-1.39,2.45-.64,1.12-1.12,1.97-1.44,2.5-.75,1.33-1.23,2.4-1.54,3.2-.32,.85-.43,1.55-.37,2.13,.05,.64,.21,1.17,.53,1.6,.32,.43,.75,.75,1.28,.91,1.12-.37,2.4-1.07,3.94-2.13,1.55-1.01,2.82-2.13,3.94-3.25l.37,.43c-1.65,1.6-3.36,3.09-5.06,4.48-1.71,1.33-3.36,2.5-5.01,3.52-.11,.05-.27,.11-.48,.11-.21,.05-.43,.05-.69,.05-.37,0-.75,0-1.06-.05-.32-.05-.53-.11-.64-.21-.69-.53-1.22-1.28-1.7-2.24-.43-1.01-.69-1.92-.75-2.77-.05-.59,.11-1.39,.53-2.34,.37-.96,1.01-2.18,1.86-3.68,.37-.75,.96-1.71,1.76-2.98,.8-1.28,1.33-2.18,1.6-2.66,2.18-3.73,3.52-6.55,4.16-8.52,.59-1.97,.43-3.41-.53-4.32-2.34,.53-5.75,2.77-10.23,6.82-4.48,4.05-8.31,8.42-11.56,13.11-.53,.75-1.01,1.54-1.54,2.5-.53,.96-1.28,2.29-2.35,4.05-.48,.91-.8,1.49-1.01,1.87-.21,.37-.43,.69-.59,1.01h-.27c.05,.21-.11,.27-.37,.27Z"/><path class="cls-2" d="M106.48,65.19c-1.76,.96-3.3,1.65-4.58,2.08-1.28,.43-2.5,.64-3.62,.64-1.28,0-2.56-.48-3.84-1.49-1.28-1.01-2.13-2.18-2.56-3.52-.64-2.13-.69-4.32-.11-6.66,.53-2.29,1.65-4.9,3.3-7.78,1.17-2.03,2.88-4.1,5.06-6.23,2.18-2.13,4.42-3.84,6.66-5.06,1.33-.75,2.72-1.28,4.05-1.71,1.33-.43,2.61-.59,3.84-.59,1.81,0,3.25,.32,4.21,.96,1.01,.64,1.49,1.49,1.49,2.61,0,1.54-1.07,3.36-3.09,5.38-2.08,2.03-5.38,4.48-9.96,7.41-2.72,1.65-4.8,2.93-6.29,3.84-1.49,.91-2.93,1.76-4.31,2.56-.05,.48-.05,.96-.11,1.39,0,.48,0,.96,.05,1.55,.43,1.49,1.06,2.61,1.92,3.3,.85,.75,2.02,1.06,3.41,1.06,.85,0,1.81-.16,2.93-.43,1.12-.27,2.13-.64,3.04-1.06,.96-.48,2.29-1.39,4-2.72,1.65-1.33,2.93-2.56,3.84-3.73l.59,.32c-1.17,1.44-2.66,2.88-4.42,4.26-1.81,1.39-3.62,2.56-5.49,3.62Zm1.49-28.13c-1.12,.75-2.45,2.02-3.84,3.73-1.44,1.76-2.66,3.62-3.78,5.7-.96,1.76-1.76,3.46-2.4,5.22-.64,1.76-1.01,3.46-1.22,5.11,1.97-1.17,3.84-2.29,5.54-3.36,1.71-1.01,3.25-2.03,4.64-2.88,2.66-1.76,4.63-3.2,5.91-4.32,1.28-1.12,2.08-2.18,2.5-3.2,.11-.21,.16-.43,.21-.69,.05-.21,.05-.48,.05-.75,0-1.33-.59-2.45-1.76-3.46-1.17-1.01-2.56-1.49-4.16-1.49-.32,0-.59,0-.85,.05-.32,.16-.59,.27-.85,.32Z"/><path class="cls-2" d="M187.15,68.21c-.53,0-1.12-.21-1.65-.69-.53-.43-1.23-1.23-2.03-2.34l-37.45-48.8-.11,28.34c0,7.78,.69,13.48,2.13,17.1,1.44,3.57,3.89,5.38,7.4,5.38h1.17c.27,0,.43,.11,.43,.37s-.16,.37-.43,.37h-2.4c-1.17,0-3.09-.05-5.75-.16-1.12-.05-1.86-.11-2.24-.11h-1.6c-.32,0-.91,.05-1.65,.11-1.23,.05-2.18,.11-2.82,.11-.64,.05-1.17,.05-1.65,.05-.27,0-.43-.11-.43-.37s.16-.37,.43-.37h.48c1.6-.05,2.82-.85,3.57-2.4,.8-1.54,1.39-4.1,1.76-7.62,.16-1.54,.27-3.41,.37-5.49,.11-2.08,.11-4.42,.11-6.98l.11-27.92c0-.43-.16-.96-.43-1.49-.27-.53-.69-1.12-1.28-1.65-1.12-1.07-2.18-1.81-3.2-2.24-1.01-.43-2.08-.69-3.25-.69h-.48c-.27,0-.43-.11-.43-.32s.16-.32,.43-.32c2.29,0,4.58-.05,6.87-.11,2.29-.05,4.69-.16,7.25-.27,.37-.05,.64-.11,.75-.11h.27c.21,0,.37,.05,.48,.11,.11,.11,.21,.21,.32,.37,.32,.53,.8,1.28,1.39,2.13,.59,.85,1.28,1.76,2.03,2.72l32.23,41.61v-24.4c0-2.77-.11-5.27-.32-7.51-.21-2.24-.53-4.16-.91-5.86-.75-2.77-1.76-4.79-3.14-6.07-1.39-1.28-3.36-1.92-5.97-1.92h-1.17c-.32,0-.48-.11-.48-.37s.16-.37,.48-.37c.48,0,1.28,0,2.35,.05,1.06,.05,2.82,.05,5.33,.11,1.6,.05,2.72,.11,3.25,.11h1.76c.27,0,.75-.05,1.44-.11,1.12-.05,1.97-.11,2.56-.11,.59-.05,1.12-.05,1.65-.05,.32,0,.48,.11,.48,.37s-.16,.37-.48,.37h-.43c-1.92,0-3.14,.69-3.78,2.02-.64,1.33-1.01,3.78-1.28,7.25-.05,1.44-.11,3.2-.16,5.17-.05,2.03-.11,4.32-.11,6.93v35.16c-.11,.27-.32,.48-.69,.64-.16,.21-.59,.27-1.06,.27Z"/><path class="cls-2" d="M202.01,67.89c-1.92,.05-3.25,.11-4.1,.11h-2.02c-.32,0-.48-.11-.48-.37s.16-.37,.48-.37c2.24,0,3.62-.43,4.21-1.28,.59-.85,.85-3.25,.85-7.14v-21.9c0-2.82-.27-4.64-.85-5.33-.53-.75-2.02-.85-4.37-.32-.32,.11-.53,.05-.64-.16-.11-.21,.05-.37,.37-.48,1.92-.43,3.94-1.12,6.18-2.02,2.24-.91,4.26-1.97,6.07-3.14,.16-.11,.48-.11,.85,.11,.43,.16,.64,.32,.64,.48V58.89c0,3.94,.27,6.34,.85,7.19,.59,.85,1.92,1.28,4.05,1.28,.32,0,.48,.11,.48,.37s-.16,.37-.48,.37h-1.97c-.8,0-2.08-.05-3.78-.11-1.12-.05-1.86-.11-2.29-.11h-1.76c-.32-.11-1.12-.05-2.29,0Zm8.36-54.82c0,1.49-.53,2.82-1.65,3.89-1.12,1.06-2.45,1.65-4,1.65s-2.88-.53-3.94-1.65c-1.06-1.07-1.65-2.4-1.65-3.89s.53-2.88,1.65-4c1.07-1.12,2.4-1.65,3.94-1.65s2.88,.53,4,1.65c1.06,1.12,1.65,2.45,1.65,4Z"/><path class="cls-2" d="M247.35,86.7c-2.77,1.92-5.75,3.36-9,4.37-3.2,1.01-6.34,1.49-9.48,1.49-4.42,.05-7.83-.85-10.34-2.66-2.5-1.87-3.78-4.32-3.78-7.46,0-2.56,1.22-5.06,3.62-7.46,2.4-2.4,5.59-4.37,9.59-5.86-3.62-.16-6.34-.75-8.2-1.81-1.87-1.01-2.77-2.5-2.77-4.37s1.01-3.62,3.04-5.17c2.03-1.55,4.74-2.72,8.15-3.52-3.46-.85-6.13-2.4-7.99-4.74-1.86-2.29-2.82-5.27-2.82-8.79,0-4.21,1.7-7.78,5.11-10.66,3.41-2.88,7.78-4.37,13-4.48,1.92-.05,4.05-.27,6.5-.59,2.4-.32,5.7-.96,9.91-1.86,1.6-.32,2.66-.53,3.2-.69,.53-.11,.96-.16,1.23-.16,.74-.05,1.39,.05,1.92,.27,.53,.27,.85,.64,.85,1.12,0,.91-.43,1.76-1.28,2.66-.85,.91-1.81,1.33-2.88,1.33-.32,0-.8-.05-1.44-.11-.64-.05-1.76-.21-3.41-.43-3.36-.43-5.91-.75-7.67-.91-1.76-.16-3.25-.27-4.53-.27v.16c4.58,.69,8.1,2.24,10.6,4.74,2.5,2.5,3.78,5.59,3.78,9.38,0,4.37-1.71,7.83-5.12,10.5-3.41,2.66-7.83,4-13.27,4-.85,0-1.6-.05-2.34-.11-.75-.05-1.39-.16-2.03-.27-2.5,.43-4.37,1.01-5.54,1.71-1.23,.69-1.81,1.55-1.81,2.56,0,1.23,.69,2.08,2.13,2.61,1.44,.48,4,.75,7.73,.75h12.09c4.48,0,7.83,.75,10.18,2.29,2.29,1.54,3.46,3.73,3.46,6.66,0,2.66-.96,5.38-2.82,8.21-1.76,2.93-4.31,5.38-7.57,7.57Zm-27.65-8.42c0,2.72,1.33,4.8,3.94,6.29,2.61,1.44,6.39,2.18,11.35,2.18,5.65,0,10.44-1.12,14.39-3.41,3.94-2.24,5.91-4.95,5.91-8.04,0-2.24-1.01-3.78-2.98-4.74-2.02-.91-5.38-1.39-10.18-1.39h-12.89c-2.98,1.06-5.33,2.4-7.03,4-1.65,1.6-2.5,3.3-2.5,5.11Zm6.29-38.47c0,4.48,.8,7.94,2.34,10.49,1.55,2.56,3.73,3.78,6.5,3.78,2.93,0,5.17-1.17,6.71-3.46,1.54-2.29,2.29-5.7,2.29-10.23,0-4.21-.8-7.62-2.34-10.18-1.55-2.56-3.68-3.78-6.34-3.78-3.14,0-5.43,1.12-6.93,3.3-1.49,2.18-2.24,5.54-2.24,10.07Z"/><path class="cls-2" d="M264.77,67.89c-1.76,.05-3.09,.11-3.94,.11h-2.02c-.32,0-.48-.11-.48-.37s.16-.37,.48-.37c1.76,0,2.88-.48,3.3-1.44,.43-.96,.64-3.57,.64-7.72V11.63c0-1.39-.05-2.5-.11-3.41-.11-.85-.21-1.55-.48-2.03-.27-.69-.75-1.06-1.33-1.28-.64-.16-1.76-.11-3.41,.16-.37,.05-.59-.05-.59-.27s.21-.43,.59-.48c1.97-.32,4.1-.91,6.39-1.76,2.29-.85,4.26-1.65,5.81-2.5,.16-.11,.48-.11,.85,.11,.43,.16,.64,.32,.64,.48V34.43c2.34-3.04,4.74-5.33,7.25-6.82,2.5-1.49,5.11-2.24,7.99-2.24,4.48,0,7.83,1.39,10.07,4.21,2.24,2.82,3.41,7.03,3.41,12.68v20.3c0,1.86,.21,3.09,.69,3.78,.48,.69,1.6,.96,3.3,.91,.32,0,.48,.11,.48,.37s-.16,.37-.48,.37h-.8c-.43,0-1.28-.05-2.61-.11-2.08,0-3.52,0-4.37-.05-.85-.05-1.39-.05-1.65-.05h-.75c-.32,0-.91,.05-1.76,.11-1.33,.05-2.35,.11-2.98,.11h-1.76c-.32,0-.48-.11-.48-.37s.16-.37,.48-.37c1.54,0,2.56-.21,3.04-.64,.48-.43,.8-1.17,.96-2.29,.11-.59,.21-1.39,.27-2.24,.05-.91,.11-2.08,.11-3.52v-16.89c0-4.21-.8-7.46-2.34-9.7-1.54-2.24-3.84-3.36-6.77-3.36-2.18,0-4.1,.53-5.81,1.54-1.71,1.01-3.52,2.77-5.38,5.22v31.81h5.01c.32,0,.48,.11,.48,.37s-.16,.37-.48,.37h-1.07c-.48,0-1.44-.05-2.82-.11-1.39-.05-2.34-.11-2.93-.11h-2.02c-.37,0-1.39,.11-2.61,.16Z"/><path class="cls-2" d="M332.17,57.02c-2.08,3.73-4.37,6.61-6.87,8.68-2.56,2.08-5.06,3.09-7.67,3.09-2.82,0-4.9-.96-6.18-2.82-1.28-1.92-1.92-4.95-1.92-9.22V31.18h-5.54c-.05,0-.11-.05-.11-.21s.05-.21,.11-.27l13.37-12.89c.16-.16,.27-.21,.37-.21,.11,.05,.11,.16,.11,.37v8.2h11.35c.8-.05,1.39-.05,1.81-.05,.43,.05,.64,.05,.64,.11,0,.27-.37,1.01-1.17,2.18-.8,1.17-1.54,2.08-2.34,2.77h-10.44v24.08c0,2.98,.48,5.27,1.39,6.87,.91,1.55,2.29,2.35,4.05,2.35,1.54,0,3.04-.69,4.37-2.03,1.39-1.33,2.56-3.3,3.62-5.91,.16-.32,.43-.43,.75-.27,.43,.16,.48,.43,.32,.75Z"/><path class="cls-2" d="M374.9,68.21h-1.17c-.21,0-.37-.05-.48-.11-.11-.05-.21-.16-.27-.27l-15.4-40.44c-.96-2.5-1.76-4.53-2.4-6.07-.69-1.55-1.23-2.88-1.65-4-1.23-2.56-2.29-4.31-3.2-5.17-.91-.91-2.34-1.33-4.37-1.33h-.16c-.48,0-.75-.11-.69-.37,.05-.27,.27-.37,.59-.37,.48,0,1.17,0,1.97,.05,.8,.05,2.08,.05,3.89,.11,1.07,.05,1.81,.11,2.24,.11h1.92c.53,0,1.65-.05,3.25-.11,2.5-.05,4.26-.11,5.33-.11,1.06-.05,1.81-.05,2.34-.05,.32,0,.53,.11,.53,.37,.05,.27-.11,.37-.48,.37h-1.76c-1.12,0-1.97,.21-2.5,.59-.53,.37-.85,.96-.91,1.76,0,.96,.48,2.82,1.44,5.65,.96,2.82,2.56,7.14,4.74,12.89l10.28,26.43c.05,.11,.11,.21,.21,.27,.11,.11,.16,.11,.21,.11s.11,0,.11-.05c.05-.05,.11-.16,.21-.37l8.63-18.97-6.66-15.98c-.85-2.03-1.49-3.57-2.03-4.74-.53-1.17-1.01-2.18-1.39-2.98-.96-1.76-1.81-2.98-2.61-3.62-.8-.64-2.03-.96-3.68-.96h-.48c-.37,0-.59-.11-.53-.37,.05-.27,.21-.37,.53-.37,.48,0,1.17,0,1.97,.05,.8,.05,2.13,.05,4,.11,1.17,.05,1.97,.11,2.4,.11h1.76c.43,0,1.28-.05,2.4-.11,1.92-.05,3.25-.11,4.1-.11,.85-.05,1.49-.05,2.03-.05,.32,0,.48,.11,.48,.37s-.16,.37-.48,.37h-.48c-.96,0-1.65,.16-2.03,.48-.43,.32-.64,.85-.64,1.6,0,1.01,.21,2.29,.69,3.84,.43,1.54,1.17,3.57,2.18,6.07l3.57,8.52,2.77-6.61c.8-1.76,1.39-3.62,1.86-5.49,.43-1.86,.69-3.41,.69-4.63s-.27-2.24-.75-2.93-1.23-1.01-2.08-1.01c-.11,0-.27,0-.48,.05-.21,.05-.48,.05-.85,.11-.21,.05-.37,.11-.48,.11h-.21c-.16,0-.27-.05-.37-.11-.11-.05-.11-.16-.11-.32s.05-.27,.21-.37c.16-.11,.37-.11,.69-.11h1.23c.53,0,1.44,.05,2.82,.11,1.28,.05,2.18,.11,2.61,.11h1.92c.37,0,1.12-.05,2.24-.11,1.65-.05,2.88-.11,3.62-.11h1.71c.32,0,.48,.11,.48,.37-.05,.27-.16,.37-.48,.37h-1.65c-1.97,0-3.84,1.17-5.7,3.46-1.86,2.29-3.84,5.91-5.91,10.82l-3.09,7.46,10.76,26.05c.05,.11,.11,.21,.21,.27,.11,.05,.16,.11,.21,.11s.11-.05,.16-.11c.05-.05,.11-.16,.16-.27l12.04-31.33c.91-2.45,1.6-4.74,2.08-6.82,.48-2.08,.75-3.89,.75-5.38,0-1.39-.37-2.45-1.07-3.2-.74-.74-1.76-1.12-3.2-1.12-.11,0-.27,0-.48,.05-.21,.05-.53,.11-1.01,.21-.27,0-.48,0-.59,.05-.11,.05-.21,.05-.27,.05-.16,0-.32-.05-.43-.11-.11-.11-.16-.21-.16-.37s.11-.27,.27-.37c.16-.11,.43-.11,.75-.11h1.39c.64,0,1.81,.05,3.46,.11,1.6,.05,2.72,.11,3.36,.11h2.03c.32,0,.91-.05,1.76-.11,1.33-.05,2.34-.11,2.98-.11h1.65c.32,0,.48,.11,.48,.37-.05,.27-.16,.37-.48,.37h-.27c-1.97,0-3.84,1.28-5.65,3.84-1.81,2.56-3.89,6.93-6.23,13.05l-15.88,40.23c-.05,.11-.11,.21-.21,.27-.11,.05-.21,.11-.48,.11h-1.17c-.27,0-.48,0-.53-.05-.11-.05-.16-.11-.21-.27l-11.46-27.6-12.47,27.49c-.05,.11-.11,.21-.21,.27h-.32Z"/><path class="cls-2" d="M447.73,56.38c-1.49,3.09-3.84,5.91-7.09,8.58-3.2,2.66-6.29,3.94-9.32,3.94s-5.59-.91-7.62-2.66c-2.02-1.76-2.98-4-2.98-6.66,0-3.14,1.65-6.02,5.01-8.69,3.36-2.66,8.68-5.43,16.04-8.26l6.5-2.5c-.11-5.12-.8-8.74-2.03-10.87-1.23-2.13-3.25-3.2-6.13-3.2-1.12,0-2.13,.21-2.98,.59-.91,.37-1.65,.96-2.35,1.65-.53,.53-1.06,1.22-1.54,2.02-.48,.8-1.07,2.02-1.81,3.68-.27,.74-.48,1.22-.69,1.54-.16,.32-.32,.59-.43,.8-.37,.8-.96,1.33-1.65,1.65-.75,.32-1.71,.48-2.98,.48s-2.29-.21-2.98-.69c-.75-.48-1.07-1.12-1.07-1.87,0-.8,.27-1.6,.85-2.45,.59-.85,1.39-1.65,2.45-2.29,2.34-1.6,5.06-2.98,8.2-4.1,3.14-1.12,5.97-1.65,8.42-1.65,4.9,0,8.63,1.28,11.14,3.78,2.56,2.56,3.78,6.29,3.78,11.35,0,1.01,0,2.24-.05,3.68-.05,1.44-.11,3.73-.21,6.77-.11,2.45-.16,4.16-.21,5.11-.05,.96-.05,1.76-.05,2.4,0,2.4,.16,4.1,.48,5.12,.32,1.01,.91,1.49,1.65,1.49,.69,0,1.44-.48,2.29-1.49,.85-1.01,1.6-2.13,2.13-3.41,.21-.32,.48-.43,.85-.21,.32,.21,.37,.48,.16,.85-1.22,1.92-2.93,3.73-5.11,5.43-2.18,1.71-4.16,2.61-5.81,2.61-1.76,0-3.09-.53-3.94-1.6-.85-1.06-1.28-2.72-1.28-4.95,0-1.06,.05-2.13,.11-3.25,.16-1.17,.21-2.08,.27-2.72Zm-19.02,.05c0,2.18,.75,4,2.29,5.49,1.55,1.49,3.46,2.24,5.81,2.29,2.18,0,4.37-1.06,6.61-3.14,2.24-2.08,3.73-4.21,4.42-6.39,.16-3.52,.27-6.34,.37-8.52,.11-2.18,.11-3.62,.11-4.42v-1.07l-6.34,2.77c-5.11,2.18-8.63,4.16-10.5,6.02-1.86,1.81-2.77,4.16-2.77,6.98Z"/><path class="cls-2" d="M489.18,57.02c-2.08,3.73-4.37,6.61-6.87,8.68-2.56,2.08-5.06,3.09-7.67,3.09-2.82,0-4.9-.96-6.18-2.82-1.28-1.92-1.92-4.95-1.92-9.22V31.18h-5.54c-.05,0-.11-.05-.11-.21s.05-.21,.11-.27l13.37-12.89c.16-.16,.27-.21,.37-.21,.11,.05,.11,.16,.11,.37v8.2h11.35c.8-.05,1.39-.05,1.81-.05,.43,.05,.64,.05,.64,.11,0,.27-.37,1.01-1.17,2.18-.8,1.17-1.55,2.08-2.35,2.77h-10.44v24.08c0,2.98,.48,5.27,1.39,6.87,.91,1.55,2.29,2.35,4.05,2.35,1.54,0,3.04-.69,4.37-2.03,1.39-1.33,2.56-3.3,3.62-5.91,.16-.32,.43-.43,.75-.27,.43,.16,.53,.43,.32,.75Z"/><path class="cls-2" d="M531.06,52.28c-2.61,5.06-5.97,9.11-10.07,12.09-4.1,2.98-8.42,4.48-12.89,4.48-6.02,0-10.92-1.87-14.65-5.59-3.78-3.73-5.65-8.58-5.65-14.55s2.45-11.56,7.3-16.25c4.85-4.69,10.6-7.09,17.15-7.09,4.1,0,7.57,.69,10.34,2.13,2.77,1.44,4.16,3.14,4.16,5.11,0,1.23-.48,2.29-1.44,3.2-.96,.91-2.13,1.33-3.57,1.33-.96,0-1.81-.27-2.61-.85-.8-.53-1.76-1.76-2.93-3.57-1.44-2.34-2.77-3.89-3.94-4.64s-2.56-1.12-4.1-1.12c-3.84,0-6.93,1.54-9.32,4.63-2.34,3.09-3.57,7.19-3.57,12.31,0,5.43,1.71,9.91,5.17,13.43,3.46,3.46,7.94,5.22,13.48,5.22,3.68,0,6.87-.85,9.59-2.61,2.72-1.71,5.01-4.37,6.98-7.94,.05-.16,.11-.27,.21-.32,.11-.05,.16-.05,.27,0,.11,.05,.16,.16,.16,.27,.05,.11,0,.21-.05,.32Z"/><path class="cls-2" d="M536.6,67.89c-1.76,.05-3.09,.11-3.94,.11h-2.02c-.32,0-.48-.11-.48-.37s.16-.37,.48-.37c1.76,0,2.88-.48,3.3-1.44,.43-.96,.64-3.57,.64-7.72V11.63c0-1.39-.05-2.5-.11-3.41-.11-.85-.21-1.55-.48-2.03-.27-.69-.75-1.06-1.33-1.28-.64-.16-1.76-.11-3.41,.16-.37,.05-.59-.05-.59-.27s.21-.43,.59-.48c1.97-.32,4.1-.91,6.39-1.76,2.29-.85,4.26-1.65,5.81-2.5,.16-.11,.48-.11,.85,.11,.43,.16,.64,.32,.64,.48V34.43c2.34-3.04,4.74-5.33,7.25-6.82,2.5-1.49,5.12-2.24,7.99-2.24,4.48,0,7.83,1.39,10.07,4.21,2.24,2.82,3.41,7.03,3.41,12.68v20.3c0,1.86,.21,3.09,.69,3.78s1.6,.96,3.3,.91c.32,0,.48,.11,.48,.37s-.16,.37-.48,.37h-.8c-.43,0-1.28-.05-2.61-.11-2.08,0-3.52,0-4.37-.05-.85-.05-1.39-.05-1.65-.05h-.75c-.32,0-.91,.05-1.76,.11-1.33,.05-2.34,.11-2.98,.11h-1.76c-.32,0-.48-.11-.48-.37s.16-.37,.48-.37c1.55,0,2.56-.21,3.04-.64,.48-.43,.8-1.17,.96-2.29,.11-.59,.21-1.39,.27-2.24,.05-.91,.11-2.08,.11-3.52v-16.89c0-4.21-.8-7.46-2.34-9.7-1.55-2.24-3.84-3.36-6.77-3.36-2.18,0-4.1,.53-5.81,1.54-1.71,1.01-3.52,2.77-5.38,5.22v31.81h5.01c.32,0,.48,.11,.48,.37s-.16,.37-.48,.37h-1.06c-.48,0-1.44-.05-2.82-.11-1.39-.05-2.34-.11-2.93-.11h-2.02c-.59,.05-1.39,.11-2.61,.16Z"/><g><rect class="cls-1" x="189.02" y="104.22" width="198.09" height="34.69"/><g class="cls-3"><path class="cls-2" d="M201.56,113.8h2.15v17.07h-2.34l-7.15-13.17v13.17h-2.15v-17.07h2.34l7.15,13.17v-13.17Z"/><path class="cls-2" d="M207.67,113.8h10.66v2.05h-8.51v5.1h7.32v2.05h-7.32v7.88h-2.15v-17.07Z"/><path class="cls-2" d="M221.74,115.85v-2.05h12.78v2.05h-5.32v15.02h-2.15v-15.02h-5.32Z"/><path class="cls-2" d="M265.17,125.87c-.78,3.15-2.93,5.2-6.12,5.2-2.05,0-3.73-.76-5.07-2.24-1.32-1.49-1.98-3.66-1.98-6.49s.66-5,1.98-6.49c1.34-1.49,3.02-2.24,5.07-2.24,3.19,0,5.34,2.05,6.12,5.2l-2.02,.61c-.78-2.54-1.98-3.76-4.1-3.76-3.03,0-4.83,2.17-4.83,6.68s1.8,6.68,4.83,6.68c2.12,0,3.32-1.22,4.1-3.76l2.02,.61Z"/><path class="cls-2" d="M273.49,113.6c1.95,0,3.54,.76,4.78,2.27,1.24,1.49,1.85,3.66,1.85,6.46s-.61,4.98-1.85,6.49c-1.24,1.49-2.83,2.24-4.78,2.24s-3.54-.76-4.78-2.24c-1.24-1.51-1.85-3.68-1.85-6.49s.61-4.98,1.85-6.46c1.24-1.51,2.83-2.27,4.78-2.27Zm0,2.05c-1.34,0-2.41,.54-3.22,1.63-.8,1.07-1.19,2.76-1.19,5.05s.39,3.98,1.19,5.07c.81,1.07,1.88,1.61,3.22,1.61s2.41-.54,3.22-1.61c.8-1.1,1.19-2.78,1.19-5.07s-.39-3.98-1.19-5.05c-.81-1.1-1.88-1.63-3.22-1.63Z"/><path class="cls-2" d="M295.14,130.87h-10.85v-17.07h2.15v15.03h8.71v2.05Z"/><path class="cls-2" d="M310.26,130.87h-10.85v-17.07h2.15v15.03h8.71v2.05Z"/><path class="cls-2" d="M313.5,113.8h10.83v2.05h-8.68v4.9h7.46v2.05h-7.46v6.03h8.93v2.05h-11.07v-17.07Z"/><path class="cls-2" d="M340.76,125.87c-.78,3.15-2.93,5.2-6.12,5.2-2.05,0-3.73-.76-5.07-2.24-1.32-1.49-1.98-3.66-1.98-6.49s.66-5,1.98-6.49c1.34-1.49,3.02-2.24,5.07-2.24,3.19,0,5.34,2.05,6.12,5.2l-2.02,.61c-.78-2.54-1.98-3.76-4.1-3.76-3.02,0-4.83,2.17-4.83,6.68s1.81,6.68,4.83,6.68c2.12,0,3.32-1.22,4.1-3.76l2.02,.61Z"/><path class="cls-2" d="M342.69,115.85v-2.05h12.78v2.05h-5.32v15.02h-2.15v-15.02h-5.32Z"/><path class="cls-2" d="M369.39,130.87h-10.39v-1.85h4.12v-13.37h-4.12v-1.85h10.39v1.85h-4.12v13.37h4.12v1.85Z"/><path class="cls-2" d="M379.31,113.6c1.95,0,3.54,.76,4.78,2.27,1.24,1.49,1.85,3.66,1.85,6.46s-.61,4.98-1.85,6.49c-1.24,1.49-2.83,2.24-4.78,2.24s-3.54-.76-4.78-2.24c-1.24-1.51-1.85-3.68-1.85-6.49s.61-4.98,1.85-6.46c1.24-1.51,2.83-2.27,4.78-2.27Zm0,2.05c-1.34,0-2.41,.54-3.22,1.63-.81,1.07-1.2,2.76-1.2,5.05s.39,3.98,1.2,5.07c.8,1.07,1.88,1.61,3.22,1.61s2.42-.54,3.22-1.61c.81-1.1,1.2-2.78,1.2-5.07s-.39-3.98-1.2-5.05c-.8-1.1-1.88-1.63-3.22-1.63Z"/><path class="cls-2" d="M398.09,113.8h2.15v17.07h-2.34l-7.15-13.17v13.17h-2.15v-17.07h2.34l7.15,13.17v-13.17Z"/></g></g></svg>