<?xml version="1.0" encoding="UTF-8"?><svg id="Layer_1" xmlns="http://www.w3.org/2000/svg" xmlns:xlink="http://www.w3.org/1999/xlink" viewBox="0 0 575.16 138.67"><defs><style>.cls-1{fill:url(#linear-gradient);}.cls-2{fill:#fff;}.cls-3{filter:url(#drop-shadow-1);}</style><linearGradient id="linear-gradient" x1="188.7" y1="121.36" x2="386.45" y2="121.36" gradientTransform="matrix(1, 0, 0, 1, 0, 0)" gradientUnits="userSpaceOnUse"><stop offset="0" stop-color="#cb6532"/><stop offset="1" stop-color="#cb6532" stop-opacity="0"/></linearGradient><filter id="drop-shadow-1" filterUnits="userSpaceOnUse"><feOffset dx="7" dy="7"/><feGaussianBlur result="blur" stdDeviation="9"/><feFlood flood-color="#000" flood-opacity=".75"/><feComposite in2="blur" operator="in"/><feComposite in="SourceGraphic"/></filter></defs><path class="cls-2" d="M25.56,62.63c-2.18,1.65-4.52,2.87-6.91,3.72-2.39,.85-4.95,1.22-7.6,1.22-1.91,0-4.1-.21-6.65-.64-2.5-.43-3.94-.85-4.2-1.22-.37-.53-.21-1.28,.53-2.39,.74-1.06,1.44-1.75,2.23-2.02,.11-.05,.21-.05,.37-.11,.16,0,.32-.05,.43-.05,.37,0,.85,.05,1.44,.21,.59,.16,1.6,.48,3.03,.9,2.5,.85,4.47,1.38,5.85,1.7,1.44,.26,2.71,.43,3.99,.43,1.49,0,2.82-.21,4.04-.59,1.22-.37,2.29-.96,3.19-1.7,.74-.58,1.38-1.28,1.97-2.02,.59-.74,1.17-1.65,1.7-2.66,.43-.74,.85-1.7,1.28-2.77,.43-1.06,1.12-2.93,2.07-5.48,.8-2.13,1.44-3.78,1.86-4.95s.9-2.34,1.38-3.4c2.39-5.74,4.89-10.42,7.61-14.09,2.71-3.62,5.53-6.28,8.51-7.87-6.75-1.12-11.59-1.81-14.52-2.18-2.92-.37-5.16-.53-6.7-.53-.85,0-1.65,.05-2.45,.21-.8,.16-1.54,.37-2.34,.69-1.97,.85-3.72,2.34-5.32,4.42-1.6,2.07-3.14,5-4.68,8.78-.64,1.54-1.17,2.55-1.7,2.98-.48,.43-1.28,.64-2.39,.64s-1.81-.32-2.02-.91c-.21-.64,.05-1.6,.8-2.92,1.7-3.14,3.83-5.8,6.33-8.08,2.55-2.23,5.43-4.04,8.67-5.32,1.81-.74,3.72-1.28,5.8-1.65,2.02-.37,4.09-.58,6.17-.58,1.75,0,3.78,.05,5.96,.21,2.18,.11,5.58,.43,10.16,.85,5.21,.53,9.15,.85,11.86,.96,2.71,.16,5.21,.21,7.55,.21,.85,0,1.65-.05,2.45-.11,.8-.11,1.7-.27,2.71-.53,.32-.05,.48-.05,.58-.11,.11,0,.16-.05,.21-.05,.11,0,.16,0,.16,.05,0,0,.05,.05,.05,.11,0,.32-.43,.96-1.28,1.91-.85,.96-1.54,1.6-2.07,1.86-.96,.53-1.97,.9-2.93,1.12-.96,.21-2.23,.27-3.83,.27-1.33,0-3.19-.16-5.69-.48-2.5-.32-6.22-.85-11.12-1.7-1.28,.91-2.45,2.13-3.46,3.67-1.06,1.54-2.13,3.83-3.35,6.86-.37,.96-1.06,2.77-2.07,5.43-1.01,2.66-1.86,4.79-2.55,6.49-1.86,4.52-4.1,8.62-6.7,12.23-2.55,3.67-5.37,6.65-8.4,8.99Z"/><path class="cls-2" d="M54.07,66.94c-.32,.05-.53,.05-.69,.05h-.43c-.91,0-1.54-.21-1.76-.69-.27-.43-.21-1.12,.11-2.07,.53-.91,1.49-2.45,2.77-4.73,1.28-2.29,3.62-6.44,7.02-12.55,3.51-6.28,5.9-10.53,7.23-12.87,1.33-2.29,2.23-3.88,2.82-4.73,1.6-2.61,3.78-5.21,6.54-7.71,2.77-2.5,5.74-4.63,8.99-6.33,2.87-1.54,5.8-2.66,8.83-3.46,2.98-.8,6.01-1.17,8.99-1.17,1.76,0,3.3,.05,4.52,.11,1.22,.05,2.18,.16,2.82,.21,.27,.05,.43,.16,.59,.27,.11,.16,.21,.32,.21,.53,0,.64-.37,1.38-1.06,2.29s-1.33,1.33-1.86,1.33c-.64,0-1.38-.05-2.23-.11-.85-.05-2.23-.16-4.15-.37-2.55-.27-4.47-.43-5.85-.53-1.33-.11-2.61-.11-3.83-.11-1.6,0-2.93,.11-3.94,.32-1.01,.21-1.97,.59-2.93,1.06-1.6,.85-3.3,2.34-5,4.52-1.76,2.18-3.78,5.21-6.12,9.2-1.54,2.55-3.94,6.81-7.29,12.87-3.35,6.06-5.43,9.84-6.22,11.28,3.62-4.47,7.82-8.62,12.71-12.55,4.84-3.94,8.35-6.06,10.53-6.38,2.18,.48,2.98,2.07,2.55,4.73-.48,2.71-2.23,6.65-5.32,11.81-.32,.53-.74,1.33-1.38,2.45-.64,1.12-1.12,1.97-1.44,2.5-.74,1.33-1.22,2.39-1.54,3.19-.32,.85-.43,1.54-.37,2.13,.05,.64,.21,1.17,.53,1.6,.32,.43,.74,.74,1.28,.9,1.12-.37,2.39-1.06,3.94-2.13,1.54-1.01,2.82-2.13,3.94-3.24l.37,.43c-1.65,1.6-3.35,3.08-5.05,4.47-1.7,1.33-3.35,2.5-5,3.51-.11,.05-.27,.11-.48,.11-.21,.05-.43,.05-.69,.05-.37,0-.74,0-1.06-.05-.32-.05-.53-.11-.64-.21-.69-.53-1.22-1.28-1.7-2.23-.43-1.01-.69-1.91-.74-2.77-.05-.59,.11-1.38,.53-2.34,.37-.96,1.01-2.18,1.86-3.67,.37-.74,.96-1.7,1.75-2.98,.8-1.28,1.33-2.18,1.6-2.66,2.18-3.72,3.51-6.54,4.15-8.51,.59-1.97,.43-3.4-.53-4.31-2.34,.53-5.74,2.77-10.21,6.81-4.47,4.04-8.3,8.4-11.54,13.08-.53,.74-1.01,1.54-1.54,2.5-.53,.96-1.28,2.29-2.34,4.04-.48,.91-.8,1.49-1.01,1.86-.21,.37-.43,.69-.59,1.01h-.27c.05,.21-.11,.27-.37,.27Z"/><path class="cls-2" d="M106.3,65.08c-1.75,.96-3.3,1.65-4.57,2.07-1.28,.43-2.5,.64-3.62,.64-1.28,0-2.55-.48-3.83-1.49-1.28-1.01-2.13-2.18-2.55-3.51-.64-2.13-.69-4.31-.11-6.65,.53-2.29,1.65-4.89,3.3-7.77,1.17-2.02,2.87-4.1,5.05-6.22,2.18-2.13,4.42-3.83,6.65-5.05,1.33-.74,2.71-1.28,4.04-1.7,1.33-.43,2.61-.58,3.83-.58,1.81,0,3.24,.32,4.2,.96,1.01,.64,1.49,1.49,1.49,2.61,0,1.54-1.06,3.35-3.08,5.37-2.07,2.02-5.37,4.47-9.95,7.39-2.71,1.65-4.79,2.93-6.28,3.83-1.49,.9-2.92,1.75-4.31,2.55-.05,.48-.05,.96-.11,1.38,0,.48,0,.96,.05,1.54,.43,1.49,1.06,2.61,1.91,3.3,.85,.74,2.02,1.06,3.4,1.06,.85,0,1.81-.16,2.93-.43,1.12-.27,2.13-.64,3.03-1.06,.96-.48,2.29-1.38,3.99-2.71,1.65-1.33,2.93-2.55,3.83-3.72l.59,.32c-1.17,1.44-2.66,2.87-4.42,4.25-1.81,1.38-3.62,2.55-5.48,3.62Zm1.49-28.08c-1.12,.74-2.45,2.02-3.83,3.72-1.44,1.76-2.66,3.62-3.78,5.69-.96,1.76-1.75,3.46-2.39,5.21-.64,1.76-1.01,3.46-1.22,5.11,1.97-1.17,3.83-2.29,5.53-3.35,1.7-1.01,3.24-2.02,4.63-2.87,2.66-1.76,4.63-3.19,5.9-4.31,1.28-1.12,2.07-2.18,2.5-3.19,.11-.21,.16-.43,.21-.69,.05-.21,.05-.48,.05-.74,0-1.33-.58-2.45-1.76-3.46-1.17-1.01-2.55-1.49-4.15-1.49-.32,0-.59,0-.85,.05-.32,.16-.59,.27-.85,.32Z"/><path class="cls-2" d="M186.83,68.1c-.53,0-1.12-.21-1.65-.69-.53-.43-1.22-1.22-2.02-2.34l-37.39-48.72-.11,28.3c0,7.77,.69,13.46,2.13,17.07,1.44,3.56,3.88,5.37,7.39,5.37h1.17c.26,0,.43,.11,.43,.37s-.16,.37-.43,.37h-2.39c-1.17,0-3.08-.05-5.74-.16-1.12-.05-1.86-.11-2.23-.11h-1.6c-.32,0-.9,.05-1.65,.11-1.22,.05-2.18,.11-2.82,.11-.64,.05-1.17,.05-1.65,.05-.27,0-.43-.11-.43-.37s.16-.37,.43-.37h.48c1.6-.05,2.82-.85,3.56-2.39,.8-1.54,1.38-4.09,1.75-7.61,.16-1.54,.27-3.4,.37-5.48,.11-2.08,.11-4.42,.11-6.97l.11-27.87c0-.43-.16-.96-.43-1.49-.27-.53-.69-1.12-1.28-1.65-1.12-1.06-2.18-1.81-3.19-2.23-1.01-.43-2.08-.69-3.25-.69h-.48c-.27,0-.43-.11-.43-.32s.16-.32,.43-.32c2.29,0,4.57-.05,6.86-.11,2.29-.05,4.68-.16,7.23-.27,.37-.05,.64-.11,.74-.11h.27c.21,0,.37,.05,.48,.11,.11,.11,.21,.21,.32,.37,.32,.53,.8,1.28,1.38,2.13,.59,.85,1.28,1.76,2.02,2.71l32.18,41.54v-24.36c0-2.77-.11-5.27-.32-7.5-.21-2.23-.53-4.15-.9-5.85-.74-2.77-1.75-4.79-3.14-6.06-1.38-1.28-3.35-1.91-5.96-1.91h-1.17c-.32,0-.48-.11-.48-.37s.16-.37,.48-.37c.48,0,1.28,0,2.34,.05,1.06,.05,2.82,.05,5.32,.11,1.6,.05,2.71,.11,3.24,.11h1.76c.27,0,.74-.05,1.44-.11,1.12-.05,1.97-.11,2.55-.11,.59-.05,1.12-.05,1.65-.05,.32,0,.48,.11,.48,.37s-.16,.37-.48,.37h-.43c-1.91,0-3.14,.69-3.78,2.02-.64,1.33-1.01,3.78-1.28,7.23-.05,1.44-.11,3.19-.16,5.16-.05,2.02-.11,4.31-.11,6.91v35.1c-.11,.27-.32,.48-.69,.64-.16,.21-.58,.27-1.06,.27Z"/><path class="cls-2" d="M201.67,67.78c-1.91,.05-3.24,.11-4.1,.11h-2.02c-.32,0-.48-.11-.48-.37s.16-.37,.48-.37c2.23,0,3.62-.43,4.2-1.28,.59-.85,.85-3.24,.85-7.13v-21.86c0-2.82-.27-4.63-.85-5.32-.53-.74-2.02-.85-4.36-.32-.32,.11-.53,.05-.64-.16-.11-.21,.05-.37,.37-.48,1.91-.43,3.94-1.12,6.17-2.02,2.23-.91,4.26-1.97,6.06-3.14,.16-.11,.48-.11,.85,.11,.43,.16,.64,.32,.64,.48V58.79c0,3.94,.27,6.33,.85,7.18,.59,.85,1.91,1.28,4.04,1.28,.32,0,.48,.11,.48,.37s-.16,.37-.48,.37h-1.97c-.8,0-2.08-.05-3.78-.11-1.12-.05-1.86-.11-2.29-.11h-1.76c-.32-.11-1.12-.05-2.29,0Zm8.35-54.73c0,1.49-.53,2.82-1.65,3.88-1.12,1.06-2.45,1.65-3.99,1.65s-2.87-.53-3.94-1.65c-1.06-1.06-1.65-2.39-1.65-3.88s.53-2.87,1.65-3.99c1.06-1.12,2.39-1.65,3.94-1.65s2.87,.53,3.99,1.65c1.06,1.12,1.65,2.45,1.65,3.99Z"/><path class="cls-2" d="M246.93,86.55c-2.77,1.91-5.74,3.35-8.99,4.36-3.19,1.01-6.33,1.49-9.47,1.49-4.41,.05-7.82-.85-10.32-2.66-2.5-1.86-3.78-4.31-3.78-7.45,0-2.55,1.22-5.05,3.62-7.45,2.39-2.39,5.59-4.36,9.57-5.85-3.62-.16-6.33-.74-8.19-1.81-1.86-1.01-2.77-2.5-2.77-4.36s1.01-3.62,3.03-5.16c2.02-1.54,4.73-2.71,8.14-3.51-3.46-.85-6.12-2.39-7.98-4.73-1.86-2.29-2.82-5.27-2.82-8.78,0-4.2,1.7-7.77,5.11-10.64,3.4-2.87,7.77-4.36,12.98-4.47,1.91-.05,4.04-.26,6.49-.58,2.39-.32,5.69-.96,9.89-1.86,1.6-.32,2.66-.53,3.19-.69,.53-.11,.96-.16,1.22-.16,.74-.05,1.38,.05,1.91,.27,.53,.27,.85,.64,.85,1.12,0,.9-.43,1.75-1.28,2.66-.85,.9-1.81,1.33-2.87,1.33-.32,0-.8-.05-1.44-.11-.64-.05-1.75-.21-3.4-.43-3.35-.43-5.9-.74-7.66-.9-1.75-.16-3.24-.27-4.52-.27v.16c4.57,.69,8.08,2.23,10.59,4.73,2.5,2.5,3.78,5.59,3.78,9.36,0,4.36-1.7,7.82-5.11,10.48-3.4,2.66-7.82,3.99-13.24,3.99-.85,0-1.6-.05-2.34-.11-.74-.05-1.38-.16-2.02-.27-2.5,.43-4.36,1.01-5.53,1.7-1.22,.69-1.81,1.54-1.81,2.55,0,1.22,.69,2.08,2.13,2.61,1.44,.48,3.99,.74,7.71,.74h12.07c4.47,0,7.82,.74,10.16,2.29,2.29,1.54,3.46,3.72,3.46,6.65,0,2.66-.96,5.37-2.82,8.19-1.75,2.93-4.31,5.37-7.55,7.55Zm-27.6-8.4c0,2.71,1.33,4.79,3.94,6.28,2.61,1.44,6.38,2.18,11.33,2.18,5.64,0,10.42-1.12,14.36-3.4,3.94-2.23,5.9-4.95,5.9-8.03,0-2.23-1.01-3.78-2.98-4.73-2.02-.9-5.37-1.38-10.16-1.38h-12.87c-2.98,1.06-5.32,2.39-7.02,3.99-1.65,1.6-2.5,3.3-2.5,5.11Zm6.28-38.4c0,4.47,.8,7.92,2.34,10.48,1.54,2.55,3.72,3.78,6.49,3.78,2.93,0,5.16-1.17,6.7-3.46,1.54-2.29,2.29-5.69,2.29-10.21,0-4.2-.8-7.61-2.34-10.16-1.54-2.55-3.67-3.78-6.33-3.78-3.14,0-5.43,1.12-6.91,3.3-1.49,2.18-2.23,5.53-2.23,10.05Z"/><path class="cls-2" d="M264.33,67.78c-1.76,.05-3.08,.11-3.94,.11h-2.02c-.32,0-.48-.11-.48-.37s.16-.37,.48-.37c1.76,0,2.87-.48,3.3-1.44,.43-.96,.64-3.56,.64-7.71V11.61c0-1.38-.05-2.5-.11-3.4-.11-.85-.21-1.54-.48-2.02-.27-.69-.74-1.06-1.33-1.28-.64-.16-1.75-.11-3.4,.16-.37,.05-.59-.05-.59-.27s.21-.43,.59-.48c1.97-.32,4.09-.9,6.38-1.75,2.29-.85,4.25-1.65,5.8-2.5,.16-.11,.48-.11,.85,.11,.43,.16,.64,.32,.64,.48V34.38c2.34-3.03,4.73-5.32,7.23-6.81,2.5-1.49,5.11-2.23,7.98-2.23,4.47,0,7.82,1.38,10.05,4.2,2.23,2.82,3.4,7.02,3.4,12.66v20.27c0,1.86,.21,3.08,.69,3.78,.48,.69,1.6,.96,3.3,.9,.32,0,.48,.11,.48,.37s-.16,.37-.48,.37h-.8c-.43,0-1.28-.05-2.61-.11-2.08,0-3.51,0-4.36-.05-.85-.05-1.38-.05-1.65-.05h-.74c-.32,0-.9,.05-1.75,.11-1.33,.05-2.34,.11-2.98,.11h-1.75c-.32,0-.48-.11-.48-.37s.16-.37,.48-.37c1.54,0,2.55-.21,3.03-.64,.48-.43,.8-1.17,.96-2.29,.11-.58,.21-1.38,.27-2.23,.05-.9,.11-2.07,.11-3.51v-16.86c0-4.2-.8-7.45-2.34-9.68-1.54-2.23-3.83-3.35-6.76-3.35-2.18,0-4.09,.53-5.8,1.54-1.7,1.01-3.51,2.77-5.37,5.21v31.75h5c.32,0,.48,.11,.48,.37s-.16,.37-.48,.37h-1.06c-.48,0-1.44-.05-2.82-.11-1.38-.05-2.34-.11-2.93-.11h-2.02c-.37,0-1.38,.11-2.61,.16Z"/><path class="cls-2" d="M331.61,56.93c-2.07,3.72-4.36,6.6-6.86,8.67-2.55,2.08-5.05,3.08-7.66,3.08-2.82,0-4.89-.96-6.17-2.82-1.28-1.91-1.91-4.95-1.91-9.2V31.13h-5.53c-.05,0-.11-.05-.11-.21s.05-.21,.11-.27l13.35-12.87c.16-.16,.27-.21,.37-.21,.11,.05,.11,.16,.11,.37v8.19h11.33c.8-.05,1.38-.05,1.81-.05,.43,.05,.64,.05,.64,.11,0,.27-.37,1.01-1.17,2.18-.8,1.17-1.54,2.07-2.34,2.77h-10.42v24.04c0,2.98,.48,5.27,1.38,6.86,.9,1.54,2.29,2.34,4.04,2.34,1.54,0,3.03-.69,4.36-2.02,1.38-1.33,2.55-3.3,3.62-5.9,.16-.32,.43-.43,.74-.27,.43,.16,.48,.43,.32,.74Z"/><path class="cls-2" d="M374.26,68.1h-1.17c-.21,0-.37-.05-.48-.11-.11-.05-.21-.16-.27-.26l-15.37-40.37c-.96-2.5-1.76-4.52-2.39-6.06-.69-1.54-1.22-2.87-1.65-3.99-1.22-2.55-2.29-4.31-3.19-5.16-.9-.9-2.34-1.33-4.36-1.33h-.16c-.48,0-.74-.11-.69-.37,.05-.27,.27-.37,.59-.37,.48,0,1.17,0,1.97,.05,.8,.05,2.07,.05,3.88,.11,1.06,.05,1.81,.11,2.23,.11h1.91c.53,0,1.65-.05,3.24-.11,2.5-.05,4.25-.11,5.32-.11,1.06-.05,1.81-.05,2.34-.05,.32,0,.53,.11,.53,.37,.05,.27-.11,.37-.48,.37h-1.76c-1.12,0-1.97,.21-2.5,.58-.53,.37-.85,.96-.91,1.76,0,.96,.48,2.82,1.44,5.64,.96,2.82,2.55,7.13,4.73,12.87l10.27,26.38c.05,.11,.11,.21,.21,.27,.11,.11,.16,.11,.21,.11s.11,0,.11-.05c.05-.05,.11-.16,.21-.37l8.62-18.93-6.65-15.96c-.85-2.02-1.49-3.56-2.02-4.73-.53-1.17-1.01-2.18-1.38-2.98-.96-1.75-1.81-2.98-2.61-3.62-.8-.64-2.02-.96-3.67-.96h-.48c-.37,0-.58-.11-.53-.37,.05-.27,.21-.37,.53-.37,.48,0,1.17,0,1.97,.05,.8,.05,2.13,.05,3.99,.11,1.17,.05,1.97,.11,2.39,.11h1.76c.43,0,1.28-.05,2.39-.11,1.91-.05,3.24-.11,4.09-.11,.85-.05,1.49-.05,2.02-.05,.32,0,.48,.11,.48,.37s-.16,.37-.48,.37h-.48c-.96,0-1.65,.16-2.02,.48-.43,.32-.64,.85-.64,1.6,0,1.01,.21,2.29,.69,3.83,.43,1.54,1.17,3.56,2.18,6.06l3.56,8.51,2.77-6.6c.8-1.75,1.38-3.62,1.86-5.48,.43-1.86,.69-3.4,.69-4.63s-.27-2.23-.74-2.93-1.22-1.01-2.08-1.01c-.11,0-.26,0-.48,.05-.21,.05-.48,.05-.85,.11-.21,.05-.37,.11-.48,.11h-.21c-.16,0-.27-.05-.37-.11-.11-.05-.11-.16-.11-.32s.05-.27,.21-.37c.16-.11,.37-.11,.69-.11h1.22c.53,0,1.44,.05,2.82,.11,1.28,.05,2.18,.11,2.61,.11h1.91c.37,0,1.12-.05,2.23-.11,1.65-.05,2.87-.11,3.62-.11h1.7c.32,0,.48,.11,.48,.37-.05,.26-.16,.37-.48,.37h-1.65c-1.97,0-3.83,1.17-5.69,3.46-1.86,2.29-3.83,5.9-5.9,10.8l-3.08,7.45,10.74,26.01c.05,.11,.11,.21,.21,.27,.11,.05,.16,.11,.21,.11s.11-.05,.16-.11c.05-.05,.11-.16,.16-.27l12.02-31.27c.9-2.45,1.6-4.73,2.07-6.81,.48-2.07,.74-3.88,.74-5.37,0-1.38-.37-2.45-1.06-3.19-.74-.74-1.75-1.12-3.19-1.12-.11,0-.27,0-.48,.05-.21,.05-.53,.11-1.01,.21-.27,0-.48,0-.58,.05-.11,.05-.21,.05-.27,.05-.16,0-.32-.05-.43-.11-.11-.11-.16-.21-.16-.37s.11-.27,.27-.37c.16-.11,.43-.11,.74-.11h1.38c.64,0,1.81,.05,3.46,.11,1.6,.05,2.71,.11,3.35,.11h2.02c.32,0,.9-.05,1.76-.11,1.33-.05,2.34-.11,2.98-.11h1.65c.32,0,.48,.11,.48,.37-.05,.27-.16,.37-.48,.37h-.27c-1.97,0-3.83,1.28-5.64,3.83-1.81,2.55-3.88,6.91-6.22,13.03l-15.85,40.16c-.05,.11-.11,.21-.21,.27-.11,.05-.21,.11-.48,.11h-1.17c-.27,0-.48,0-.53-.05-.11-.05-.16-.11-.21-.27l-11.44-27.55-12.45,27.44c-.05,.11-.11,.21-.21,.27h-.32Z"/><path class="cls-2" d="M446.97,56.29c-1.49,3.08-3.83,5.9-7.07,8.56-3.19,2.66-6.28,3.94-9.31,3.94s-5.58-.9-7.61-2.66c-2.02-1.76-2.98-3.99-2.98-6.65,0-3.14,1.65-6.01,5-8.67,3.35-2.66,8.67-5.43,16.01-8.24l6.49-2.5c-.11-5.11-.8-8.72-2.02-10.85-1.22-2.13-3.24-3.19-6.12-3.19-1.12,0-2.13,.21-2.98,.58-.91,.37-1.65,.96-2.34,1.65-.53,.53-1.06,1.22-1.54,2.02-.48,.8-1.06,2.02-1.81,3.67-.27,.74-.48,1.22-.69,1.54-.16,.32-.32,.59-.43,.8-.37,.8-.96,1.33-1.65,1.65-.74,.32-1.7,.48-2.98,.48s-2.29-.21-2.98-.69c-.74-.48-1.06-1.12-1.06-1.86,0-.8,.27-1.6,.85-2.45,.59-.85,1.38-1.65,2.45-2.29,2.34-1.6,5.05-2.98,8.19-4.09,3.14-1.12,5.96-1.65,8.4-1.65,4.89,0,8.62,1.28,11.12,3.78,2.55,2.55,3.78,6.28,3.78,11.33,0,1.01,0,2.23-.05,3.67-.05,1.44-.11,3.72-.21,6.76-.11,2.45-.16,4.15-.21,5.11-.05,.96-.05,1.76-.05,2.39,0,2.39,.16,4.1,.48,5.11,.32,1.01,.9,1.49,1.65,1.49,.69,0,1.44-.48,2.29-1.49,.85-1.01,1.6-2.13,2.13-3.4,.21-.32,.48-.43,.85-.21,.32,.21,.37,.48,.16,.85-1.22,1.91-2.92,3.72-5.11,5.43-2.18,1.7-4.15,2.61-5.8,2.61-1.75,0-3.08-.53-3.94-1.6-.85-1.06-1.28-2.71-1.28-4.95,0-1.06,.05-2.13,.11-3.24,.16-1.17,.21-2.07,.27-2.71Zm-18.99,.05c0,2.18,.74,3.99,2.29,5.48,1.54,1.49,3.46,2.23,5.8,2.29,2.18,0,4.36-1.06,6.6-3.14,2.23-2.07,3.72-4.2,4.41-6.38,.16-3.51,.27-6.33,.37-8.51,.11-2.18,.11-3.62,.11-4.41v-1.06l-6.33,2.77c-5.11,2.18-8.62,4.15-10.48,6.01-1.86,1.81-2.77,4.15-2.77,6.97Z"/><path class="cls-2" d="M488.35,56.93c-2.07,3.72-4.36,6.6-6.86,8.67-2.55,2.08-5.05,3.08-7.66,3.08-2.82,0-4.89-.96-6.17-2.82-1.28-1.91-1.91-4.95-1.91-9.2V31.13h-5.53c-.05,0-.11-.05-.11-.21s.05-.21,.11-.27l13.35-12.87c.16-.16,.27-.21,.37-.21,.11,.05,.11,.16,.11,.37v8.19h11.33c.8-.05,1.38-.05,1.81-.05,.43,.05,.64,.05,.64,.11,0,.27-.37,1.01-1.17,2.18-.8,1.17-1.54,2.07-2.34,2.77h-10.42v24.04c0,2.98,.48,5.27,1.38,6.86,.9,1.54,2.29,2.34,4.04,2.34,1.54,0,3.03-.69,4.36-2.02,1.38-1.33,2.55-3.3,3.62-5.9,.16-.32,.43-.43,.74-.27,.43,.16,.53,.43,.32,.74Z"/><path class="cls-2" d="M530.16,52.19c-2.61,5.05-5.96,9.1-10.05,12.07-4.1,2.98-8.4,4.47-12.87,4.47-6.01,0-10.9-1.86-14.63-5.59-3.78-3.72-5.64-8.56-5.64-14.52s2.45-11.54,7.29-16.22c4.84-4.68,10.58-7.07,17.13-7.07,4.1,0,7.55,.69,10.32,2.13,2.77,1.44,4.15,3.14,4.15,5.11,0,1.22-.48,2.29-1.44,3.19-.96,.9-2.13,1.33-3.56,1.33-.96,0-1.81-.27-2.61-.85-.8-.53-1.75-1.76-2.92-3.56-1.44-2.34-2.77-3.88-3.94-4.63s-2.55-1.12-4.09-1.12c-3.83,0-6.91,1.54-9.31,4.63-2.34,3.08-3.56,7.18-3.56,12.29,0,5.43,1.7,9.89,5.16,13.4,3.46,3.46,7.93,5.21,13.46,5.21,3.67,0,6.86-.85,9.57-2.61,2.71-1.7,5-4.36,6.97-7.93,.05-.16,.11-.26,.21-.32,.11-.05,.16-.05,.27,0,.11,.05,.16,.16,.16,.27,.05,.11,0,.21-.05,.32Z"/><path class="cls-2" d="M535.69,67.78c-1.76,.05-3.08,.11-3.94,.11h-2.02c-.32,0-.48-.11-.48-.37s.16-.37,.48-.37c1.75,0,2.87-.48,3.3-1.44,.43-.96,.64-3.56,.64-7.71V11.61c0-1.38-.05-2.5-.11-3.4-.11-.85-.21-1.54-.48-2.02-.27-.69-.74-1.06-1.33-1.28-.64-.16-1.75-.11-3.4,.16-.37,.05-.59-.05-.59-.27s.21-.43,.59-.48c1.97-.32,4.09-.9,6.38-1.75,2.29-.85,4.25-1.65,5.8-2.5,.16-.11,.48-.11,.85,.11,.43,.16,.64,.32,.64,.48V34.38c2.34-3.03,4.73-5.32,7.23-6.81,2.5-1.49,5.11-2.23,7.98-2.23,4.47,0,7.82,1.38,10.05,4.2,2.23,2.82,3.4,7.02,3.4,12.66v20.27c0,1.86,.21,3.08,.69,3.78s1.6,.96,3.3,.9c.32,0,.48,.11,.48,.37s-.16,.37-.48,.37h-.8c-.43,0-1.28-.05-2.61-.11-2.07,0-3.51,0-4.36-.05-.85-.05-1.38-.05-1.65-.05h-.74c-.32,0-.9,.05-1.76,.11-1.33,.05-2.34,.11-2.98,.11h-1.76c-.32,0-.48-.11-.48-.37s.16-.37,.48-.37c1.54,0,2.55-.21,3.03-.64,.48-.43,.8-1.17,.96-2.29,.11-.58,.21-1.38,.27-2.23,.05-.9,.11-2.07,.11-3.51v-16.86c0-4.2-.8-7.45-2.34-9.68-1.54-2.23-3.83-3.35-6.76-3.35-2.18,0-4.09,.53-5.8,1.54-1.7,1.01-3.51,2.77-5.37,5.21v31.75h5c.32,0,.48,.11,.48,.37s-.16,.37-.48,.37h-1.06c-.48,0-1.44-.05-2.82-.11-1.38-.05-2.34-.11-2.93-.11h-2.02c-.59,.05-1.38,.11-2.61,.16Z"/><rect class="cls-1" x="188.7" y="104.04" width="197.75" height="34.64"/><g class="cls-3"><path class="cls-2" d="M201.22,113.61h2.14v17.05h-2.34l-7.13-13.15v13.15h-2.14v-17.05h2.34l7.13,13.15v-13.15Z"/><path class="cls-2" d="M207.32,113.61h10.64v2.05h-8.5v5.09h7.3v2.05h-7.3v7.87h-2.14v-17.05Z"/><path class="cls-2" d="M221.37,115.65v-2.05h12.76v2.05h-5.31v15h-2.14v-15h-5.31Z"/><path class="cls-2" d="M264.72,125.66c-.78,3.14-2.92,5.19-6.11,5.19-2.05,0-3.73-.75-5.06-2.24-1.32-1.49-1.97-3.65-1.97-6.48s.66-4.99,1.97-6.48c1.34-1.49,3.02-2.24,5.06-2.24,3.19,0,5.33,2.05,6.11,5.19l-2.02,.61c-.78-2.53-1.97-3.75-4.09-3.75-3.02,0-4.82,2.17-4.82,6.67s1.8,6.67,4.82,6.67c2.12,0,3.31-1.22,4.09-3.75l2.02,.61Z"/><path class="cls-2" d="M273.02,113.41c1.95,0,3.53,.75,4.77,2.26,1.24,1.49,1.85,3.65,1.85,6.45s-.61,4.97-1.85,6.48c-1.24,1.49-2.82,2.24-4.77,2.24s-3.53-.75-4.77-2.24c-1.24-1.51-1.85-3.68-1.85-6.48s.61-4.97,1.85-6.45c1.24-1.51,2.82-2.26,4.77-2.26Zm0,2.05c-1.34,0-2.41,.54-3.21,1.63-.8,1.07-1.19,2.75-1.19,5.04s.39,3.97,1.19,5.06c.8,1.07,1.88,1.61,3.21,1.61s2.41-.54,3.21-1.61c.8-1.1,1.19-2.78,1.19-5.06s-.39-3.97-1.19-5.04c-.8-1.1-1.88-1.63-3.21-1.63Z"/><path class="cls-2" d="M294.64,130.65h-10.84v-17.05h2.14v15h8.69v2.05Z"/><path class="cls-2" d="M309.73,130.65h-10.84v-17.05h2.14v15h8.69v2.05Z"/><path class="cls-2" d="M312.97,113.61h10.81v2.05h-8.67v4.89h7.45v2.05h-7.45v6.01h8.91v2.05h-11.05v-17.05Z"/><path class="cls-2" d="M340.19,125.66c-.78,3.14-2.92,5.19-6.11,5.19-2.05,0-3.73-.75-5.06-2.24-1.32-1.49-1.97-3.65-1.97-6.48s.66-4.99,1.97-6.48c1.34-1.49,3.02-2.24,5.06-2.24,3.19,0,5.33,2.05,6.11,5.19l-2.02,.61c-.78-2.53-1.97-3.75-4.09-3.75-3.02,0-4.82,2.17-4.82,6.67s1.8,6.67,4.82,6.67c2.12,0,3.31-1.22,4.09-3.75l2.02,.61Z"/><path class="cls-2" d="M342.1,115.65v-2.05h12.76v2.05h-5.31v15h-2.14v-15h-5.31Z"/><path class="cls-2" d="M368.76,130.65h-10.37v-1.85h4.12v-13.34h-4.12v-1.85h10.37v1.85h-4.12v13.34h4.12v1.85Z"/><path class="cls-2" d="M378.67,113.41c1.95,0,3.53,.75,4.77,2.26,1.24,1.49,1.85,3.65,1.85,6.45s-.61,4.97-1.85,6.48c-1.24,1.49-2.82,2.24-4.77,2.24s-3.53-.75-4.77-2.24c-1.24-1.51-1.85-3.68-1.85-6.48s.61-4.97,1.85-6.45c1.24-1.51,2.82-2.26,4.77-2.26Zm0,2.05c-1.34,0-2.41,.54-3.21,1.63-.8,1.07-1.19,2.75-1.19,5.04s.39,3.97,1.19,5.06c.8,1.07,1.87,1.61,3.21,1.61s2.41-.54,3.21-1.61c.8-1.1,1.19-2.78,1.19-5.06s-.39-3.97-1.19-5.04c-.8-1.1-1.88-1.63-3.21-1.63Z"/><path class="cls-2" d="M397.41,113.61h2.14v17.05h-2.34l-7.13-13.15v13.15h-2.14v-17.05h2.34l7.13,13.15v-13.15Z"/></g></svg>