<svg width="24" height="24" viewBox="0 0 24 24" fill="none" xmlns="http://www.w3.org/2000/svg">
<path d="M8.73313 15.2045C8.62156 15.261 8.49787 15.2893 8.37285 15.2869C8.23041 15.2877 8.09042 15.2499 7.96779 15.1774C7.84516 15.1049 7.74448 15.0006 7.67647 14.8754L7.62022 14.7669L5.42336 10.0438C5.40096 9.9921 5.39132 9.93577 5.39524 9.87955C5.39426 9.82833 5.40371 9.77744 5.42302 9.72998C5.44233 9.68252 5.47109 9.63949 5.50755 9.6035C5.54402 9.56751 5.58742 9.53931 5.63513 9.52062C5.68284 9.50194 5.73385 9.49315 5.78505 9.4948C5.87486 9.49635 5.9621 9.52497 6.03537 9.57693L8.62288 11.389C8.81666 11.4979 9.03969 11.58 9.28972 11.58C9.43265 11.5797 9.57418 11.5518 9.70654 11.4979L21.8358 6.17322C19.6659 3.64757 16.0788 2 12.0162 2C5.39636 2 0 6.42016 0 11.8801C0 14.8436 1.61326 17.5333 4.14339 19.3459C4.33689 19.484 4.47695 19.7307 4.47695 19.9773C4.47237 20.0623 4.45335 20.1458 4.4207 20.2243C4.2272 20.9643 3.89111 22.1742 3.89111 22.2274C3.85674 22.3246 3.83776 22.4266 3.83486 22.5297C3.83388 22.5809 3.84333 22.6318 3.86264 22.6793C3.88195 22.7267 3.91071 22.7698 3.94717 22.8058C3.98364 22.8417 4.02704 22.8699 4.07475 22.8886C4.12246 22.9073 4.17346 22.9161 4.22467 22.9145C4.30698 22.917 4.38706 22.8875 4.44799 22.832L7.06081 21.322C7.25431 21.2132 7.47762 21.131 7.70065 21.131C7.82255 21.1354 7.9435 21.1543 8.06094 21.1873C9.33634 21.5535 10.6569 21.7384 11.9838 21.7366C18.6039 21.7366 24 17.3164 24 11.8562C24 10.2086 23.4999 8.64598 22.6371 7.27179L8.81666 15.1488L8.73228 15.2051L8.73313 15.2045Z" fill="#09BB07"/>
</svg>
